<?xml version="1.0" encoding="UTF-8" standalone="no"?>
<!-- Generator: Adobe Illustrator 22.1.0, SVG Export Plug-In . SVG Version: 6.00 Build 0)  -->

<svg
   xmlns:dc="http://purl.org/dc/elements/1.1/"
   xmlns:cc="http://creativecommons.org/ns#"
   xmlns:rdf="http://www.w3.org/1999/02/22-rdf-syntax-ns#"
   xmlns:svg="http://www.w3.org/2000/svg"
   xmlns="http://www.w3.org/2000/svg"
   xmlns:sodipodi="http://sodipodi.sourceforge.net/DTD/sodipodi-0.dtd"
   xmlns:inkscape="http://www.inkscape.org/namespaces/inkscape"
   version="1.1"
   id="Layer_1"
   x="0px"
   y="0px"
   viewBox="0 0 1920 1080"
   style="enable-background:new 0 0 1920 1080;"
   xml:space="preserve"
   sodipodi:docname="biosafety_undertitle.svg"
   inkscape:version="0.92.2 5c3e80d, 2017-08-06"><metadata
     id="metadata98"><rdf:RDF><cc:Work
         rdf:about=""><dc:format>image/svg+xml</dc:format><dc:type
           rdf:resource="http://purl.org/dc/dcmitype/StillImage" /><dc:title></dc:title></cc:Work></rdf:RDF></metadata><defs
     id="defs96" /><sodipodi:namedview
     pagecolor="#000000"
     bordercolor="#666666"
     borderopacity="1"
     objecttolerance="10"
     gridtolerance="10"
     guidetolerance="10"
     inkscape:pageopacity="1"
     inkscape:pageshadow="2"
     inkscape:window-width="1440"
     inkscape:window-height="796"
     id="namedview94"
     showgrid="false"
     inkscape:pagecheckerboard="false"
     inkscape:zoom="0.48645833"
     inkscape:cx="960"
     inkscape:cy="540"
     inkscape:window-x="0"
     inkscape:window-y="0"
     inkscape:window-maximized="1"
     inkscape:current-layer="Layer_1" /><style
     type="text/css"
     id="style2">
	.st0{fill:url(#SVGID_1_);}
	.st1{fill:#FFFFFF;}
</style><g
     id="g11"><linearGradient
       gradientTransform="matrix(1,0,0,-1,0,1080)"
       y2="530.54999"
       x2="1367"
       y1="530.54999"
       x1="654"
       gradientUnits="userSpaceOnUse"
       id="SVGID_1_"><stop
         id="stop4"
         style="stop-color:#F7931E"
         offset="0" /><stop
         id="stop6"
         style="stop-color:#FF1D25"
         offset="1" /></linearGradient><path
       sodipodi:nodetypes="scscssscscsss"
       style="fill:url(#SVGID_1_)"
       inkscape:connector-curvature="0"
       id="path9"
       d="m 1267.7,415.1 c -2.6,0 -5.3,0.1 -7.9,0.4 -0.7,-0.3 -1.5,-0.39825 -2.3,-0.4 L 753.3,414 c -4.2,-0.7 4.3,0 0,0 -54.8,0 -99.3,60.4 -99.3,134.9 0,74.5 44.5,134.9 99.3,134.9 2.6,0 5.3,-0.1 7.9,-0.4 0.7,0.3 1.5,0.4 2.3,0.4 H 1255 c 4.2,0.7 8.4,1.1 12.7,1.1 54.8,0 99.3,-60.4 99.3,-134.9 0,-74.5 -44.5,-134.9 -99.3,-134.9 z"
       class="st0" /></g><g
     id="g25"
     transform="translate(-14.413829)"><path
       inkscape:connector-curvature="0"
       id="path13"
       d="m 950.3,549.4 c -0.2,2.1 -0.4,4.2 -0.4,6.4 0,25.8 18.1,47.9 43.7,57.1 l 0.3,-1.1 0.2,-0.6 3,-8.1 2.9,-9.9 c -15.7,-6.8 -26.4,-20.8 -26.4,-37 0,-0.3 0,-0.5 0,-0.8 z" /><path
       inkscape:connector-curvature="0"
       id="path15"
       d="m 996.6,520.7 c 7.2,-3.8 15.6,-6 24.7,-6 11.8,0 22.5,3.7 30.9,9.8 l 18.5,-11.9 c -12.8,-11.4 -30.6,-18.6 -50.3,-18.6 -15.3,0 -29.4,4.3 -41,11.5 z" /><path
       inkscape:connector-curvature="0"
       id="path17"
       d="m 1090.7,555.8 c 0,-0.2 0,-0.4 0,-0.6 l -22,5.4 c -1.6,13.5 -10.8,25.1 -23.7,31.5 l 4.9,19.7 c 24.1,-9.9 40.8,-31.2 40.8,-56 z" /><path
       inkscape:connector-curvature="0"
       id="path19"
       d="m 1044.1,611.7 c -4.2,-13.7 -1,-27.6 7.4,-38.9 l -13.6,-4 c -3,3.1 -7.6,5 -12.8,5 -5.1,0 -9.7,-1.9 -12.8,-5 l -17.4,4.9 c 3,5 5.2,10.5 6.3,16.2 0.5,2.8 0.8,5.6 0.8,8.5 0,29.2 -27.1,52.8 -60.6,52.8 -9.5,0 -18.6,-1.9 -26.6,-5.3 11.1,6.4 24.2,10.3 38.5,11 28.1,1.4 53.6,-10.2 69,-28.9 18.1,19.6 49.3,30.1 81.3,24.9 8,-1.3 15.5,-3.5 22.4,-6.4 -1.9,0.6 -3.8,1.1 -5.8,1.5 -33.8,7.2 -67.8,-9 -76.1,-36.3 z" /><path
       inkscape:connector-curvature="0"
       id="path21"
       d="m 941.3,545.6 c 18.9,0 35.7,7.5 46.8,19.3 l 20.5,-5.8 c 0.5,-4.9 4.2,-9.1 9.3,-11.1 l 0.3,-15.7 c -10.1,-1.3 -20,-4.6 -28.9,-10.1 -27.9,-17.4 -34.3,-49.8 -14.4,-72.3 5.7,-6.4 12.9,-11.4 21,-14.8 -12.7,3.7 -24.3,10.2 -33.5,19.4 -18.3,18.3 -22.3,42.8 -13.2,64.5 -37.5,3.8 -67.7,30.8 -70.2,64.9 -0.5,6.8 0.2,13.4 1.8,19.8 -0.2,-1.7 -0.3,-3.4 -0.3,-5.1 0.2,-29.4 27.4,-53 60.8,-53 z" /><path
       inkscape:connector-curvature="0"
       id="path23"
       d="m 1169.6,574.6 c -6.4,-27.9 -33.7,-48.2 -66.5,-52.6 9.8,-25.5 0.3,-55.1 -26.6,-74 -6.2,-4.4 -13,-7.9 -20,-10.5 1.7,0.9 3.4,1.8 5,2.8 27.9,17.4 34.3,49.8 14.4,72.3 -5.4,6.1 -12.2,10.9 -19.8,14.2 -1.9,0.7 -3.7,1.4 -5.5,2.2 -6.4,2.2 -13.3,3.4 -20.3,3.7 l -0.2,14.5 c 6.2,1.6 10.8,6.2 11.3,11.8 l 17.9,5.3 c 2.4,-2.1 5,-4.1 7.8,-5.8 2.8,-1.3 5.6,-2.8 8.2,-4.4 4.5,-2 9.4,-3.6 14.6,-4.7 33.6,-7.2 67.6,9.1 75.9,36.3 2.4,7.8 2.4,15.6 0.4,23 4.8,-10.7 6.1,-22.4 3.4,-34.1 z" /></g><g
     id="Layer_2_1_"><g
       id="g30"><path
         class="st1"
         d="M1481,514.1c-0.3,0.2-0.6,0.4-0.9,0.7c-0.1,0-0.2,0.1-0.3,0.1l-56.9,40c-0.5,0.3-1.1,0.6-1.6,0.9    c-6.3,4.5-6.5,15.2-0.2,24.1s16.4,12.4,22.7,7.9c0.3-0.2,0.6-0.4,0.9-0.7c0.1,0,0.2-0.1,0.3-0.1l56.9-40c0.5-0.3,1.1-0.6,1.6-0.9    c6.3-4.5,6.5-15.2,0.2-24.1S1487.4,509.6,1481,514.1z"
         id="path28" /></g><g
       id="g34"><path
         class="st1"
         d="M1206.6,292.4c-0.3,0.1-0.5,0.2-0.8,0.3c-0.1,0-0.2,0-0.3,0l-51.8,16.2c-0.5,0-0.9,0.1-1.4,0.3    c-5.8,1.8-7.9,11.5-4.7,21.7c3.2,10.2,10.4,17,16.2,15.2c0.3-0.1,0.5-0.2,0.8-0.3c0.1,0,0.2,0,0.3,0l51.8-16.2    c0.5,0,0.9-0.1,1.4-0.3c5.8-1.8,7.9-11.5,4.7-21.7C1219.6,297.4,1212.4,290.6,1206.6,292.4z"
         id="path32" /></g><g
       id="g38"><path
         class="st1"
         d="M886.9,302.9c-0.5,0.1-0.9,0.3-1.3,0.5c-0.1,0-0.3,0-0.4,0l-85.5,23.3c-0.8,0.1-1.5,0.2-2.3,0.4    c-9.5,2.6-14,16.7-10,31.4c4,14.8,15,24.6,24.5,22c0.5-0.1,0.9-0.3,1.3-0.5c0.1,0,0.3,0,0.4,0l85.5-23.3c0.8-0.1,1.5-0.2,2.3-0.4    c9.5-2.6,14-16.7,10-31.4S896.5,300.3,886.9,302.9z"
         id="path36" /></g><g
       id="g42"><path
         class="st1"
         d="M873.8,749.1c-0.3,0-0.7,0.1-1,0.1c-0.1,0-0.2-0.1-0.3-0.1l-64.3,4.4c-0.6-0.1-1.1-0.1-1.7-0.1    c-7.2,0.5-12.3,11.3-11.4,24.1c0.9,12.8,7.4,22.8,14.6,22.3c0.3,0,0.7-0.1,1-0.1c0.1,0,0.2,0.1,0.3,0.1l64.3-4.4    c0.6,0.1,1.1,0.1,1.7,0.1c7.2-0.5,12.3-11.3,11.4-24.1S880.9,748.6,873.8,749.1z"
         id="path40" /></g><g
       id="g46"><path
         class="st1"
         d="M1101.5,775.5c-0.4,0.3-0.8,0.6-1.1,0.9c-0.1,0-0.3,0.1-0.4,0.2l-72.5,51c-0.7,0.3-1.4,0.7-2,1.1    c-8.1,5.7-7.5,20.4,1.3,33c8.8,12.5,22.5,18.1,30.6,12.4c0.4-0.3,0.8-0.6,1.1-0.9c0.1,0,0.3-0.1,0.4-0.2l72.5-51    c0.7-0.3,1.4-0.7,2-1.1c8.1-5.7,7.5-20.4-1.3-33C1123.3,775.3,1109.6,769.8,1101.5,775.5z"
         id="path44" /></g><g
       id="g50"><path
         class="st1"
         d="M993.1,185.5c-0.3,0.2-0.5,0.4-0.7,0.6c-0.1,0-0.2,0.1-0.3,0.1l-47.4,33.3c-0.5,0.2-0.9,0.4-1.3,0.7    c-5.3,3.7-4.8,13.5,1.1,21.9c5.9,8.4,14.9,12.1,20.2,8.4c0.3-0.2,0.5-0.4,0.7-0.6c0.1,0,0.2-0.1,0.3-0.1l47.4-33.3    c0.5-0.2,0.9-0.4,1.3-0.7c5.3-3.7,4.8-13.5-1.1-21.9C1007.5,185.5,998.4,181.7,993.1,185.5z"
         id="path48" /></g><g
       id="g54"><path
         class="st1"
         d="M1405.6,351.8c-0.2-0.1-0.5-0.2-0.8-0.2c-0.1-0.1-0.1-0.1-0.2-0.1l-46.2-16.4c-0.4-0.2-0.8-0.4-1.2-0.5    c-5.2-1.8-11.5,2.8-14.2,10.4s-0.7,15.2,4.5,17c0.2,0.1,0.5,0.2,0.8,0.2c0.1,0.1,0.1,0.1,0.2,0.1l46.2,16.4    c0.4,0.2,0.8,0.4,1.2,0.5c5.2,1.8,11.5-2.8,14.2-10.4C1412.8,361.2,1410.8,353.6,1405.6,351.8z"
         id="path52" /></g><g
       id="g58"><path
         class="st1"
         d="M609.7,370.7c-0.3,0.2-0.5,0.4-0.7,0.6c-0.1,0-0.2,0.1-0.2,0.1L562,404.3c-0.4,0.2-0.9,0.4-1.3,0.7    c-5.2,3.7-5.1,12.8,0.3,20.5s14,10.9,19.2,7.2c0.3-0.2,0.5-0.4,0.7-0.6c0.1,0,0.2-0.1,0.2-0.1l46.7-32.8c0.4-0.2,0.9-0.4,1.3-0.7    c5.2-3.7,5.1-12.8-0.3-20.5C623.4,370.3,614.9,367.1,609.7,370.7z"
         id="path56" /></g><g
       id="g62"><path
         class="st1"
         d="M620.8,687.2c-0.2-0.2-0.4-0.4-0.6-0.6c0-0.1-0.1-0.2-0.1-0.2l-34.9-39.1c-0.2-0.4-0.5-0.8-0.8-1.1    c-3.9-4.4-13.2-2.4-20.9,4.4c-7.6,6.8-10.7,15.9-6.8,20.2c0.2,0.2,0.4,0.4,0.6,0.6c0,0.1,0.1,0.2,0.1,0.2l34.9,39.1    c0.2,0.4,0.5,0.8,0.8,1.1c3.9,4.4,13.2,2.4,20.9-4.4S624.7,691.6,620.8,687.2z"
         id="path60" /></g><g
       id="g66"><path
         class="st1"
         d="M1364,734.3c-0.5-0.1-0.9-0.3-1.4-0.3c-0.1-0.1-0.2-0.2-0.4-0.2l-84.5-26.6c-0.7-0.4-1.4-0.7-2.1-0.9    c-9.4-3-20.8,6.5-25.4,21.1s-0.7,28.8,8.8,31.8c0.5,0.1,0.9,0.3,1.4,0.3c0.1,0.1,0.2,0.2,0.4,0.2l84.5,26.6    c0.7,0.4,1.4,0.7,2.1,0.9c9.4,3,20.8-6.5,25.4-21.1C1377.3,751.5,1373.4,737.3,1364,734.3z"
         id="path64" /></g><g
       id="g70"><path
         class="st1"
         d="M514.3,518.8c-0.3,0-0.5,0.1-0.8,0.1c-0.1,0-0.2,0-0.2,0l-48.2,3.3c-0.4-0.1-0.8-0.1-1.3,0    c-5.4,0.4-9.3,7.6-8.7,16.2s5.4,15.2,10.8,14.8c0.3,0,0.5-0.1,0.8-0.1c0.1,0,0.2,0,0.2,0l48.2-3.3c0.4,0.1,0.8,0.1,1.3,0    c5.4-0.4,9.3-7.6,8.7-16.2C524.5,525.1,519.7,518.4,514.3,518.8z"
         id="path68" /></g><g
       id="g74"><path
         class="st1"
         d="M838,223.6c-0.3,0-0.6,0-0.9,0c-0.1,0-0.2-0.1-0.3-0.1l-54.3-1.1c-0.5-0.1-0.9-0.2-1.4-0.2    c-6.1-0.1-11.1,8.4-11.3,19.1c-0.2,10.7,4.5,19.4,10.6,19.5c0.3,0,0.6,0,0.9,0c0.1,0,0.2,0.1,0.3,0.1l54.3,1.1    c0.5,0.1,0.9,0.2,1.4,0.2c6.1,0.1,11.1-8.4,11.3-19.1S844,223.7,838,223.6z"
         id="path72" /></g><g
       id="g78"><path
         class="st1"
         d="M1404.7,220.8c-0.5,0-1-0.1-1.5,0c-0.1-0.1-0.3-0.1-0.4-0.1l-91.3-7.5c-0.8-0.2-1.5-0.3-2.3-0.4    c-10.2-0.8-19.4,10.6-20.6,25.5s6,27.6,16.2,28.5c0.5,0,1,0.1,1.5,0c0.1,0.1,0.3,0.1,0.4,0.1l91.3,7.5c0.8,0.2,1.5,0.3,2.3,0.4    c10.2,0.8,19.4-10.6,20.6-25.5C1422.1,234.4,1414.8,221.6,1404.7,220.8z"
         id="path76" /></g><g
       id="g82"><path
         class="st1"
         d="M1226.6,806.4c-0.3,0.1-0.5,0.2-0.8,0.3c-0.1,0-0.2,0-0.3,0l-51.8,16.2c-0.5,0-0.9,0.1-1.4,0.3    c-5.8,1.8-7.9,11.5-4.7,21.7c3.2,10.2,10.4,17,16.2,15.2c0.3-0.1,0.5-0.2,0.8-0.3c0.1,0,0.2,0,0.3,0l51.8-16.2    c0.5,0,0.9-0.1,1.4-0.3c5.8-1.8,7.9-11.5,4.7-21.7C1239.6,811.4,1232.4,804.6,1226.6,806.4z"
         id="path80" /></g><g
       id="g86"><path
         class="st1"
         d="M1546.1,374.8c-0.5,0.1-0.9,0.3-1.4,0.5c-0.2,0-0.3,0-0.4,0l-88.8,27.7c-0.8,0.1-1.6,0.2-2.4,0.5    c-9.9,3.1-13.9,18.6-8.9,34.6s17.1,26.5,27,23.4c0.5-0.1,0.9-0.3,1.4-0.5c0.2,0,0.3,0,0.4,0l88.8-27.7c0.8-0.1,1.6-0.2,2.4-0.5    c9.9-3.1,13.9-18.6,8.9-34.6C1568.1,382.2,1556,371.7,1546.1,374.8z"
         id="path84" /></g><g
       id="g90"><path
         class="st1"
         d="M577.1,560.2c-0.6,0.2-1.2,0.4-1.7,0.7c-0.2,0-0.4,0-0.5,0l-109,34c-1,0.1-2,0.3-2.9,0.6    c-12.2,3.8-17.1,22.6-11,42.1s20.8,32.1,33,28.3c0.6-0.2,1.2-0.4,1.7-0.7c0.2,0,0.4,0,0.5,0l109-34c1-0.1,2-0.3,2.9-0.6    c12.2-3.8,17.1-22.6,11-42.1S589.2,556.4,577.1,560.2z"
         id="path88" /></g></g></svg>