<?xml version="1.0" encoding="UTF-8" standalone="no"?>
<!-- Generator: Adobe Illustrator 22.1.0, SVG Export Plug-In . SVG Version: 6.00 Build 0)  -->

<svg
   xmlns:dc="http://purl.org/dc/elements/1.1/"
   xmlns:cc="http://creativecommons.org/ns#"
   xmlns:rdf="http://www.w3.org/1999/02/22-rdf-syntax-ns#"
   xmlns:svg="http://www.w3.org/2000/svg"
   xmlns="http://www.w3.org/2000/svg"
   xmlns:sodipodi="http://sodipodi.sourceforge.net/DTD/sodipodi-0.dtd"
   xmlns:inkscape="http://www.inkscape.org/namespaces/inkscape"
   version="1.1"
   x="0px"
   y="0px"
   viewBox="0 0 1920 1080"
   style="enable-background:new 0 0 1920 1080;"
   xml:space="preserve"
   id="svg252"
   sodipodi:docname="biosafety.svg"
   inkscape:version="0.92.2 5c3e80d, 2017-08-06"><metadata
     id="metadata258"><rdf:RDF><cc:Work
         rdf:about=""><dc:format>image/svg+xml</dc:format><dc:type
           rdf:resource="http://purl.org/dc/dcmitype/StillImage" /></cc:Work></rdf:RDF></metadata><defs
     id="defs256" /><sodipodi:namedview
     pagecolor="#ffffff"
     bordercolor="#666666"
     borderopacity="1"
     objecttolerance="10"
     gridtolerance="10"
     guidetolerance="10"
     inkscape:pageopacity="0"
     inkscape:pageshadow="2"
     inkscape:window-width="1440"
     inkscape:window-height="796"
     id="namedview254"
     showgrid="false"
     inkscape:zoom="0.48645833"
     inkscape:cx="960"
     inkscape:cy="540"
     inkscape:window-x="0"
     inkscape:window-y="0"
     inkscape:window-maximized="1"
     inkscape:current-layer="svg252" /><style
     type="text/css"
     id="style2">
	.st0{fill:none;stroke:#000000;stroke-width:2;stroke-miterlimit:10;}
	.st1{fill:#FF2733;}
	.st2{fill:none;}
	.st3{font-family:'Futura-Medium';}
	.st4{font-size:36px;}
	.st5{fill:#FF7100;}
	.st6{font-size:24px;}
	.st7{stroke:#000000;stroke-width:2;stroke-miterlimit:10;}
</style><g
     id="g1050"
     transform="matrix(0.90975368,0,0,0.92072845,43.069871,25.652545)"><path
       inkscape:connector-curvature="0"
       id="path5039"
       d="m 792,448 c 532,248 532,248 532,248 z"
       style="fill:none;fill-opacity:1;stroke:#000000;stroke-width:5.69999981;stroke-linecap:butt;stroke-linejoin:miter;stroke-miterlimit:4;stroke-dasharray:none;stroke-opacity:1" /><path
       inkscape:connector-curvature="0"
       id="path5035"
       d="M 1052,318 V 788 Z"
       style="fill:none;stroke:#000000;stroke-width:5.69999981;stroke-linecap:butt;stroke-linejoin:miter;stroke-miterlimit:4;stroke-dasharray:none;stroke-opacity:1" /><path
       inkscape:connector-curvature="0"
       id="path5027"
       d="M 780,708 C 1306,462 1306,462 1306,462 Z"
       style="fill:none;stroke:#000000;stroke-width:5.69999981;stroke-linecap:butt;stroke-linejoin:miter;stroke-miterlimit:4;stroke-dasharray:none;stroke-opacity:1" /><g
       transform="translate(-4,2)"
       id="g19"><circle
         class="st1"
         cx="1058.4"
         cy="553.40002"
         r="162"
         id="circle17"
         style="fill:#ff2733" /></g><g
       transform="translate(-8.6127,-6)"
       id="Layer_2_1_"><g
         id="g33"><path
           d="m 1020.1,530.2 c -0.1,1.4 -0.2,2.9 -0.2,4.4 0,17.7 10.4,32.8 25.2,39.2 l 0.2,-0.7 0.1,-0.4 1.8,-5.6 1.7,-6.8 c -9,-4.7 -15.2,-14.3 -15.2,-25.4 0,-0.2 0,-0.3 0,-0.5 z"
           id="path21"
           inkscape:connector-curvature="0" /><path
           d="m 1046.8,510.5 c 4.1,-2.6 9,-4.1 14.2,-4.1 6.8,0 13,2.5 17.8,6.8 l 10.6,-8.2 c -7.4,-7.9 -17.6,-12.7 -29,-12.7 -8.8,0 -17,2.9 -23.6,7.9 z"
           id="path23"
           inkscape:connector-curvature="0" /><path
           d="m 1101,534.6 c 0,-0.1 0,-0.3 0,-0.4 l -12.7,3.7 c -0.9,9.3 -6.2,17.2 -13.7,21.6 l 2.8,13.5 c 14,-6.8 23.6,-21.4 23.6,-38.4 z"
           id="path25"
           inkscape:connector-curvature="0" /><path
           d="m 1074.2,572.9 c -2.4,-9.4 -0.6,-18.9 4.3,-26.7 l -7.9,-2.8 c -1.7,2.1 -4.4,3.5 -7.4,3.5 -3,0 -5.6,-1.3 -7.4,-3.4 l -10,3.4 c 1.8,3.4 3,7.2 3.6,11.1 0.3,1.9 0.4,3.8 0.4,5.8 0,20 -15.6,36.2 -34.9,36.2 -5.5,0 -10.7,-1.3 -15.3,-3.7 6.4,4.4 14,7.1 22.2,7.6 16.2,1 30.9,-7 39.8,-19.8 10.5,13.4 28.4,20.6 46.9,17.1 4.6,-0.9 8.9,-2.4 12.9,-4.4 -1.1,0.4 -2.2,0.7 -3.4,1 -19.5,5 -39.1,-6.1 -43.8,-24.9 z"
           id="path27"
           inkscape:connector-curvature="0" /><path
           d="m 1014.9,527.6 c 10.9,0 20.6,5.1 27,13.2 l 11.8,-4 c 0.3,-3.4 2.4,-6.2 5.4,-7.6 l 0.1,-10.8 c -5.8,-0.9 -11.6,-3.1 -16.7,-6.9 -16.1,-11.9 -19.8,-34.1 -8.3,-49.6 3.3,-4.4 7.4,-7.8 12.1,-10.1 -7.3,2.6 -14,7 -19.3,13.3 -10.5,12.6 -12.8,29.4 -7.6,44.2 -21.6,2.6 -39,21.1 -40.4,44.5 -0.3,4.7 0.1,9.2 1.1,13.6 -0.1,-1.2 -0.2,-2.3 -0.2,-3.5 0.1,-20.1 15.7,-36.3 35,-36.3 z"
           id="path29"
           inkscape:connector-curvature="0" /><path
           d="m 1146.5,547.5 c -3.7,-19.2 -19.4,-33.1 -38.3,-36.1 5.6,-17.5 0.2,-37.8 -15.3,-50.8 -3.6,-3 -7.5,-5.4 -11.5,-7.2 1,0.6 2,1.2 2.9,2 16.1,11.9 19.8,34.1 8.3,49.6 -3.1,4.2 -7,7.5 -11.4,9.8 -1.1,0.5 -2.1,0.9 -3.2,1.5 -3.7,1.5 -7.7,2.3 -11.7,2.5 l -0.1,10 c 3.6,1.1 6.2,4.3 6.5,8.1 l 10.3,3.6 c 1.4,-1.4 2.9,-2.8 4.5,-4 1.6,-0.9 3.2,-1.9 4.7,-3 2.6,-1.4 5.4,-2.5 8.4,-3.3 19.4,-4.9 39,6.2 43.7,24.9 1.4,5.3 1.4,10.7 0.2,15.8 2.8,-7.4 3.5,-15.4 2,-23.4 z"
           id="path31"
           inkscape:connector-curvature="0" /></g></g><rect
       x="985.40002"
       y="627.09998"
       class="st2"
       width="248.7"
       height="38"
       id="rect37"
       style="fill:none" /><text
       y="646.7973"
       x="969.36084"
       class="st3 st4"
       id="text39"
       style="font-size:36px;font-family:Futura-Medium">Biosafety</text>
<rect
       x="1212.564"
       y="821.66504"
       class="st2"
       width="258"
       height="36.700001"
       id="rect66"
       style="fill:none" /><g
       transform="translate(41.08393,-0.8)"
       id="g1318"><g
         id="g60"
         transform="translate(-4.9116118,-9.7082872)"><circle
           style="fill:#ff7100"
           id="circle58"
           r="162"
           cy="798"
           cx="1418"
           class="st5" /></g><text
         style="font-size:24px;font-family:Futura-Medium"
         id="text68"
         class="st3 st6"
         x="1294.8654"
         y="865.15088">Waste Management</text>
<g
         id="g98"
         transform="translate(-1.8199655,-7.6349609)"><path
           inkscape:connector-curvature="0"
           id="path70"
           d="m 1349,755.9 c 0,-0.5 0,-1.1 0,-1.6 1.2,-4 2.3,-7.9 3.6,-11.9 1.4,-4.5 2.8,-9.1 6.8,-12.4 2.7,-2.3 5.3,-4.6 8.1,-6.8 4.7,-3.6 9.8,-6.8 15.5,-9.1 9.8,-3.9 20,-6.9 29.3,-11.7 1.9,-1 4,-1.6 6,-2.3 -1.2,-0.5 -2.3,-0.7 -3.1,-1.3 -2.9,-2.2 -5.7,-4.4 -8.6,-6.7 2.2,-1.9 3.5,0.3 5.4,0.5 -0.1,-0.9 -0.2,-1.6 -0.2,-2.2 0,-0.5 0.2,-1.4 0.5,-1.5 1.8,-0.4 1.2,-1.3 0.9,-2.3 -0.4,-1.3 -1.4,-3.4 -0.8,-3.9 1.4,-1.4 1,-2.7 0.4,-3.8 -1.7,-2.8 0.8,-4.4 2.2,-6 1.2,-1.4 3.4,-2.1 4.7,-2.8 1.1,0.6 1.9,1 2.8,1.4 1.2,0.6 2.5,1.1 4,1.8 -0.1,-0.7 -0.3,-1.6 -0.5,-2.6 0.7,0.1 1.5,0.3 2.3,0.4 -1.2,2.5 1.4,1.9 2.3,2.9 -0.6,-2.5 1.4,-0.2 1.6,-0.9 -0.1,-0.4 -0.2,-0.7 -0.5,-1.5 1.5,1.2 2.5,1.9 3.4,2.8 0.3,0.3 0.2,0.9 0.2,1.3 -0.5,0 -1,0.1 -1.5,0 -0.3,0 -0.6,-0.3 -1.2,-0.6 0,2.4 0,4.5 0,6.8 2.7,1.2 5.4,2.4 8.7,3.8 -6.2,5.8 -13.1,10.4 -20.8,13.9 1.8,0 4,-0.5 5.7,0.1 3.3,1.2 6.3,3 9.5,4.6 4.4,2.2 7.5,5.6 10.8,9 2.2,2.3 4.8,4.3 7,6.6 1.5,1.6 4.3,2.3 4.6,4.9 0,0.2 1.2,0.3 1.8,0.5 0.1,-0.2 0.2,-0.4 0.3,-0.5 -0.3,-0.4 -0.5,-1 -0.8,-1.3 -1.6,-1.4 -3.3,-2.6 -4.8,-4.1 -0.7,-0.6 -1,-1.6 -1.5,-2.4 0.2,-0.1 0.4,-0.2 0.6,-0.3 3.2,2.8 6.4,5.5 9.4,8.3 1.2,1.2 2,2.7 3,4.1 0.3,0.4 0.6,0.8 0.9,1.2 0.2,-0.5 0.5,-0.9 0.7,-1.6 2.4,2.4 4.7,4.8 7.2,7.1 4,3.6 6.9,7.9 8.8,12.7 0.2,0.4 0.5,1.2 0.3,1.3 -1.5,0.9 -0.5,2.2 -0.7,3.3 -1.1,4.6 0.7,9.1 0.7,13.7 0,2.9 0,5.9 -0.1,9.2 -2.4,-1 -3.6,-1.8 -2.9,-4.1 0.7,-2.2 0.6,-4.5 0.7,-6.8 0.1,-1.7 -1.6,-2.8 -3,-1.9 -1.8,1.1 -2.3,0 -2.8,-0.9 0.8,-0.5 1.5,-1 2.5,-1.7 2.2,0.7 2.2,0.6 2.6,-4.8 -0.7,-0.3 -1.4,-0.5 -2,-0.7 0.6,-0.3 1.2,-0.9 1.8,-1 2.1,-0.3 1.7,-1.7 1.5,-2.9 -0.1,-0.8 -0.5,-1.5 -0.8,-2.4 -0.4,0.2 -0.7,0.4 -1.4,0.9 0.3,-3.1 1.9,-6.2 -1.2,-8.4 -1.4,2.2 -1.1,4.3 0.6,5.9 -1,-0.9 -2.3,-1.3 -3,-2.1 -0.7,-0.8 -0.9,-2 -1.4,-3 -0.1,-0.3 -0.5,-0.4 -0.8,-0.6 -1.8,-0.9 -3.8,-1.6 -5.4,-2.8 -2,-1.5 -3.6,-3.3 -5.4,-5 -0.4,-0.4 -1,-0.5 -1.5,-0.8 -0.1,0.1 -0.3,0.3 -0.4,0.4 3,4.7 8,8.4 8.2,14.5 -0.5,-0.4 -1,-0.8 -1.5,-1.1 -0.5,1.3 -1,2.4 -1.7,4.1 -2,-2.5 -3.6,-4.7 -5.4,-6.7 -0.8,-0.9 -1.9,-1.7 -2.9,-2.5 -0.1,-0.7 -0.1,-1.5 -0.4,-2 -0.6,-1 -1.5,-1.8 -2.2,-2.7 -0.9,1.5 -0.9,1.7 0.5,2.8 0.8,0.6 1.5,1.3 2.2,1.9 -0.9,-0.4 -1.9,-0.7 -3.4,-1.3 0.4,4 0.8,7.8 1.2,11.9 -1.5,-0.8 -2.8,-2 -3.5,0.2 l 0.1,-0.1 c -2.1,-0.9 0.5,-1.9 -0.3,-3.1 -1.6,0 -3.5,0 -5.3,0 -0.2,-3.1 -2.2,-6.7 -4.6,-8.2 0.6,1 1,1.9 1.6,2.9 -0.6,0 -1.2,0.2 -1.3,0.1 -1.4,-2.5 -2.7,-5 -4,-7.3 -0.2,1.6 -0.5,3.5 -0.9,5.8 -2.7,-2 -0.5,-4.6 -2.1,-6.2 -2.9,2.9 -5.7,5.8 -8.6,8.8 2.2,0.6 4.3,0.3 6.3,-0.8 0.9,-0.4 1.7,-0.9 2.6,-1.3 -0.3,0.9 -0.7,1.9 -1,2.8 h 0.1 c -3.5,1.2 -7,2.4 -10.7,3.6 1.3,1.1 2.7,0.8 4.2,0.5 2.2,-0.5 3.2,0.3 3.1,2.3 0,0.5 0.3,1.3 0.5,1.3 2,0.3 1.7,1.7 1.9,2.9 0.1,0.7 0.5,1.4 0.7,2.2 0.2,-0.1 0.4,-0.1 0.6,-0.2 0,-1.5 0,-3 0,-4.6 0.3,-0.1 0.5,-0.2 0.8,-0.3 0.4,0.5 1,1 1,1.6 0.1,1.6 -0.7,3.5 0,4.7 1.1,1.7 0.8,2.9 0.2,4.4 -0.2,0.5 0.6,1.3 1.1,1.8 0.2,0.2 1.1,0.1 1.2,0 0.2,-0.6 0.2,-1.2 0.3,-1.8 0,-0.2 0.2,-0.3 0.6,-1 1.6,1.9 2.9,3.4 4.4,5.1 -4.6,-0.1 -1.4,3.5 -2.8,5.1 -2.1,-0.7 -4.2,-1.4 -6.2,-2 0.1,0.5 0.4,0.8 0.7,1 1.7,0.9 3.6,1.6 5.2,2.6 0.7,0.5 0.8,1.7 1.3,3 -1.4,-0.2 -2,-0.3 -2.6,-0.4 0.1,-0.9 0.1,-1.6 0.2,-2.7 -0.8,0.4 -1.4,0.5 -1.6,0.9 -1.3,1.9 0.5,2.9 1.5,4.2 -1,-0.6 -2,-1.2 -3,-1.8 0,0.8 0.3,1.1 0.6,1.5 0.8,1 2.4,2 2.4,2.9 -0.1,2.2 1.1,3.3 2.9,4.3 1.1,0.6 1.5,1.6 0.6,2.6 -1.2,1.3 -1.1,2.4 0.8,3.1 -3.5,0.5 -6.8,1.9 -10.1,-0.3 0.6,1.3 1.3,2.4 2.3,2.9 2.4,1.4 5,2.5 7.8,3.8 -1.3,1.4 -2.4,2.6 -3.9,4.1 1,0 1.6,0.2 1.8,0 1.6,-1.6 3.4,-0.3 5.1,-0.3 0.3,0 0.9,0.8 0.8,1 -1.1,2.4 0.5,5.1 -1.4,7.3 l 0.1,-0.1 c -0.6,-1.1 -1.2,-2.1 -1.8,-3.2 -1.5,-0.9 -3.4,-1.6 -5.4,-1.9 -0.7,-0.1 -1.5,0.9 -2.2,1.5 -0.2,0.2 -0.1,0.9 0.1,1.1 2,1.8 3.9,3.8 7,3.8 1.6,0 2.5,0.8 3,2.3 -1.9,0.8 -3.2,1.9 -3,4.1 0.2,2.4 2.8,2.1 4,3.4 -4.8,0 -9.5,0 -14.1,0 0,0.1 0,0.2 0,0.3 4.6,0.6 9.3,1.1 13.9,1.7 0,0.1 0,0.2 0,0.3 -0.7,0.2 -1.3,0.3 -1.5,0.4 0,1.5 0,2.8 0,4.2 0.6,0.7 1.7,1.5 2,2.6 0.4,1.1 -0.2,2.4 -0.1,3.6 0,0.3 1.3,0.8 1.8,0.7 1,-0.3 1.9,-1 2.8,-1.5 0.5,-0.3 1.3,-0.8 1.5,-0.6 1.9,1.4 3.8,0.1 5.7,0.1 4.3,0.1 4.5,-0.2 4.9,-3.7 0,-0.1 0.2,-0.2 0.3,-0.3 2.5,-0.1 2.7,-0.3 3,-2.5 0.1,-0.7 0.8,-1.5 1.4,-1.9 1.6,-1 3.3,-1.9 4.9,-2.8 -1.1,-1 -1.9,-1.7 -2.7,-2.5 0.1,-0.1 0.3,-0.2 0.4,-0.4 1.4,0.8 2.9,1.6 4.6,2.6 -1.8,1.1 -3.7,2.4 -5.6,3.5 -1.4,0.8 -1.2,1.4 -0.3,2.6 0.7,0.9 0.9,2.2 1.3,3.3 0.1,0.3 0.2,0.7 0.3,1.1 0.4,-0.2 0.9,-0.3 1.2,-0.5 1.1,-1 2,-2 3.1,-3.1 0.5,0.4 0.9,0.9 1.4,1.3 v 0 c -0.6,0.7 -1.2,1.5 -1.9,2.2 -1.3,1.3 -2.7,2.5 -4.2,3.7 -0.5,0.4 -1,0.8 -1.6,1.1 -5.1,1.8 -10.1,4.1 -15.4,5.3 -8.6,2 -17.3,3.7 -26.3,4.3 -7.8,0.5 -15.5,0.7 -23.2,-0.1 -9.3,-1 -18.6,-2.3 -27.6,-4.7 -7.1,-1.9 -12.8,-5.4 -18,-10 -0.9,-0.8 -1.5,-2 -2.2,-3 -2.9,-4.5 -2.1,-9.6 -2.6,-14.5 -0.3,-2.6 -0.4,-5.2 -0.2,-7.8 0.3,-4.4 1.1,-8.7 1.2,-13.1 0.1,-2.6 -0.5,-5.3 -1,-7.9 -0.5,-2.6 -0.8,-5.3 -1.9,-7.7 -2.3,-4.9 -2.9,-10 -3.6,-15.2 -1,-2.6 -1.6,-4.9 -2.1,-7.3 z m 100.8,-11.1 c 0.3,-0.1 0.5,-0.1 0.8,-0.2 -0.1,-1.2 -0.4,-2.4 -0.3,-3.5 0.1,-1.2 0.5,-2.4 0.9,-3.9 -0.9,0.7 -1.5,1.2 -2.3,1.8 -0.4,-1.8 -0.8,-3.3 -1.2,-5 -1.3,-0.2 -2.7,-0.5 -4.7,-0.9 1.4,1.3 -0.8,4.2 3.3,2.9 -1.6,2.2 -1.3,3.6 1,4.6 0.5,0.2 1.1,1.4 0.9,1.9 -0.5,1.7 0.8,1.8 1.6,2.3 z m -47.6,-5.6 c -0.1,0.1 -0.3,0.3 -0.4,0.4 1.1,2.3 5.3,3.4 3.3,7.1 1.5,0.6 2.9,1.1 4.5,1.7 -0.6,-1.3 -1,-2.2 -1.4,-3.2 0.2,-0.1 0.3,-0.1 0.5,-0.2 0.4,0.6 0.8,1.1 1.2,1.7 0.2,-0.1 0.5,-0.2 0.7,-0.3 0.5,-2.1 -2.3,-3.2 -2.1,-5.4 -1,0.6 -1.5,1 -1.6,1 -1.8,-1 -3.2,-1.9 -4.7,-2.8 z m -11.8,4.7 c 0.3,-0.6 0.5,-1.1 0.8,-1.7 0.9,-2 1.2,-4.3 3.3,-5.8 1.4,-1 1.4,-1.9 0.9,-3.2 -4.3,2.5 -4.9,6.6 -5,10.7 z m -11.5,2.1 c 0.2,0.2 0.5,0.4 0.7,0.6 0.5,-0.3 1.3,-0.5 1.5,-0.9 1,-1.8 1.8,-3.7 2.6,-5.5 -0.1,-0.1 -0.3,-0.2 -0.4,-0.3 -1.4,2.1 -2.9,4.1 -4.4,6.1 z m 32.3,-6.3 c -0.1,0.2 -0.2,0.4 -0.4,0.6 0.6,0.8 1.2,1.5 1.9,2.3 0.9,-0.5 1.6,-0.9 2.7,-1.4 -1.7,-0.6 -2.9,-1.1 -4.2,-1.5 z m 15,12.4 c -0.5,1.9 -1.8,1.6 -3.4,1 0.8,0.9 1.4,1.5 1.9,2.1 1,-0.6 1.9,-1.1 2.8,-1.6 -0.3,-0.4 -0.7,-0.9 -1.3,-1.5 z m 8.6,50.6 c -0.2,-1.5 -0.3,-2.8 -0.5,-4.3 -0.7,1.2 -1.5,2.3 -2.3,3.6 0.6,0.1 1.1,0.2 1.5,0.3 0.6,0.1 1.1,0.3 1.3,0.4 z m -34.1,-61 c -0.1,-0.1 -0.2,-0.1 -0.3,-0.2 -1.2,1.6 -2.4,3.3 -3.5,4.8 0.6,0.3 1.2,0.5 1.5,0.7 0.9,-1.8 1.6,-3.5 2.3,-5.3 z m -5.5,-10.7 c 0.2,0.1 0.4,0.2 0.6,0.3 2.1,-1.6 2.6,-4.2 3.9,-6.3 -1.5,2.1 -3,4.1 -4.5,6 z m 44.4,60.5 c 0.1,-0.4 0.2,-0.8 0.3,-1.2 -1,-0.2 -1.9,-0.4 -2.9,-0.6 -0.1,0.3 -0.2,0.7 -0.3,1 1,0.4 2,0.6 2.9,0.8 z m 27.9,-57.1 c -0.1,0.2 -0.2,0.4 -0.4,0.5 1.6,0.9 3.1,1.8 4.7,2.8 0.1,-0.2 0.3,-0.4 0.4,-0.6 -1.5,-0.9 -3.1,-1.8 -4.7,-2.7 z m 1.8,-3.2 c -0.2,0.1 -0.4,0.3 -0.6,0.4 1,1.3 2,2.6 3,3.9 0.2,-0.1 0.4,-0.2 0.5,-0.3 -0.9,-1.3 -1.9,-2.7 -2.9,-4 z" /><path
           inkscape:connector-curvature="0"
           id="path72"
           d="m 1434.8,745.8 c 0.2,0.6 0.6,1.2 0.6,1.7 0,0.9 -0.3,1.8 -0.5,2.7 -1.6,-0.7 -1.7,-1.7 -0.1,-4.4 0,0 0,0 0,0 z" /><path
           inkscape:connector-curvature="0"
           id="path74"
           d="m 1466.1,808.8 c 2.6,-0.6 4.7,-3.1 8,-1.7 -0.4,-0.4 -0.7,-0.8 -1.2,-1.4 2.8,-1.7 5.4,-0.7 8,-0.1 -4.2,4 -9.4,3.9 -14.8,3.2 z" /><path
           inkscape:connector-curvature="0"
           id="path76"
           d="m 1469.2,803.3 c 0.2,-1 0.3,-1.7 0.5,-2.9 2,0.4 4,0.8 6,1.1 0.6,0.1 1.4,0.2 1.9,0 2,-1 3.9,-2.1 5.9,-3.3 -0.4,2.6 -1.4,4.4 -4.5,4.5 -3.2,0.1 -6.4,0.4 -9.8,0.6 z" /><path
           inkscape:connector-curvature="0"
           id="path78"
           d="m 1473.5,756.8 c -0.9,-2.5 -1.7,-4.6 -2.5,-7.1 0,0 0.4,-0.3 1.2,-0.9 1.6,2.6 3,5 4.7,7.7 -1.5,0.1 -2.5,0.2 -3.4,0.3 z" /><path
           inkscape:connector-curvature="0"
           id="path80"
           d="m 1480.4,766.2 c -0.4,0.9 -0.9,1.8 -1.1,2.7 -0.2,0.6 0,1.3 -0.1,1.9 -0.2,0.7 -0.3,1.5 -0.9,1.9 -0.4,0.3 -1.3,-0.1 -2.1,-0.1 1.4,-2.5 2.5,-4.5 3.6,-6.6 0.2,0 0.4,0.1 0.6,0.2 z" /><path
           inkscape:connector-curvature="0"
           id="path82"
           d="m 1445.3,769.8 c 1.9,1.7 1,3.9 1,5.9 -2.7,-1.6 -0.7,-3.9 -1,-5.9 z" /><path
           inkscape:connector-curvature="0"
           id="path84"
           d="m 1478.9,830.5 c 0.1,-3.2 1.9,-5.5 5.1,-7.1 -1.7,2.4 -3.4,4.7 -5.1,7.1 -0.1,-0.1 0,0 0,0 z" /><path
           inkscape:connector-curvature="0"
           id="path86"
           d="m 1469.1,811.9 c 1.8,-0.6 3.2,-1.1 4.3,-1.5 0.5,0.4 1,0.9 1.6,1.4 -1.5,1.6 -3.4,0.7 -5.9,0.1 z" /><path
           inkscape:connector-curvature="0"
           id="path88"
           d="m 1479.6,778.4 c -1.2,-1.1 -3.2,-1.6 -3,-3.8 1.3,0.9 2.5,1.7 3.9,2.6 -0.2,0.3 -0.6,0.8 -0.9,1.2 z" /><path
           inkscape:connector-curvature="0"
           id="path90"
           d="m 1448,799.1 c -0.9,-0.2 -1.7,-0.4 -2.6,-0.6 0.4,-0.5 0.8,-1.3 1.2,-1.3 0.6,0 1.2,0.6 1.8,1 -0.1,0.3 -0.2,0.6 -0.4,0.9 z" /><path
           inkscape:connector-curvature="0"
           id="path92"
           d="m 1446.9,811.1 c 1,-0.3 2,-0.5 3,-0.8 0.1,0.3 0.1,0.5 0.2,0.8 -1.1,-0.2 -1.9,2.3 -3.2,0 0.1,-0.1 0,0 0,0 z" /><path
           inkscape:connector-curvature="0"
           id="path94"
           d="m 1446.2,711.3 c 1.6,1.2 3.3,2.4 4.9,3.5 -0.1,0.1 -0.2,0.3 -0.3,0.4 -1.7,-1.1 -3.3,-2.3 -5,-3.4 0.1,-0.2 0.2,-0.4 0.4,-0.5 z" /><path
           inkscape:connector-curvature="0"
           id="path96"
           d="m 1479.5,778.5 c 1.1,-0.5 2.2,-1 3.4,-1.6 -0.7,1.1 -1.4,2.1 -2.3,3.4 -0.4,-0.7 -0.7,-1.3 -1.1,-1.8 0.1,-0.1 0,0 0,0 z" /></g></g><g
       transform="translate(-1.8885343)"
       id="g1298"><g
         id="g44"
         transform="translate(5.1365075,29.291713)"><circle
           style="fill:#ff7100"
           id="circle42"
           r="162"
           cy="759"
           cx="636"
           class="st5" /></g><g
         id="Layer_5"><g
           id="g107"><path
             inkscape:connector-curvature="0"
             d="m 640.8,761.3 c 22.5,0 43.7,2.5 59.6,7 14.7,4.1 23.4,9.8 23.4,15 0,5.2 -8.8,10.9 -23.4,15 -15.9,4.5 -37,7 -59.6,7 -22.6,0 -43.7,-2.5 -59.6,-7 -14.7,-4.1 -23.4,-9.8 -23.4,-15 0,-5.2 8.8,-10.9 23.4,-15 15.9,-4.5 37.1,-7 59.6,-7 m 0,-2 c -46.9,0 -85,10.7 -85,24 0,13.3 38.1,24 85,24 46.9,0 85,-10.7 85,-24 0,-13.3 -38,-24 -85,-24 z"
             id="path105" /></g><g
           id="g111"><path
             inkscape:connector-curvature="0"
             d="m 641.8,744.3 c 23.6,0 45.7,2.7 62.4,7.7 15.4,4.6 24.6,10.9 24.6,16.8 0,5.9 -9.2,12.2 -24.6,16.8 -16.6,5 -38.8,7.7 -62.4,7.7 -23.6,0 -45.7,-2.7 -62.4,-7.7 -15.4,-4.6 -24.6,-10.9 -24.6,-16.8 0,-5.9 9.2,-12.2 24.6,-16.8 16.7,-4.9 38.8,-7.7 62.4,-7.7 m 0,-2 c -49.2,0 -89,11.9 -89,26.5 0,14.6 39.8,26.5 89,26.5 49.2,0 89,-11.9 89,-26.5 0,-14.6 -39.8,-26.5 -89,-26.5 z"
             id="path109" /></g><g
           id="g115"><path
             inkscape:connector-curvature="0"
             d="m 641.8,731.3 c 23.6,0 45.7,2.6 62.4,7.4 15.4,4.4 24.6,10.4 24.6,16.1 0,5.7 -9.2,11.7 -24.6,16.1 -16.6,4.8 -38.8,7.4 -62.4,7.4 -23.6,0 -45.7,-2.6 -62.4,-7.4 -15.4,-4.4 -24.6,-10.4 -24.6,-16.1 0,-5.7 9.2,-11.7 24.6,-16.1 16.7,-4.7 38.8,-7.4 62.4,-7.4 m 0,-2 c -49.2,0 -89,11.4 -89,25.5 0,14.1 39.8,25.5 89,25.5 49.2,0 89,-11.4 89,-25.5 0,-14.1 -39.8,-25.5 -89,-25.5 z"
             id="path113" /></g><line
           style="fill:none;stroke:#000000;stroke-width:2;stroke-miterlimit:10"
           class="st0"
           x1="557.79999"
           y1="787.29999"
           x2="558"
           y2="776"
           id="line117" /><line
           style="fill:none;stroke:#000000;stroke-width:2;stroke-miterlimit:10"
           class="st0"
           x1="724"
           y1="777"
           x2="724"
           y2="786"
           id="line119" /><line
           style="fill:none;stroke:#000000;stroke-width:2;stroke-miterlimit:10"
           class="st0"
           x1="554"
           y1="756"
           x2="553.79999"
           y2="770.29999"
           id="line121" /><g
           id="g125"><ellipse
             cx="593.29999"
             cy="778.79999"
             rx="12.5"
             ry="5.5"
             id="ellipse123" /></g><ellipse
           cx="624.29999"
           cy="771.79999"
           rx="7.5"
           ry="2.5"
           id="ellipse127" /><ellipse
           cx="660.29999"
           cy="788.29999"
           rx="8.5"
           ry="4"
           id="ellipse129" /><ellipse
           cx="664.79999"
           cy="778.79999"
           rx="9"
           ry="3.5"
           id="ellipse131" /><ellipse
           cx="652.79999"
           cy="769.29999"
           rx="7"
           ry="3"
           id="ellipse133" /><ellipse
           cx="681.29999"
           cy="771.79999"
           rx="6.5"
           ry="5.5"
           id="ellipse135" /><circle
           cx="627.79999"
           cy="785.29999"
           r="4"
           id="circle137" /><g
           id="g141"><line
             style="fill:none;stroke:#000000;stroke-width:2;stroke-miterlimit:10"
             class="st0"
             x1="730"
             y1="756.29999"
             x2="730"
             y2="771.29999"
             id="line139" /></g><rect
           style="fill:none"
           x="551.79999"
           y="833.29999"
           class="st2"
           width="186"
           height="34"
           id="rect143" /><text
           style="font-size:24px;font-family:Futura-Medium"
           transform="translate(551.825,853.122)"
           class="st3 st6"
           id="text145">Biocontainment</text>
</g></g><g
       transform="translate(1.8885343,7.6114764)"
       id="g1208"><g
         id="g48"
         transform="translate(-5.6405612,-4.184226)"><circle
           style="fill:#ff7100"
           id="circle46"
           r="162"
           cy="396"
           cx="643"
           class="st5" /></g><rect
         style="fill:none"
         id="rect158"
         height="21.799999"
         width="183.8"
         class="st2"
         y="478.79999"
         x="546.20001" /><text
         style="font-size:24px;font-family:Futura-Medium"
         id="text160"
         class="st3 st6"
         x="539.44727"
         y="490.54251">Risk assessment</text>
<g
         id="g1120"
         transform="translate(18.722656,-10)"><path
           class="st0"
           d="M 683,469 H 560 c -6.6,0 -12,-5.4 -12,-12 V 304 c 0,-6.6 5.4,-12 12,-12 h 123 c 6.6,0 12,5.4 12,12 v 153 c 0,6.6 -5.4,12 -12,12 z"
           id="path148"
           inkscape:connector-curvature="0"
           style="fill:none;stroke:#000000;stroke-width:2;stroke-miterlimit:10" /><path
           class="st7"
           d="m 599,346 h -26 c -6.6,0 -12,-5.4 -12,-12 v -15 c 0,-6.6 5.4,-12 12,-12 h 26 c 6.6,0 12,5.4 12,12 v 15 c 0,6.6 -5.4,12 -12,12 z"
           id="path150"
           inkscape:connector-curvature="0"
           style="stroke:#000000;stroke-width:2;stroke-miterlimit:10" /><line
           class="st0"
           x1="622"
           y1="333"
           x2="684"
           y2="333"
           id="line152"
           style="fill:none;stroke:#000000;stroke-width:2;stroke-miterlimit:10" /><line
           class="st0"
           x1="622"
           y1="322"
           x2="684"
           y2="322"
           id="line154"
           style="fill:none;stroke:#000000;stroke-width:2;stroke-miterlimit:10" /><line
           class="st0"
           x1="622"
           y1="344"
           x2="684"
           y2="344"
           id="line156"
           style="fill:none;stroke:#000000;stroke-width:2;stroke-miterlimit:10" /><line
           class="st0"
           x1="562"
           y1="371"
           x2="682"
           y2="371"
           id="line162"
           style="fill:none;stroke:#000000;stroke-width:2;stroke-miterlimit:10" /><line
           class="st0"
           x1="562"
           y1="382"
           x2="682"
           y2="382"
           id="line164"
           style="fill:none;stroke:#000000;stroke-width:2;stroke-miterlimit:10" /><line
           class="st0"
           x1="562"
           y1="392"
           x2="682"
           y2="392"
           id="line166"
           style="fill:none;stroke:#000000;stroke-width:2;stroke-miterlimit:10" /><line
           class="st0"
           x1="561"
           y1="402"
           x2="681"
           y2="402"
           id="line168"
           style="fill:none;stroke:#000000;stroke-width:2;stroke-miterlimit:10" /><line
           class="st0"
           x1="562"
           y1="456"
           x2="682"
           y2="456"
           id="line170"
           style="fill:none;stroke:#000000;stroke-width:2;stroke-miterlimit:10" /><line
           class="st0"
           x1="562"
           y1="443"
           x2="682"
           y2="443"
           id="line172"
           style="fill:none;stroke:#000000;stroke-width:2;stroke-miterlimit:10" /><path
           class="st0"
           d="M 684,310"
           id="path174"
           inkscape:connector-curvature="0"
           style="fill:none;stroke:#000000;stroke-width:2;stroke-miterlimit:10" /><path
           class="st0"
           d="M 622,310"
           id="path176"
           inkscape:connector-curvature="0"
           style="fill:none;stroke:#000000;stroke-width:2;stroke-miterlimit:10" /><line
           class="st0"
           x1="622"
           y1="310"
           x2="684"
           y2="310"
           id="line178"
           style="fill:none;stroke:#000000;stroke-width:2;stroke-miterlimit:10" /><line
           class="st0"
           x1="562"
           y1="359"
           x2="682"
           y2="359"
           id="line180"
           style="fill:none;stroke:#000000;stroke-width:2;stroke-miterlimit:10" /><line
           class="st0"
           x1="562"
           y1="417"
           x2="682"
           y2="417"
           id="line182"
           style="fill:none;stroke:#000000;stroke-width:2;stroke-miterlimit:10" /><line
           class="st0"
           x1="562"
           y1="429"
           x2="682"
           y2="429"
           id="line184"
           style="fill:none;stroke:#000000;stroke-width:2;stroke-miterlimit:10" /></g></g><g
       transform="translate(-2.1114658)"
       id="g1272"><g
         id="g64"
         transform="translate(10.311317,45.695469)"><circle
           style="fill:#ff7100"
           id="circle62"
           r="162"
           cy="903"
           cx="1043"
           class="st5" /></g><rect
         style="fill:none"
         id="rect187"
         height="35.299999"
         width="197.3"
         class="st2"
         y="985.70001"
         x="993.70001" /><text
         style="font-size:24px;font-family:Futura-Medium"
         id="text189"
         class="st3 st6"
         x="997.99438"
         y="1021.6709">Protection</text>
<g
         id="g219"
         transform="translate(9.3699236,20.952984)"><path
           inkscape:connector-curvature="0"
           id="path195"
           d="m 1088.4,851.1 c 0.5,0.1 1,0.1 1.4,0.3 0.8,0.5 1.5,0.7 2.5,0.6 0.5,-0.1 1,0.5 1.6,0.8 0,0.1 0,0.2 0,0.3 2.8,-1.1 5.6,-2.1 8.3,-3.3 0.8,-0.3 1.5,-1 2.3,-1.4 1.4,-0.9 2.8,-1.5 4.6,-0.9 0.8,0.3 1.6,0.6 2.2,1 1.8,1 2.3,3.3 1.1,5 -0.7,1 -1.7,1.9 -2.7,2.5 -3.5,2.2 -7.5,2.9 -11.5,3.6 -3.3,0.6 -6.6,1.2 -10,1.8 -0.5,0.1 -1,0.3 -1.6,0.4 0,0.1 0,0.2 0,0.3 1.7,-0.1 3.5,-0.1 5.2,-0.3 7.4,-1 14.7,-2.1 22.1,-3.1 0.3,0 0.7,0.3 1.1,0.4 1.1,0.5 2.2,1.2 3.4,1.4 1.4,0.2 2,1.1 2.3,2.1 0.3,0.9 0.2,1.9 -0.8,2.6 -1.5,1.2 -3.3,1.2 -5,1.7 -1.1,0.3 -2.1,1 -3.1,1.4 -1.7,0.7 -3.3,1.4 -5.1,1.8 -3,0.7 -6,1 -9,1.6 -0.3,0 -0.5,0.2 -0.8,0.4 2.5,-0.3 5.1,-0.6 7.6,-0.8 3.4,-0.2 6.7,-0.3 10.1,-0.4 1.3,0 2.5,0.3 3.1,1.7 0.2,0.4 0.7,0.8 1.2,1.1 1.1,0.7 1.2,1.9 1,2.9 -0.1,0.5 -0.8,1.1 -1.3,1.2 -2,0.6 -3.9,0.2 -5.8,-0.4 -0.2,0 -0.3,-0.1 -0.5,-0.2 0,0 -0.1,0 -0.2,0.1 0.3,0.8 0.6,1.6 1.1,2.7 -1.1,0.1 -2,0.2 -2.9,0.3 -3.1,0.3 -6.2,0.4 -9.3,0.9 -3.4,0.5 -6.7,1 -10.1,0.8 -1.3,-0.1 -2.6,0.2 -3.9,0.2 -0.6,0 -1.2,-0.1 -1.7,-0.4 -0.2,-0.1 0.1,-0.9 0.2,-1.4 0,-0.1 0,-0.2 0.1,-0.3 -2.2,-0.5 -2.7,0.8 -2.6,3.9 -1.9,0.4 -3.8,0.8 -5.7,1 -2.4,0.4 -4.6,1.4 -6.7,2.5 -2.1,1.1 -4.2,2.2 -6.4,3.3 -0.4,0.2 -0.8,0.4 -1.2,0.6 0,0.1 0.1,0.2 0.1,0.3 0.9,-0.3 1.9,-0.6 2.8,-0.9 0.8,-0.2 1.8,-0.7 2.2,0.3 0.4,0.9 0.3,2 -0.8,2.6 -2.7,1.4 -5.5,2.8 -8.3,4.2 -1.1,0.5 -2.2,1 -3.2,1.7 -0.5,0.3 -0.9,0.8 -0.1,1.4 0.3,0.2 0.2,1.2 -0.1,1.6 -1.2,2.1 -2.6,4.1 -3.9,6.1 -0.2,0.2 -0.2,0.5 -0.5,1 0.5,-0.2 0.7,-0.3 0.9,-0.5 2.3,-2 5.2,-2.8 8.1,-3.9 2.5,-0.9 4.7,-2.5 7,-3.8 0.2,-0.1 0.2,-0.4 0.4,-0.9 -1.3,0.3 -2.4,0.4 -3.5,0.8 -1.5,0.6 -2.8,0.4 -4,-0.6 -0.3,-0.2 -0.7,-0.6 -0.7,-0.9 0.1,-0.3 0.5,-0.6 0.9,-0.7 1.7,-0.5 3.3,-0.9 5,-1.3 1.4,-0.4 2.7,-0.9 4.1,-1.2 0.4,-0.1 1.1,0.1 1.3,0.3 1.3,1.8 2.4,3.7 3.8,5.5 1.3,1.6 2.7,3 4.2,4.3 0.7,0.6 1.5,1 2.3,1.5 0.3,0.1 0.7,0 1,0 -0.1,-0.3 -0.1,-0.7 -0.3,-1 -1.3,-1.8 -2.7,-3.6 -4,-5.4 -0.2,-0.2 -0.2,-0.6 -0.3,-0.9 0,-0.2 0.1,-0.5 0.1,-0.7 -0.2,-0.6 -0.4,-1.1 -0.6,-1.6 0,-0.1 -0.5,0 -0.5,0.1 -0.1,0.5 -0.2,1 -0.2,1.6 0,0.3 0,0.5 0,0.8 -0.1,0 -0.2,0.1 -0.3,0.1 -0.2,-0.4 -0.6,-0.8 -0.5,-1.1 0.3,-0.8 -0.3,-1.2 -0.5,-1.7 -0.4,-1 -0.6,-2.1 -0.5,-3.1 0,-0.8 -0.1,-1.4 -0.7,-1.9 -2.1,-1.8 -1.7,-3.5 1,-4.6 4.2,-1.8 8.8,-2.2 13.2,-3.1 3.7,-0.7 7.5,-0.8 11,-2.3 0.6,-0.2 1.4,-0.3 2,-0.1 0.9,0.3 1.5,-0.2 2.2,-0.5 0.4,-0.2 0.9,0 1.1,-0.2 0.3,-0.4 0.5,-1 0.9,-1.1 1,-0.3 2.2,-0.3 3.2,-0.4 1.1,-0.1 1.3,1.1 2.2,1.3 -0.2,0.3 -0.3,0.5 -0.4,0.7 0.1,0 0.2,0.1 0.2,0.1 0.9,-0.7 1.4,0 2,0.4 0.7,0.4 1.4,0.8 2,1.2 0.2,0.1 0.6,0.3 0.5,0.4 -0.2,1.2 1.8,1.4 1.2,3 -0.8,2.1 -2.3,3.1 -4.3,3.5 -4.7,0.9 -9.5,1.6 -14.2,2.3 -2.4,0.4 -4.8,0.7 -7.3,1 -1.9,0.2 -3.4,1.2 -4.8,2.2 -0.8,0.6 -1.4,0.7 -2.3,0.6 -1,-0.2 -2.1,-0.3 -3.2,-0.4 0.3,1.5 1.1,2.2 2.2,1.9 3.4,-1 6.8,-0.7 10.2,-0.6 2.7,0.1 5.4,0.2 8.1,0.2 1.6,0 2.8,0.3 3.4,2 0.5,1.7 2.3,2.3 3.9,2.8 0.3,0.1 0.7,-0.1 1.1,-0.2 -0.1,-0.3 -0.1,-0.7 -0.3,-1 -0.1,-0.3 -0.5,-0.6 -0.5,-1 -0.3,-1.3 -0.9,-2 -2.4,-1.7 -0.3,0 -0.5,-0.2 -0.9,-0.3 1.2,-1.2 3.2,-1.4 4.4,-0.5 0.6,0.4 1.2,0.9 1.7,1.5 1.1,1.3 2.7,1.2 4.1,1.5 0.3,0.1 0.9,-0.4 1.2,-0.8 0.8,-0.9 1.7,-0.9 2.7,-0.3 0.6,0.4 1.2,0.9 1.8,1.4 0.4,0.3 0.8,0.7 1.3,0.9 0.3,0.1 0.8,0 1.2,-0.1 -0.1,-0.3 -0.2,-0.6 -0.4,-0.9 -0.3,-0.6 -0.5,-1.2 -0.8,-1.8 -0.3,-0.6 -0.6,-1.3 -1,-1.9 -0.2,-0.4 -0.6,-0.7 -1,-1.2 1.7,-0.6 3,0 4.1,0.8 1.1,0.8 2,0.7 3.2,0.4 1,-0.3 2.1,-0.2 3.1,-0.3 1.8,-0.2 3.6,-0.1 5.3,-0.5 1.3,-0.3 2.4,-0.1 3.2,0.6 1,0.9 1.6,2.1 1.2,3.6 -0.5,1.6 -1.5,2.9 -2.8,3.9 -3.3,2.5 -7,4.1 -11.2,4.7 -2.7,0.3 -5.3,1.4 -7.9,2.1 0,0.1 0.1,0.3 0.1,0.4 1.1,-0.3 2.3,-0.6 3.4,-0.8 0.4,-0.1 0.9,-0.2 1.4,-0.2 1.7,-0.3 3.4,-0.7 5.1,-0.8 1.2,-0.1 2.5,0.2 3.7,0.3 0.7,0.1 1.5,0.1 2.2,0.2 2,0.2 4,0.5 6,0.7 0.7,0.1 1.6,0 2.2,-0.3 1,-0.4 1.7,-0.2 2.4,0.4 0.7,0.6 1.2,1.4 0.9,2.5 -0.6,1.9 -1.2,3.7 -3.1,4.8 -1.1,0.6 -2.1,1.3 -3.2,2 -0.4,0.2 -0.7,0.5 -1.1,0.8 1.3,0.6 2.5,1.1 3.5,1.8 2.4,1.5 2.7,2.9 1.4,5.4 -1.1,2.3 -2.9,3.6 -5.4,4.3 -2.3,0.7 -4.3,1.9 -6.6,2.9 0.3,0.2 0.5,0.4 0.8,0.5 1.2,0.5 1.7,1.5 1.6,2.7 -0.2,1.3 -0.5,2.6 -2,3.2 -1.5,0.7 -3,0.7 -4.6,1 -1.4,0.2 -2.9,0.8 -4.1,1.5 -1.3,0.7 -2.4,0.8 -3.5,0 -1.4,-1 -2.7,-0.9 -3.9,0.1 -1.1,0.9 -2.4,1.1 -3.8,1.2 -2.1,0.2 -4.2,0.7 -6.3,0.7 -1.4,0 -2.9,-0.5 -4.3,-0.8 -2.5,-0.5 -5,-1.1 -7.6,-1.6 -0.5,-0.1 -1.1,0.2 -1.7,0.2 -0.4,0 -1.1,0 -1.3,-0.2 -1.2,-2.1 -3.4,-2.2 -5.5,-2.6 -3.2,-0.5 -6.4,-0.1 -9.6,0.4 -1.7,0.3 -3.5,0.6 -5.2,0.5 -1,-0.1 -1.9,-1 -2.8,-1.6 -0.1,-0.1 0.2,-0.8 0.5,-1.1 0.6,-0.7 1.5,-1.2 2.1,-1.9 0.8,-1 0.2,-2 -1,-2 -0.8,0 -1.7,0.4 -2.5,0.6 -0.6,0.1 -1.2,0.3 -1.7,0.3 -0.6,0 -1.1,-0.3 -1.7,-0.5 -2.7,-1.1 -5.2,-0.8 -7.6,0.7 -1.7,1.1 -3.5,2.1 -5.2,3.2 -0.5,0.3 -0.9,0.6 -1.3,0.9 -1.7,1.4 -4,1.7 -5.9,0.6 -0.5,-0.3 -0.8,-1.1 -1,-1.7 -0.2,-0.9 0.1,-1.9 -0.1,-2.8 -0.2,-1.1 -1,-1.5 -2.2,-1 -0.1,0 -0.2,0.1 -0.3,0.1 -2.2,-0.9 -4,0.3 -6,0.9 -2.8,0.9 -5.4,1.9 -8.2,2.9 -1,0.4 -2,0.8 -3,1.1 -0.2,0.1 -0.4,0.1 -0.6,0.1 -4.4,-0.5 -8.4,0.7 -12.3,2.4 -1.5,0.6 -3.1,1 -4.7,1.5 -0.3,0.1 -0.6,0.4 -1,0.5 -0.4,0.1 -0.9,0.1 -1.3,0.3 -0.4,0.1 -0.7,0.3 -1,0.4 0,0.1 0.1,0.3 0.1,0.4 -0.3,-0.2 -0.6,-0.4 -1,-0.8 0.1,0.4 0.2,0.6 0.3,0.9 -2.1,0.3 -4.2,0.6 -6.5,1 0.2,-0.4 0.3,-0.6 0.4,-0.9 -0.1,0 -0.2,-0.1 -0.3,-0.1 -0.9,0.1 -1.8,0.2 -2.8,0.4 -5.2,1.1 -10.5,2.2 -15.7,3.3 -0.6,0.1 -1.3,0.1 -1.9,-0.1 -1.8,-0.6 -3.2,0.7 -4.9,0.5 0.5,-0.1 1,-0.2 1.4,-0.3 0,-0.1 0,-0.3 0,-0.4 -1.2,-0.1 -2.5,-0.2 -3.9,-0.4 0.2,0.4 0.3,0.5 0.4,0.7 -4.4,1.2 -8.8,0.4 -13.3,0.6 0,-2.3 0,-4.6 0,-6.8 2.4,-0.5 4.6,0.6 6.8,1 2.4,0.5 4.8,1.1 7.3,1.6 0.3,0.1 0.7,0 1.1,-0.1 -0.7,-1.2 -0.7,-1.3 -1.8,-1.1 -1.8,0.3 -3.2,-0.9 -4.9,-1 0.1,-0.4 0.1,-0.6 0.1,-0.5 -2.9,-0.6 -5.7,-1.1 -8.6,-1.7 0,-6.5 0,-13 0,-19.6 1.2,0.4 2.3,0.9 3.7,1.4 -1.1,-1.4 -2.2,-2.5 -3.7,-3.1 0,-1.6 0,-3.3 0,-4.9 0.9,0 1.7,0.2 2.2,1.1 0.1,0.3 1.1,0.2 1.6,0.2 1.2,0.9 2.3,1.8 3.5,2.7 0.2,-0.1 0.3,-0.3 0.5,-0.4 -1,-1.2 -2,-2.4 -2.9,-3.7 -0.5,-0.8 -2.1,-1.2 -1.1,-2.6 0,0 -0.3,-0.3 -0.5,-0.5 0.4,-0.1 0.7,-0.1 1.1,-0.1 -0.7,-0.2 -1.2,-0.4 -1.7,-0.6 0,-0.1 0.1,-0.2 0.1,-0.4 1.4,0.5 2.8,1.1 4.5,1.7 -0.8,0 -1.2,0 -1.7,0 0,0.1 0,0.1 0,0.2 0.7,0.1 1.5,0.2 2.3,0.3 0.4,-1.9 -1.6,-2.5 -2.1,-4 0.7,0 1.3,-0.1 2,-0.1 -1.1,-0.4 -2.6,0.4 -3.3,-1.1 1,0 2,0 3.3,0 -0.4,0.1 -0.7,0.2 -0.9,0.3 1.5,0.3 1.6,0.2 2,-1.1 0.4,-1.8 0.9,-3.6 1.2,-5.4 0.2,-1 0.6,-1.5 1.7,-1.4 3.6,0.1 7.2,0 10.8,0 0.5,0 0.9,0 1.4,0 0,-0.1 0,-0.2 0,-0.3 -2.3,0 -4.6,0 -6.7,0 -0.1,-1.3 -0.2,-2.4 -0.3,-3.5 0,-0.1 0,-0.2 0,-0.2 1.5,-2 0.9,-4.3 0.9,-6.6 0,-0.6 0.2,-1.3 0.6,-1.7 2.9,-3.3 5.8,-6.6 8.8,-9.8 0.8,-0.8 1.5,-2.1 3.1,-1.6 0.4,0.1 1,0.3 1.1,0.6 0.6,1.2 2,2 1.5,3.7 0,0.1 0.3,0.5 0.5,0.5 0.9,0.1 1.8,0 2.6,0 0,0 -0.1,-0.2 -0.3,-0.5 0.5,0.1 0.9,0.2 1.3,0.3 0,0 0.1,-0.1 0.1,-0.1 -0.3,-0.2 -0.7,-0.5 -1.3,-0.9 0.9,0.2 1.5,0.4 2.1,0.5 0,-0.1 0.1,-0.1 0.1,-0.2 -0.4,-0.2 -0.8,-0.4 -1.1,-0.7 0,0 0,-0.1 0,-0.1 0.4,0.1 0.9,0.2 1.5,0.3 -0.2,-0.3 -0.4,-0.5 -0.6,-0.8 0.7,0.1 1.2,0.2 1.7,0.2 0,0 0,-0.1 0.1,-0.1 -0.9,-0.4 -1.9,-0.7 -2.8,-1.1 0,-0.1 0,-0.1 0.1,-0.2 0.6,0.1 1.1,0.2 1.7,0.3 0,-0.1 0.1,-0.2 0.1,-0.2 -0.7,-0.3 -1.4,-0.5 -2.1,-0.8 0,-0.1 0,-0.1 0,-0.2 0.6,0.1 1.3,0.2 1.9,0.3 0,-0.1 0,-0.1 0,-0.2 -0.6,-0.2 -1.1,-0.5 -1.7,-0.7 0,-0.1 0,-0.1 0,-0.2 0.6,0.1 1.1,0.2 1.7,0.3 0,-0.1 0.1,-0.1 0.1,-0.2 -0.6,-0.3 -1.3,-0.5 -1.9,-0.8 0,-0.1 0,-0.1 0.1,-0.2 0.5,0.1 1,0.1 1.5,0.2 0,-0.1 0,-0.1 0.1,-0.2 -0.5,-0.2 -0.9,-0.4 -1.4,-0.7 0,-0.1 0,-0.1 0.1,-0.2 0.9,0.2 1.8,0.4 2.7,0.6 0,-0.1 0,-0.1 0,-0.2 -1,-0.4 -2,-0.8 -3,-1.2 v 0 c 1.3,0.3 2.7,0.6 4,1 0.8,0.2 1.6,0.6 2.3,-0.2 0.1,-0.2 0.4,-0.3 0.7,-0.3 1.8,-0.1 3.6,0 5.4,-0.2 2.1,-0.2 4.2,-0.6 6.2,-0.9 2.1,-0.4 4.2,-0.7 6.2,-1.2 1.7,-0.4 3.5,-0.9 5.2,-1.4 1.4,-0.4 2.9,-0.9 4.3,-1.5 1.7,-0.7 3.4,-1.5 5.1,-2.1 1.1,-0.4 2.2,-0.6 3.2,-1 0.6,-0.2 1.2,-0.6 1.7,-1 0.2,-0.1 0.3,-0.5 0.3,-0.6 -0.2,-0.2 -0.5,-0.4 -0.7,-0.3 -1,0.3 -2,0.7 -3,1 -0.4,0.1 -0.8,0.1 -1.3,0.2 0,-0.1 -0.1,-0.3 -0.1,-0.4 0.3,-0.1 0.6,-0.1 0.8,-0.2 0.3,-0.2 0.6,-0.6 0.6,-0.7 -0.5,-0.9 0.1,-1 0.7,-1.3 0.5,-0.2 1.1,-0.5 1.5,-0.9 2.2,-1.9 4.4,-3.8 6.5,-5.8 2.4,-2.3 4.7,-4.8 7.1,-7.2 1.7,-1.7 2.9,-1.9 5,-0.6 0.3,0.2 0.7,0.2 1.1,0.1 5,-1.3 9.6,-3.5 13.7,-6.7 2.1,-1.6 4.5,-2.9 6.9,-4.1 1.6,-0.9 3.4,-1.4 5.2,-2 0.8,-0.3 3.4,0.9 3.6,1.5 0.1,0.3 0.1,0.8 -0.1,1.1 -1,1.6 -2.1,3.2 -3.3,4.8 -0.3,0.4 -0.8,0.7 -1.3,0.9 -4,1.2 -7.3,3.5 -10.8,5.6 -1.1,0.7 -2.2,1.4 -3.2,2.2 -0.9,0.7 -1.6,1.6 -2.3,2.3 2.4,0.2 4.7,0.7 6.9,0.5 2,-0.1 3,1.4 4.6,1.9 1.8,0.6 3.4,1.4 4.9,2.4 0.2,0.1 0.5,0 0.8,-0.1 0,-0.2 0,-0.5 -0.1,-0.5 -2.1,-1.3 -3.4,-3.6 -5.9,-4.5 -1.6,-0.6 -3.1,-1.3 -4.6,-1.9 1.4,-0.6 2.6,-1.1 3.9,-1.6 0.3,-0.1 0.7,-0.1 1.1,-0.1 0,-0.1 -0.1,-0.6 0,-0.6 1.1,-0.3 2.2,-0.8 3.3,-0.8 1,0 1.9,-0.1 2.9,-0.5 2.1,-0.9 4.7,-1.1 6.1,0.3 0,0 0,0 0,0 -0.2,0.3 -0.3,0.6 -0.5,0.9 -0.1,0 -0.4,0 -0.7,0 0,0.2 0,0.3 0.1,0.5 0.5,-0.1 0.9,-0.1 1.4,-0.2 0.4,-0.1 0.8,-0.2 1.2,-0.2 -0.1,-0.7 0.7,-0.7 1.4,-0.8 z M 988.1,902 c 0,0.1 0,0.3 0,0.4 0.3,0 0.7,0 1,0 4.4,-0.2 8.9,-0.4 13.3,-0.4 5.1,0 10.2,0.3 15.3,0.5 4.5,0.2 8.9,0.5 13.4,0.7 2.3,0.1 4.6,0.4 6.8,0.3 3.1,-0.1 6.1,-0.5 9.2,-0.5 1.7,0 3.1,-0.7 4.4,-1.5 0.6,-0.4 1.2,-0.8 0.8,-1.8 -0.1,-0.2 0.2,-0.6 0.4,-0.7 1.4,-1 2.8,-1.9 4.3,-2.9 1.5,-1 2.9,-2 4.4,-3 -0.1,-0.1 -0.1,-0.3 -0.2,-0.4 -2.6,2.3 -5.6,2.2 -8.6,1.6 0.1,-0.2 0.4,-0.4 0.6,-0.7 0,0 -0.1,-0.1 -0.1,-0.1 -0.7,0.3 -1.3,0.7 -2,1 0,-0.2 0,-0.3 0,-0.5 -1.1,-0.2 -2.3,0.2 -3.4,-0.1 0,-0.2 0.1,-0.4 0.1,-0.3 -0.9,-0.1 -1.7,-0.2 -2.4,-0.3 -0.8,-0.1 -1.6,-0.1 -2.2,-0.2 0.2,-0.2 0.5,-0.5 0.7,-0.8 0,0 -0.1,-0.1 -0.1,-0.1 -0.5,0.2 -0.9,0.5 -1.3,0.6 -0.1,-0.3 -0.1,-0.6 -0.3,-0.7 -0.6,-0.4 -1.3,-0.7 -1.9,-1 -3.1,-1.3 -5.7,-1.4 -7.5,1.9 -0.6,1 -1.1,2 -1.5,3.1 -0.6,1.5 -1.1,3.1 -1.5,4.7 -0.3,1.2 -1.1,1.6 -2.3,1.5 -4.9,-0.2 -9.7,-0.5 -14.6,-0.5 -8.2,0 -16.5,0.1 -24.8,0.2 z m 110.2,38.7 c 0,0 0,0.1 0,0.1 3.2,-0.6 6.5,-1.3 9.7,-1.8 3.2,-0.5 6.4,-0.8 9.6,-1.2 -0.9,-0.4 -1.7,-0.6 -2.6,-0.7 -2.7,-0.2 -5.3,-0.4 -7.9,0.8 -1.5,0.8 -3.3,1.1 -4.9,1.6 -1.2,0.5 -2.5,0.8 -3.9,1.2 z M 969.2,950 c 0,-0.1 0.1,-0.2 0.1,-0.4 -4.5,-1.3 -9.1,-2.5 -13.8,-2.8 0,0.1 -0.1,0.3 -0.1,0.4 4.6,1 9.2,1.9 13.8,2.8 z m 127.3,-13.2 c -1.1,0.1 -2,0.2 -2.8,0.4 -0.3,0.1 -0.6,0.5 -0.8,0.8 -0.4,0.7 -0.8,1.4 -1.3,2.2 -0.3,0.6 -0.7,1.1 -1,1.6 0.1,0 0.1,0.1 0.2,0.1 1.9,-1.7 3.7,-3.3 5.7,-5.1 z m 34.4,-5.6 c -1.3,0.6 -1.7,1.7 -1.7,3 0,0.9 -0.4,1.4 -1.3,1.6 -0.3,0 -0.5,0.2 -0.8,0.3 0.6,1.4 0.9,1.4 2.6,0.9 0.7,-1.9 -0.5,-4.1 1.2,-5.8 z m -167.7,13.9 c 0,0.2 0,0.3 0,0.5 1,-0.1 1.9,-0.1 2.9,-0.2 0,-0.1 0,-0.2 0,-0.3 -1,0 -1.9,0 -2.9,0 z m -7.2,4 c 0,0.1 0,0.2 0,0.3 1.6,0.2 3.3,0.3 4.9,0.5 0,-0.1 0,-0.2 0,-0.3 -1.6,-0.2 -3.3,-0.3 -4.9,-0.5 z m 136.9,-76.3 c 0,-0.1 0,-0.2 -0.1,-0.3 -1.5,0.2 -3,0.5 -4.5,0.7 0,0.1 0,0.2 0.1,0.3 1.5,-0.2 3,-0.4 4.5,-0.7 z" /><path
           inkscape:connector-curvature="0"
           id="path197"
           d="m 1039.8,942.2 c -8,1.6 -16.2,3.2 -24.3,4.8 0,0 0,-0.1 0,-0.1 3.1,-0.9 6.3,-1.8 9.4,-2.6 0.9,-0.3 1.8,-0.4 2.6,-0.8 1.6,-0.8 3.3,-1.2 5.1,-1.1 0.3,0 0.8,-0.1 1,-0.3 2.2,-1.6 4.3,-1.1 6.2,0.1 z" /><path
           inkscape:connector-curvature="0"
           id="path199"
           d="m 1054.7,847.6 c -0.2,-0.1 -0.6,-0.2 -0.6,-0.4 -0.1,-0.3 0,-0.7 0.2,-0.8 1,-0.7 1.9,-1.4 3,-2 1.3,-0.7 2.7,-1.3 4.1,-1.8 0.7,-0.3 1.5,-0.3 2.3,-0.4 0.3,0 0.8,0.2 0.8,0.4 0,0.3 -0.1,0.8 -0.3,0.9 -1.9,1 -3.8,2.1 -5.7,3 -1.2,0.6 -2.5,0.8 -3.8,1.1 z" /><path
           inkscape:connector-curvature="0"
           id="path201"
           d="m 1088.4,851.1 c -0.7,0.1 -1.5,0.2 -2.2,0.2 -0.5,-0.3 -0.9,-0.7 -1.4,-1 0,0 0,0 0,0 3,-1.2 5.8,-3 9.2,-2.5 -0.7,2.4 -1.6,2.9 -4.1,2.9 -0.5,0 -1,0.3 -1.5,0.4 z" /><path
           inkscape:connector-curvature="0"
           id="path203"
           d="m 1107.8,846.4 c -1.4,0.4 -2.7,0.7 -4.1,1.2 -2.5,0.8 -4.9,1.6 -7.3,2.5 -0.6,0.2 -0.9,1.3 -1.9,0.6 0.7,-1.3 1.6,-2.2 3.2,-2.7 2.1,-0.8 4.1,-1.4 6.3,-1.6 1.3,-0.1 2.6,0 3.9,0 -0.1,-0.1 -0.1,0 -0.1,0 z" /><path
           inkscape:connector-curvature="0"
           id="path205"
           d="m 1039.7,940.4 c -1.6,-0.6 -3.2,-1.1 -4.8,-1.7 0,-0.2 0.1,-0.5 0.1,-0.7 1.3,0 2.7,-0.2 4,0 0.5,0.1 0.8,1.2 1.2,1.9 -0.2,0.2 -0.3,0.4 -0.5,0.5 z" /><path
           inkscape:connector-curvature="0"
           id="path207"
           d="m 1018.9,943.8 c -1.5,0.6 -3.1,1.2 -4.6,1.7 -0.2,0.1 -0.6,-0.2 -0.8,-0.3 0.1,-0.3 0.2,-0.7 0.4,-0.8 1.5,-0.9 3.2,-1.1 5,-0.6 z" /><path
           inkscape:connector-curvature="0"
           id="path209"
           d="m 989.7,876.1 c -0.8,-0.1 -1.6,-0.2 -2.3,-0.3 -0.5,-0.1 -1,-0.1 -1.6,-0.1 0,-0.1 0,-0.3 0,-0.4 1.6,-0.3 3.3,-0.6 4.9,-0.9 0.1,0.5 0.2,0.9 0.3,1.2 -0.4,0.1 -0.8,0.3 -1.3,0.5 0,0 0,0 0,0 z" /><path
           inkscape:connector-curvature="0"
           id="path211"
           d="m 954.8,953.5 c 2.5,-1.2 5.2,0 7.7,-0.2 -2.6,0.2 -5.1,0.5 -7.7,0.7 0.1,-0.1 0.1,-0.3 0,-0.5 z" /><path
           inkscape:connector-curvature="0"
           id="path213"
           d="m 963.1,952.7 c 1.1,0 2.2,0 2.9,0 -0.7,-0.3 -1.8,1.7 -2.9,0 z" /><path
           inkscape:connector-curvature="0"
           id="path215"
           d="m 999.8,948.8 c 1.3,-0.2 2.7,-0.4 4,-0.6 0,0.1 0,0.2 0,0.3 -1.4,0.1 -2.7,0.3 -4.1,0.4 0.1,0 0.1,0 0.1,-0.1 z" /><path
           inkscape:connector-curvature="0"
           id="path217"
           d="m 1035.8,897.1 c -1.1,0 -2.2,0 -3.3,0 0,-0.1 0,-0.1 -0.1,-0.2 1.1,-0.1 2.2,-0.3 3.2,-0.4 0.2,0.2 0.2,0.4 0.2,0.6 z" /></g></g><g
       transform="translate(-6)"
       id="g1253"><g
         id="g52"
         transform="translate(-0.91161467,-25.383096)"><circle
           style="fill:#ff7100"
           id="circle50"
           r="162"
           cy="183"
           cx="1058.1115"
           class="st5" /></g><rect
         style="fill:none"
         id="rect191"
         height="39"
         width="216"
         class="st2"
         y="262.79999"
         x="1015.8" /><text
         style="font-size:24px;font-family:Futura-Medium"
         id="text193"
         class="st3 st6"
         x="1015.8184"
         y="282.58151">First Aid</text>
<g
         id="Layer_9"
         transform="translate(-5)"><rect
           x="961"
           y="114"
           class="st7"
           width="210"
           height="56"
           id="rect226"
           style="stroke:#000000;stroke-width:2;stroke-miterlimit:10" /><rect
           x="1031"
           y="50"
           class="st7"
           width="68"
           height="186"
           id="rect228"
           style="stroke:#000000;stroke-width:2;stroke-miterlimit:10" /></g></g><g
       transform="translate(-7.09344,-17.611476)"
       id="g1218"><circle
         class="st5"
         cx="1459.2753"
         cy="407.03873"
         r="162"
         id="circle54"
         style="fill:#ff7100" /><rect
         style="fill:none"
         id="rect221"
         height="34"
         width="201"
         class="st2"
         y="506"
         x="1377" /><text
         style="font-size:24px;font-family:Futura-Medium"
         id="text223"
         class="st3 st6"
         x="1393.2109"
         y="489.6297">Awareness</text>
<g
         id="g1137"
         transform="translate(18.236328,-25.4)"><path
           style="stroke-width:0.90592158"
           d="m 1491,356.10992 c 0,-23.55392 -23.3,-42.67609 -52,-42.67609 -28.7,0 -52,19.12217 -52,42.67609 0,15.42904 10,28.97049 25,36.4388 v 36.60295 c 0,5.41658 5.4,9.84833 12,9.84833 h 32 c 6.6,0 12,-4.43175 12,-9.84833 v -37.58778 c 13.9,-7.71452 23,-20.68148 23,-35.45397 z"
           id="path231"
           inkscape:connector-curvature="0" /><path
           style="stroke-width:0.7442084"
           d="m 1459.5,447 h -41 c -3.6,0 -6.5,-1.60615 -6.5,-3.6 v 0 c 0,-1.99384 2.9,-3.6 6.5,-3.6 h 41 c 3.6,0 6.5,1.60616 6.5,3.6 v 0 c 0,1.99385 -2.9,3.6 -6.5,3.6 z"
           id="path233"
           inkscape:connector-curvature="0" /><path
           style="stroke-width:0.7442084"
           d="m 1459.5,456 h -41 c -3.6,0 -6.5,-1.60615 -6.5,-3.6 v 0 c 0,-1.99385 2.9,-3.6 6.5,-3.6 h 41 c 3.6,0 6.5,1.60615 6.5,3.6 v 0 c 0,1.99385 -2.9,3.6 -6.5,3.6 z"
           id="path235"
           inkscape:connector-curvature="0" /><path
           d="m 1461.535,466.7 c -13.6,12.4 -33.9,12.1 -45.5,-0.7 -11.6,-12.7 59,-11.7 45.5,0.7 z"
           id="path237"
           inkscape:connector-curvature="0" /></g></g><path
       inkscape:connector-curvature="0"
       id="path5029"
       d="M 874,790 Z"
       style="fill:none;stroke:#000000;stroke-width:1px;stroke-linecap:butt;stroke-linejoin:miter;stroke-opacity:1" /></g></svg>