<?xml version="1.0" encoding="utf-8"?>
<!-- Generator: Adobe Illustrator 16.0.0, SVG Export Plug-In . SVG Version: 6.00 Build 0)  -->
<!DOCTYPE svg PUBLIC "-//W3C//DTD SVG 1.1//EN" "http://www.w3.org/Graphics/SVG/1.1/DTD/svg11.dtd">
<svg version="1.1" id="Layer_1" xmlns="http://www.w3.org/2000/svg" xmlns:xlink="http://www.w3.org/1999/xlink" x="0px" y="0px"
	 width="537.356px" height="496.836px" viewBox="0 0 537.356 496.836" enable-background="new 0 0 537.356 496.836"
	 xml:space="preserve">
<circle fill="#EE203D" cx="278.96" cy="303.026" r="104.316"/>
<circle fill="#F47C41" cx="124.973" cy="160.361" r="78.429"/>
<circle fill="#FACE54" cx="436.308" cy="176.935" r="63.958"/>
<circle fill="#F47D42" cx="457.377" cy="418.701" r="44.325"/>
<g>
	<path fill="#FFFFFF" d="M134.98,308.762c10.553,11.041,22.87,21.086,29.336,19.074c1.013-0.318-0.75-4.904-2.256-6.057
		c-9.669-7.399-17.836-11.893-28.611-23.495c-5.343-5.753-10.848-12.784-16.337-20.306c-4.666-6.392-9.324-14.512-13.885-19.37
		c-2.736-2.915-3.438,0.322-1.065,5.494C110.562,282.408,125.894,299.255,134.98,308.762z"/>
</g>
<g>
	<g>
		<path fill="#FFFFFF" d="M501.146,279.637c-0.762-21.839-2.877-43.442-7.135-44.802c-0.668-0.212-1.727,7.19-1.435,9.73
			c1.871,16.291,4.211,27.64,4.844,50.394c0.314,11.284,0.162,24.413-0.21,38.208c-0.316,11.729-1.384,25.813-1.093,35.371
			c0.177,5.732,1.941,1.748,2.933-6.846C502.557,331.271,501.802,298.435,501.146,279.637z"/>
	</g>
</g>
<g>
	<path fill="#FFFFFF" d="M427.724,326.776c-7.356-7.295-17.813-14.56-28.09-15.183c-1.613-0.096-2.187,2.322-0.858,3.18
		c8.528,5.49,16.887,9.355,24.182,16.948c3.618,3.765,6.621,8.128,9.278,12.699c2.261,3.886,3.373,8.528,6.498,11.716
		c1.874,1.914,4.973,0.66,5.085-2.161C444.222,344.001,434.061,333.052,427.724,326.776z"/>
</g>
<g>
	<path fill="#FFFFFF" d="M258.419,82.083c-31.102-2.334-62.307-2.736-65.622,3.014c-0.518,0.902,9.596,3.537,13.276,3.524
		c23.627-0.083,40.425-1.591,72.772,1.063c16.045,1.318,34.542,3.574,53.907,6.243c16.465,2.271,36.012,5.957,49.606,7.035
		c8.156,0.649,3.104-2.443-8.712-5.17C331.818,88.144,285.19,84.092,258.419,82.083z"/>
</g>
<g>
	<path fill-rule="evenodd" clip-rule="evenodd" fill="#FFFFFF" d="M202.254,305.036c0-1.34,0-2.681,0-4.02
		c0.176-1.772,0.342-3.547,0.529-5.318c2.171-20.604,11.111-37.674,26.772-51.226c0.344-0.298,0.419-0.568,0.344-0.999
		c-0.395-2.259,0.368-4.116,2.181-5.458c1.847-1.367,3.879-1.449,5.924-0.416c0.419,0.213,0.704,0.228,1.107-0.022
		c4.09-2.525,8.396-4.614,12.896-6.304c0.377-0.142,0.586-0.35,0.74-0.724c1.149-2.786,4.301-4.38,6.965-3.084
		c1.778,0.865,3.293,0.604,4.98,0.245c1.159-0.248,2.333-0.452,3.511-0.582c2.697-0.3,5.399-0.543,8.099-0.809
		c1.816,0,3.632,0,5.447,0c0.207,0.042,0.412,0.116,0.62,0.123c4.481,0.146,8.901,0.763,13.272,1.738
		c0.593,0.133,1.037,0.071,1.562-0.264c2.864-1.831,6.707-0.604,8.038,2.539c0.159,0.374,0.332,0.647,0.751,0.804
		c4.527,1.682,8.849,3.789,12.96,6.323c0.38,0.233,0.651,0.227,1.051,0.024c2.068-1.048,4.115-0.96,5.98,0.433
		c1.817,1.356,2.524,3.237,2.143,5.483c-0.067,0.395,0.007,0.619,0.299,0.888c1.863,1.707,3.787,3.357,5.538,5.176
		c11.776,12.243,18.8,26.8,21.02,43.646c0.339,2.58,0.462,5.188,0.685,7.782c0,1.339,0,2.68,0,4.02
		c-0.054,0.399-0.125,0.797-0.158,1.197c-0.194,2.343-0.251,4.706-0.587,7.029c-2.794,19.305-11.575,35.352-26.331,48.116
		c-0.281,0.243-0.431,0.493-0.451,0.877c-0.141,2.636-2.079,4.637-4.651,5.168c-1.127,0.233-2.19-0.574-3.324,0.156
		c-4.458,2.876-9.187,5.239-14.166,7.079c-0.475,0.176-0.717,0.477-0.923,0.909c-1.419,2.96-5.011,4.029-7.807,2.319
		c-0.446-0.273-0.851-0.32-1.345-0.206c-3.071,0.706-6.176,1.215-9.316,1.502c-1.88,0.173-3.758,0.366-5.637,0.55
		c-1.297,0-2.594,0-3.891,0c-0.179-0.057-0.356-0.15-0.537-0.16c-4.161-0.22-8.292-0.669-12.395-1.424
		c-1.075-0.198-2.156-0.982-3.294-0.295c-2.916,1.762-6.559,0.678-7.974-2.423c-0.176-0.387-0.415-0.614-0.807-0.759
		c-5.036-1.875-9.808-4.28-14.333-7.175c-0.375-0.239-0.717-0.281-1.155-0.185c-2.669,0.591-5.659-0.744-6.223-3.325
		c-0.497-2.275-1.946-3.496-3.446-4.873c-1.001-0.92-1.978-1.872-2.916-2.855c-11.99-12.554-19.038-27.443-21.074-44.69
		C202.669,309.396,202.476,307.215,202.254,305.036z M324.003,340.684c-0.004,0-0.007,0-0.012,0c0,5.035-0.004,10.071,0.003,15.106
		c0.002,1.446,1.555,1.086,2.2,1.827c0.344,0.396,0.674-0.194,0.926-0.427c17.682-16.338,25.966-36.516,24-60.532
		c-1.609-19.646-10.312-35.878-25.151-48.84c-0.617-0.538-1.03-0.201-1.559-0.031c-0.527,0.17-0.349,0.594-0.35,0.922
		c-0.019,10.007-0.03,20.014-0.023,30.02c0.001,0.563-0.177,0.9-0.631,1.222c-6.018,4.251-12.018,8.526-18.039,12.772
		c-0.504,0.356-0.592,0.642-0.353,1.21c0.565,1.346,1.777,3.046,1.358,4.006c-0.422,0.969-2.45,1.396-3.853,1.747
		c-2.366,0.595-3.436,1.786-3.079,4.344c0.14,1.005,0.197,1.623,1.259,1.974c1.327,0.439,2.549,1.22,3.889,1.594
		c1.793,0.498,2.208,1.333,1.135,2.865c-0.589,0.841-0.284,1.322,0.521,1.887c5.752,4.028,11.459,8.12,17.193,12.175
		c0.419,0.297,0.577,0.608,0.576,1.117C323.998,330.655,324.003,335.669,324.003,340.684z M233.941,263.741
		c-0.004,0-0.008,0-0.013,0c0-5.035,0.003-10.07-0.006-15.104c0-0.313,0.163-0.716-0.337-0.858
		c-0.483-0.139-0.867-0.511-1.449-0.003c-15.689,13.694-24.463,30.924-25.416,51.708c-1.049,22.911,7.3,42.158,24.167,57.714
		c1.248,1.15,1.752-0.471,2.669-0.515c0.567-0.026,0.394-0.581,0.394-0.938c0.005-9.983,0.007-19.967-0.013-29.949
		c-0.001-0.606,0.175-0.979,0.676-1.331c5.155-3.637,10.291-7.299,15.434-10.951c2.708-1.924,2.718-1.926,1.514-5.029
		c-0.17-0.439-0.121-0.638,0.34-0.814c1.651-0.633,3.262-1.386,4.937-1.943c1.132-0.376,1.287-0.954,1.459-2.128
		c0.405-2.741-0.811-3.771-3.175-4.614c-3.696-1.317-3.652-1.486-2.121-5.094c0.241-0.567,0.095-0.819-0.366-1.144
		c-6.017-4.25-12.016-8.525-18.036-12.771c-0.5-0.353-0.677-0.719-0.673-1.325C233.952,273.682,233.941,268.711,233.941,263.741z
		 M259.953,355.707c-0.004,0-0.007,0-0.011,0c0,3.868,0.006,7.735-0.007,11.604c-0.001,0.483,0.138,0.781,0.584,1.029
		c1.872,1.045,2.833,2.671,2.876,4.811c0.01,0.449,0.145,0.66,0.584,0.752c10.023,2.111,20.043,2.112,30.067,0.008
		c0.474-0.1,0.607-0.33,0.607-0.801c0-2.08,0.95-3.65,2.722-4.689c0.521-0.306,0.718-0.63,0.716-1.22
		c-0.02-7.649-0.019-15.299-0.023-22.948c-0.001-0.413-0.03-0.797-0.305-1.158c-3.375-4.438-6.738-8.883-10.101-13.328
		c-0.212-0.281-0.39-0.443-0.8-0.303c-3.263,1.115-3.266,1.105-4.564-2.146c-0.104-0.261-0.259-0.511-0.308-0.781
		c-0.445-2.407-1.766-3.466-4.28-3.029c-0.658,0.115-1.019,0.223-1.27,0.863c-0.615,1.568-1.435,3.064-1.936,4.662
		c-0.463,1.482-1.146,1.761-2.372,0.914c-1.055-0.727-1.677-0.393-2.414,0.614c-3.037,4.149-6.176,8.224-9.292,12.313
		c-0.333,0.437-0.485,0.873-0.483,1.423C259.961,348.102,259.953,351.904,259.953,355.707z M298.006,250.196
		c-0.003,0-0.008,0-0.011,0c0-3.912-0.007-7.823,0.009-11.734c0.001-0.438-0.118-0.68-0.521-0.91
		c-1.815-1.041-2.882-2.577-2.866-4.731c0.002-0.446-0.175-0.595-0.574-0.679c-10.01-2.094-20.02-2.095-30.031-0.001
		c-0.393,0.083-0.577,0.222-0.581,0.673c-0.02,2.109-1.032,3.664-2.826,4.699c-0.446,0.257-0.578,0.521-0.577,1.009
		c0.01,7.78,0.005,15.56-0.009,23.34c0,0.435,0.113,0.78,0.376,1.126c3.214,4.233,6.437,8.46,9.602,12.729
		c0.552,0.745,0.969,0.895,1.831,0.511c2.509-1.116,2.528-1.073,3.534,1.45c0.177,0.44,0.414,0.867,0.519,1.325
		c0.542,2.361,1.639,3.841,4.425,3.321c0.674-0.124,1.05-0.164,1.307-0.836c0.532-1.391,1.299-2.705,1.702-4.127
		c0.529-1.868,1.415-2.285,3.011-1.188c0.702,0.481,1.146,0.299,1.664-0.402c3.153-4.251,6.36-8.463,9.564-12.676
		c0.317-0.418,0.466-0.828,0.464-1.358C297.998,257.89,298.006,254.042,298.006,250.196z M256.513,354.963
		c0-4.02,0.007-8.039-0.008-12.058c-0.001-0.458,0.117-0.819,0.396-1.185c2.655-3.491,5.298-6.99,7.936-10.494
		c0.804-1.067,1.577-2.157,2.363-3.236c-1.217-0.569-2.419-1.173-3.657-1.692c-0.533-0.223-0.536-0.446-0.331-0.914
		c0.852-1.936,1.665-3.89,2.494-5.836c0.112-0.263,0.212-0.475-0.056-0.751c-2.755-2.829-2.75-2.832-6.395-1.354
		c-0.16,0.064-0.321,0.127-0.481,0.192c-3.005,1.209-3.021,1.216-4.211-1.768c-0.251-0.628-0.458-0.659-0.988-0.276
		c-5.191,3.771-10.396,7.522-15.606,11.268c-0.39,0.279-0.566,0.586-0.565,1.072c0.004,9.377-0.001,18.755-0.018,28.133
		c-0.001,0.492,0.167,0.772,0.603,1.018c2.418,1.363,3.448,3.965,2.592,6.588c-0.174,0.534-0.026,0.765,0.408,1.028
		c3.515,2.131,7.165,3.988,10.974,5.542c0.742,0.303,1.157,0.287,1.612-0.436c0.54-0.856,1.385-1.43,2.347-1.758
		c0.477-0.163,0.608-0.415,0.605-0.897C256.51,363.088,256.518,359.025,256.513,354.963z M320.568,342.054c-0.002,0-0.005,0-0.008,0
		c0-4.538-0.022-9.077,0.021-13.614c0.008-0.848-0.238-1.363-0.938-1.86c-4.229-2.998-8.42-6.054-12.629-9.082
		c-1.05-0.755-2.119-1.483-3.18-2.223c-0.547,1.156-1.119,2.302-1.63,3.474c-0.205,0.47-0.41,0.54-0.873,0.336
		c-2.034-0.895-4.084-1.756-6.13-2.628c-0.259-0.11-0.472-0.205-0.749,0.059c-2.758,2.608-2.763,2.603-1.333,6.146
		c0.063,0.16,0.127,0.32,0.191,0.481c1.279,3.203,1.285,3.217-1.919,4.501c-0.578,0.231-0.616,0.414-0.251,0.894
		c3.244,4.265,6.459,8.552,9.711,12.812c0.433,0.569,0.604,1.131,0.603,1.837c-0.022,7.715,0,15.431-0.046,23.146
		c-0.005,1.002,0.149,1.632,1.211,1.971c0.895,0.285,1.567,0.998,2.063,1.805c0.279,0.457,0.552,0.471,1.005,0.29
		c3.962-1.578,7.755-3.49,11.396-5.711c0.425-0.261,0.525-0.5,0.366-0.989c-0.847-2.606,0.149-5.218,2.513-6.568
		c0.46-0.265,0.619-0.552,0.617-1.069C320.56,351.39,320.568,346.722,320.568,342.054z M301.527,250.893c-0.013,0-0.026,0-0.037,0
		c0,3.997-0.012,7.993,0.011,11.991c0.004,0.641-0.165,1.145-0.556,1.656c-3.275,4.293-6.52,8.609-9.793,12.904
		c-0.351,0.461-0.379,0.673,0.216,0.899c1.067,0.405,2.102,0.9,3.166,1.317c0.478,0.188,0.535,0.396,0.328,0.862
		c-0.873,1.975-1.703,3.967-2.55,5.953c-0.108,0.256-0.231,0.468,0.032,0.752c2.612,2.82,2.607,2.825,6.202,1.371
		c0.62-0.25,1.285-0.429,1.851-0.77c1.434-0.862,2.314-0.614,2.638,1.111c0.084,0.45,0.282,0.665,0.788,0.297
		c5.417-3.936,10.846-7.854,16.28-11.766c0.342-0.245,0.446-0.523,0.445-0.927c-0.016-9.419-0.021-18.838-0.019-28.258
		c0.001-0.444-0.141-0.682-0.534-0.91c-2.104-1.227-3.082-3.077-2.865-5.511c0.038-0.434-0.182-0.569-0.463-0.74
		c-3.347-2.03-6.839-3.77-10.455-5.268c-0.798-0.33-1.344-0.481-1.896,0.42c-0.489,0.796-1.335,1.293-2.238,1.581
		c-0.465,0.148-0.564,0.397-0.562,0.848C301.534,242.769,301.527,246.831,301.527,250.893z M237.476,262.437
		c-0.003,0-0.008,0-0.011,0c0,4.624,0.013,9.247-0.016,13.87c-0.004,0.635,0.195,1.015,0.705,1.381
		c4.863,3.484,9.71,6.991,14.558,10.498c2.058,1.489,2.077,1.507,3.026-0.821c0.261-0.64,0.508-0.716,1.12-0.438
		c1.865,0.848,3.76,1.631,5.648,2.432c0.246,0.104,0.471,0.246,0.766-0.004c3.018-2.558,3.021-2.554,1.536-6.249
		c-0.04-0.101-0.078-0.2-0.118-0.301c-1.272-3.186-1.277-3.199,1.932-4.493c0.579-0.234,0.595-0.415,0.235-0.889
		c-3.313-4.346-6.6-8.712-9.909-13.061c-0.317-0.417-0.465-0.825-0.464-1.354c0.012-8.059,0.149-16.123-0.163-24.169
		c-0.044-1.158-2.275-2.232-3.504-3.334c-0.037-0.033-0.194,0.064-0.294,0.104c-3.891,1.518-7.612,3.379-11.184,5.54
		c-0.336,0.203-0.455,0.409-0.427,0.824c0.153,2.375-0.796,4.204-2.866,5.392c-0.445,0.256-0.581,0.521-0.579,1.009
		C237.483,253.061,237.476,257.748,237.476,262.437z M279.021,287.743c-8.514,0-15.289,6.749-15.294,15.235
		c-0.006,8.386,6.808,15.314,15.064,15.32c8.678,0.004,15.535-6.756,15.532-15.316C294.32,294.514,287.522,287.743,279.021,287.743z
		"/>
	<path fill-rule="evenodd" clip-rule="evenodd" fill="none" d="M202.254,305.036c0.222,2.179,0.416,4.359,0.672,6.533
		c2.036,17.247,9.084,32.137,21.074,44.69c0.938,0.983,1.915,1.936,2.916,2.855c1.5,1.377,2.949,2.598,3.446,4.873
		c0.563,2.581,3.554,3.916,6.223,3.325c0.438-0.097,0.781-0.055,1.155,0.185c4.525,2.895,9.297,5.3,14.333,7.175
		c0.393,0.145,0.631,0.372,0.807,0.759c1.415,3.101,5.059,4.185,7.974,2.423c1.138-0.688,2.219,0.097,3.294,0.295
		c4.103,0.755,8.233,1.204,12.395,1.424c0.181,0.01,0.358,0.104,0.537,0.16c-24.748,0-49.495-0.002-74.243,0.013
		c-0.495,0.001-0.597-0.102-0.597-0.598C202.255,354.444,202.254,329.741,202.254,305.036z"/>
	<path fill-rule="evenodd" clip-rule="evenodd" fill="none" d="M280.97,379.733c1.879-0.184,3.757-0.377,5.637-0.55
		c3.141-0.287,6.245-0.796,9.316-1.502c0.494-0.114,0.898-0.067,1.345,0.206c2.796,1.71,6.388,0.641,7.807-2.319
		c0.206-0.433,0.448-0.733,0.923-0.909c4.979-1.84,9.708-4.203,14.166-7.079c1.134-0.73,2.197,0.077,3.324-0.156
		c2.572-0.531,4.511-2.532,4.651-5.168c0.021-0.384,0.17-0.634,0.451-0.877c14.756-12.765,23.537-28.812,26.331-48.116
		c0.336-2.323,0.393-4.687,0.587-7.029c0.033-0.4,0.104-0.798,0.158-1.197c0,24.705-0.001,49.408,0.014,74.112
		c0.001,0.496-0.102,0.599-0.597,0.598C330.379,379.731,305.675,379.733,280.97,379.733z"/>
	<path fill-rule="evenodd" clip-rule="evenodd" fill="none" d="M276.301,226.32c-2.699,0.266-5.401,0.509-8.099,0.809
		c-1.177,0.13-2.352,0.334-3.511,0.582c-1.687,0.359-3.202,0.62-4.98-0.245c-2.664-1.296-5.816,0.298-6.965,3.084
		c-0.154,0.374-0.362,0.582-0.74,0.724c-4.5,1.689-8.806,3.778-12.896,6.304c-0.403,0.25-0.688,0.235-1.107,0.022
		c-2.044-1.033-4.077-0.951-5.924,0.416c-1.813,1.342-2.576,3.199-2.181,5.458c0.075,0.431,0,0.701-0.344,0.999
		c-15.661,13.552-24.601,30.622-26.772,51.226c-0.187,1.771-0.354,3.546-0.529,5.318c0-24.705,0.001-49.409-0.014-74.113
		c0-0.495,0.102-0.598,0.597-0.597C227.325,226.321,251.813,226.32,276.301,226.32z"/>
	<path fill-rule="evenodd" clip-rule="evenodd" fill="none" d="M355.667,301.017c-0.223-2.595-0.346-5.202-0.685-7.782
		c-2.22-16.847-9.243-31.403-21.02-43.646c-1.751-1.818-3.675-3.469-5.538-5.176c-0.292-0.269-0.366-0.493-0.299-0.888
		c0.382-2.246-0.325-4.127-2.143-5.483c-1.865-1.393-3.912-1.48-5.98-0.433c-0.399,0.202-0.671,0.209-1.051-0.024
		c-4.111-2.534-8.433-4.642-12.96-6.323c-0.419-0.156-0.592-0.43-0.751-0.804c-1.331-3.144-5.174-4.37-8.038-2.539
		c-0.524,0.335-0.969,0.396-1.562,0.264c-4.371-0.976-8.791-1.592-13.272-1.738c-0.208-0.007-0.413-0.081-0.62-0.123
		c24.445,0,48.89,0.002,73.335-0.014c0.495-0.001,0.598,0.102,0.597,0.597C355.666,251.607,355.667,276.312,355.667,301.017z"/>
	<path fill-rule="evenodd" clip-rule="evenodd" fill="none" d="M324.003,340.684c0-5.015-0.006-10.028,0.012-15.043
		c0.001-0.509-0.157-0.82-0.576-1.117c-5.734-4.055-11.441-8.146-17.193-12.175c-0.806-0.564-1.11-1.046-0.521-1.887
		c1.073-1.532,0.658-2.367-1.135-2.865c-1.34-0.374-2.562-1.154-3.889-1.594c-1.062-0.351-1.119-0.969-1.259-1.974
		c-0.356-2.558,0.713-3.749,3.079-4.344c1.402-0.352,3.431-0.778,3.853-1.747c0.419-0.96-0.793-2.66-1.358-4.006
		c-0.239-0.568-0.151-0.854,0.353-1.21c6.021-4.246,12.021-8.521,18.039-12.772c0.454-0.321,0.632-0.659,0.631-1.222
		c-0.007-10.006,0.005-20.013,0.023-30.02c0.001-0.328-0.178-0.752,0.35-0.922c0.528-0.17,0.941-0.507,1.559,0.031
		c14.84,12.962,23.542,29.193,25.151,48.84c1.966,24.017-6.318,44.194-24,60.532c-0.252,0.232-0.582,0.822-0.926,0.427
		c-0.646-0.741-2.198-0.381-2.2-1.827c-0.007-5.035-0.003-10.071-0.003-15.106C323.997,340.684,324,340.684,324.003,340.684z"/>
	<path fill-rule="evenodd" clip-rule="evenodd" fill="none" d="M233.941,263.741c0,4.97,0.011,9.94-0.014,14.909
		c-0.003,0.606,0.173,0.973,0.673,1.325c6.02,4.246,12.019,8.521,18.036,12.771c0.46,0.324,0.606,0.576,0.366,1.144
		c-1.531,3.607-1.575,3.776,2.121,5.094c2.365,0.843,3.58,1.873,3.175,4.614c-0.173,1.174-0.328,1.752-1.459,2.128
		c-1.675,0.558-3.286,1.311-4.937,1.943c-0.461,0.177-0.51,0.375-0.34,0.814c1.205,3.104,1.195,3.105-1.514,5.029
		c-5.143,3.652-10.279,7.314-15.434,10.951c-0.5,0.353-0.677,0.725-0.676,1.331c0.021,9.982,0.019,19.966,0.013,29.949
		c0,0.356,0.173,0.911-0.394,0.938c-0.917,0.044-1.422,1.665-2.669,0.515c-16.867-15.556-25.217-34.803-24.167-57.714
		c0.953-20.784,9.726-38.014,25.416-51.708c0.583-0.508,0.966-0.136,1.449,0.003c0.5,0.143,0.337,0.546,0.337,0.858
		c0.009,5.034,0.006,10.069,0.006,15.104C233.933,263.741,233.937,263.741,233.941,263.741z"/>
	<path fill-rule="evenodd" clip-rule="evenodd" fill="none" d="M259.953,355.707c0-3.803,0.008-7.605-0.009-11.41
		c-0.002-0.55,0.149-0.986,0.483-1.423c3.116-4.09,6.255-8.164,9.292-12.313c0.737-1.007,1.359-1.341,2.414-0.614
		c1.227,0.847,1.909,0.568,2.372-0.914c0.501-1.598,1.32-3.094,1.936-4.662c0.251-0.641,0.611-0.748,1.27-0.863
		c2.515-0.437,3.835,0.622,4.28,3.029c0.049,0.271,0.203,0.521,0.308,0.781c1.299,3.252,1.302,3.262,4.564,2.146
		c0.41-0.141,0.588,0.021,0.8,0.303c3.362,4.445,6.726,8.891,10.101,13.328c0.274,0.361,0.304,0.745,0.305,1.158
		c0.005,7.649,0.004,15.299,0.023,22.948c0.002,0.59-0.195,0.914-0.716,1.22c-1.771,1.039-2.722,2.609-2.722,4.689
		c0,0.471-0.134,0.701-0.607,0.801c-10.023,2.104-20.044,2.104-30.067-0.008c-0.439-0.092-0.575-0.303-0.584-0.752
		c-0.043-2.14-1.004-3.766-2.876-4.811c-0.446-0.248-0.586-0.546-0.584-1.029c0.014-3.869,0.007-7.736,0.007-11.604
		C259.946,355.707,259.949,355.707,259.953,355.707z"/>
	<path fill-rule="evenodd" clip-rule="evenodd" fill="none" d="M298.006,250.196c0,3.846-0.009,7.693,0.011,11.54
		c0.002,0.53-0.146,0.94-0.464,1.358c-3.204,4.213-6.411,8.425-9.564,12.676c-0.519,0.701-0.962,0.884-1.664,0.402
		c-1.596-1.097-2.481-0.68-3.011,1.188c-0.403,1.422-1.17,2.736-1.702,4.127c-0.257,0.672-0.633,0.712-1.307,0.836
		c-2.786,0.52-3.883-0.96-4.425-3.321c-0.104-0.458-0.342-0.885-0.519-1.325c-1.006-2.523-1.025-2.566-3.534-1.45
		c-0.862,0.384-1.279,0.234-1.831-0.511c-3.165-4.27-6.388-8.496-9.602-12.729c-0.263-0.346-0.376-0.691-0.376-1.126
		c0.014-7.78,0.019-15.56,0.009-23.34c0-0.487,0.131-0.752,0.577-1.009c1.794-1.035,2.807-2.59,2.826-4.699
		c0.004-0.451,0.188-0.59,0.581-0.673c10.012-2.094,20.021-2.093,30.031,0.001c0.399,0.084,0.576,0.232,0.574,0.679
		c-0.016,2.154,1.051,3.69,2.866,4.731c0.402,0.23,0.521,0.473,0.521,0.91c-0.016,3.911-0.009,7.822-0.009,11.734
		C297.999,250.196,298.003,250.196,298.006,250.196z"/>
	<path fill-rule="evenodd" clip-rule="evenodd" fill="none" d="M256.515,354.963c0.002,4.063-0.005,8.125,0.012,12.187
		c0.002,0.482-0.128,0.734-0.605,0.897c-0.962,0.328-1.807,0.901-2.347,1.758c-0.455,0.723-0.87,0.738-1.612,0.436
		c-3.809-1.554-7.459-3.411-10.974-5.542c-0.434-0.264-0.582-0.494-0.408-1.028c0.856-2.623-0.174-5.225-2.592-6.588
		c-0.436-0.245-0.604-0.525-0.603-1.018c0.016-9.378,0.021-18.756,0.018-28.133c0-0.486,0.176-0.793,0.565-1.072
		c5.209-3.745,10.415-7.497,15.606-11.268c0.53-0.383,0.737-0.352,0.988,0.276c1.189,2.983,1.206,2.977,4.211,1.768
		c0.16-0.065,0.321-0.128,0.481-0.192c3.645-1.479,3.64-1.476,6.395,1.354c0.268,0.276,0.167,0.488,0.056,0.751
		c-0.829,1.946-1.642,3.9-2.494,5.836c-0.205,0.468-0.203,0.691,0.331,0.914c1.238,0.52,2.44,1.123,3.657,1.692
		c-0.786,1.079-1.559,2.169-2.363,3.236c-2.637,3.504-5.281,7.003-7.936,10.494c-0.278,0.365-0.397,0.727-0.396,1.185
		C256.52,346.924,256.513,350.943,256.515,354.963z"/>
	<path fill-rule="evenodd" clip-rule="evenodd" fill="none" d="M320.568,342.054c0,4.668-0.008,9.336,0.011,14.004
		c0.002,0.518-0.157,0.805-0.617,1.069c-2.363,1.351-3.359,3.962-2.513,6.568c0.159,0.489,0.059,0.729-0.366,0.989
		c-3.641,2.221-7.434,4.133-11.396,5.711c-0.453,0.181-0.726,0.167-1.005-0.29c-0.496-0.807-1.169-1.52-2.063-1.805
		c-1.062-0.339-1.216-0.969-1.211-1.971c0.046-7.715,0.023-15.431,0.046-23.146c0.002-0.706-0.17-1.268-0.603-1.837
		c-3.252-4.26-6.467-8.547-9.711-12.812c-0.365-0.479-0.327-0.662,0.251-0.894c3.204-1.284,3.198-1.298,1.919-4.501
		c-0.064-0.161-0.128-0.321-0.191-0.481c-1.43-3.543-1.425-3.537,1.333-6.146c0.277-0.264,0.49-0.169,0.749-0.059
		c2.046,0.872,4.096,1.733,6.13,2.628c0.463,0.204,0.668,0.134,0.873-0.336c0.511-1.172,1.083-2.317,1.63-3.474
		c1.061,0.739,2.13,1.468,3.18,2.223c4.209,3.028,8.399,6.084,12.629,9.082c0.7,0.497,0.946,1.013,0.938,1.86
		c-0.043,4.537-0.021,9.076-0.021,13.614C320.563,342.054,320.566,342.054,320.568,342.054z"/>
	<path fill-rule="evenodd" clip-rule="evenodd" fill="none" d="M301.527,250.893c0-4.062,0.007-8.124-0.01-12.185
		c-0.003-0.45,0.097-0.699,0.562-0.848c0.903-0.288,1.749-0.785,2.238-1.581c0.552-0.901,1.098-0.75,1.896-0.42
		c3.616,1.498,7.108,3.237,10.455,5.268c0.281,0.171,0.501,0.307,0.463,0.74c-0.217,2.434,0.762,4.284,2.865,5.511
		c0.394,0.229,0.535,0.466,0.534,0.91c-0.003,9.42,0.003,18.839,0.019,28.258c0.001,0.403-0.104,0.682-0.445,0.927
		c-5.435,3.912-10.863,7.83-16.28,11.766c-0.506,0.368-0.704,0.153-0.788-0.297c-0.323-1.726-1.204-1.974-2.638-1.111
		c-0.565,0.341-1.23,0.52-1.851,0.77c-3.595,1.454-3.59,1.449-6.202-1.371c-0.264-0.284-0.141-0.496-0.032-0.752
		c0.847-1.986,1.677-3.979,2.55-5.953c0.207-0.466,0.149-0.674-0.328-0.862c-1.064-0.417-2.099-0.912-3.166-1.317
		c-0.595-0.227-0.566-0.438-0.216-0.899c3.273-4.295,6.518-8.611,9.793-12.904c0.391-0.512,0.56-1.016,0.556-1.656
		c-0.022-3.998-0.011-7.994-0.011-11.991C301.5,250.893,301.514,250.893,301.527,250.893z"/>
	<path fill-rule="evenodd" clip-rule="evenodd" fill="none" d="M237.476,262.437c0-4.688,0.007-9.376-0.01-14.064
		c-0.001-0.487,0.134-0.753,0.579-1.009c2.07-1.188,3.019-3.017,2.866-5.392c-0.027-0.415,0.091-0.621,0.427-0.824
		c3.572-2.161,7.293-4.022,11.184-5.54c0.101-0.039,0.257-0.137,0.294-0.104c1.229,1.102,3.46,2.176,3.504,3.334
		c0.312,8.046,0.174,16.11,0.163,24.169c-0.001,0.529,0.146,0.938,0.464,1.354c3.31,4.349,6.597,8.715,9.909,13.061
		c0.36,0.474,0.344,0.654-0.235,0.889c-3.209,1.294-3.204,1.308-1.932,4.493c0.04,0.101,0.078,0.2,0.118,0.301
		c1.485,3.695,1.481,3.691-1.536,6.249c-0.295,0.25-0.52,0.108-0.766,0.004c-1.888-0.801-3.783-1.584-5.648-2.432
		c-0.612-0.277-0.859-0.201-1.12,0.438c-0.949,2.328-0.969,2.311-3.026,0.821c-4.848-3.507-9.695-7.014-14.558-10.498
		c-0.51-0.366-0.709-0.746-0.705-1.381c0.029-4.623,0.016-9.246,0.016-13.87C237.468,262.437,237.473,262.437,237.476,262.437z"/>
	<path fill-rule="evenodd" clip-rule="evenodd" fill="none" d="M279.021,287.743c8.501,0,15.299,6.771,15.302,15.239
		c0.003,8.561-6.854,15.32-15.532,15.316c-8.256-0.006-15.07-6.935-15.064-15.32C263.732,294.492,270.507,287.743,279.021,287.743z
		 M279.034,311.486c4.74,0,8.505-3.729,8.508-8.424c0.004-4.796-3.758-8.61-8.492-8.613c-4.732-0.004-8.539,3.785-8.54,8.5
		C270.506,307.76,274.229,311.487,279.034,311.486z"/>
	<path fill-rule="evenodd" clip-rule="evenodd" fill="#FFFFFF" d="M279.034,311.486c-4.805,0.001-8.527-3.727-8.524-8.537
		c0.001-4.715,3.808-8.504,8.54-8.5c4.734,0.003,8.496,3.817,8.492,8.613C287.539,307.758,283.774,311.486,279.034,311.486z"/>
</g>
</svg>
