<?xml version="1.0" encoding="utf-8"?>
<!-- Generator: Adobe Illustrator 16.0.0, SVG Export Plug-In . SVG Version: 6.00 Build 0)  -->
<!DOCTYPE svg PUBLIC "-//W3C//DTD SVG 1.1//EN" "http://www.w3.org/Graphics/SVG/1.1/DTD/svg11.dtd">
<svg version="1.1" id="Layer_1" xmlns="http://www.w3.org/2000/svg" xmlns:xlink="http://www.w3.org/1999/xlink" x="0px" y="0px"
	 width="306.414px" height="237.436px" viewBox="0 0 306.414 237.436" enable-background="new 0 0 306.414 237.436"
	 xml:space="preserve">
<g>
	<line fill="none" x1="180.341" y1="81.052" x2="167.763" y2="81.052"/>
	<line fill="none" stroke="#FF2733" stroke-miterlimit="10" x1="180.341" y1="81.052" x2="167.763" y2="81.052"/>
	<line fill="none" x1="157.752" y1="86.953" x2="146.721" y2="86.953"/>
	<line fill="none" stroke="#FF5812" stroke-miterlimit="10" x1="157.752" y1="86.953" x2="146.721" y2="86.953"/>
	<line fill="none" x1="159.669" y1="92.7" x2="149.163" y2="92.7"/>
	<line fill="none" stroke="#FF5812" stroke-miterlimit="10" x1="159.669" y1="92.7" x2="148.297" y2="92.7"/>
	<line fill="none" x1="158.679" y1="97.769" x2="151.417" y2="97.769"/>
	<line fill="none" stroke="#FF5812" stroke-miterlimit="10" x1="158.679" y1="97.769" x2="151.417" y2="97.769"/>
	<line fill="none" x1="160.442" y1="101.723" x2="156.115" y2="101.723"/>
	<line fill="none" stroke="#FF5812" stroke-miterlimit="10" x1="160.442" y1="101.723" x2="155.033" y2="101.723"/>
	<line fill="none" x1="162.975" y1="111.89" x2="169.679" y2="111.89"/>
	<line fill="none" stroke="#FF7100" stroke-miterlimit="10" x1="162.975" y1="111.89" x2="169.679" y2="111.89"/>
	<line fill="none" x1="161.924" y1="117.266" x2="173.79" y2="117.266"/>
	<line fill="none" stroke="#FF7100" stroke-miterlimit="10" x1="161.924" y1="117.266" x2="173.79" y2="117.266"/>
	<line fill="none" x1="161.307" y1="122.983" x2="178.95" y2="122.921"/>
	<line fill="none" stroke="#FF7100" stroke-miterlimit="10" x1="161.307" y1="122.983" x2="177.992" y2="122.921"/>
	<line fill="none" x1="149.687" y1="128.484" x2="165.044" y2="128.453"/>
	<line fill="none" stroke="#FF2733" stroke-miterlimit="10" x1="148.238" y1="128.484" x2="165.044" y2="128.453"/>
	<line fill="none" x1="151.819" y1="134.478" x2="164.209" y2="134.54"/>
	<line fill="none" stroke="#FF2733" stroke-miterlimit="10" x1="150.098" y1="134.478" x2="164.209" y2="134.54"/>
	<line fill="none" x1="155.528" y1="139.885" x2="165.446" y2="139.885"/>
	<line fill="none" stroke="#FF2733" stroke-miterlimit="10" x1="153.738" y1="139.885" x2="165.446" y2="139.885"/>
	<line fill="none" x1="158.31" y1="143.655" x2="164.365" y2="143.655"/>
	<line fill="none" stroke="#FF2733" stroke-miterlimit="10" x1="157.366" y1="143.655" x2="164.365" y2="143.655"/>
	<line fill="none" x1="164.706" y1="159.105" x2="174.963" y2="159.074"/>
	<line fill="none" stroke="#FF3A26" stroke-miterlimit="10" x1="164.706" y1="159.105" x2="174.963" y2="159.074"/>
	<line fill="none" x1="178.147" y1="164.328" x2="166.559" y2="164.328"/>
	<line fill="none" stroke="#FF3A26" stroke-miterlimit="10" x1="178.147" y1="164.328" x2="166.559" y2="164.328"/>
	<line fill="none" x1="180.156" y1="169.642" x2="167.146" y2="169.642"/>
	<line fill="none" stroke="#FF3A26" stroke-miterlimit="10" x1="180.156" y1="169.642" x2="167.146" y2="169.642"/>
	<line fill="none" x1="149.132" y1="169.858" x2="167.146" y2="169.642"/>
	<line fill="none" stroke="#FF7100" stroke-miterlimit="10" x1="149.132" y1="169.858" x2="167.146" y2="169.642"/>
	<line fill="none" x1="152.591" y1="164.328" x2="166.96" y2="164.328"/>
	<line fill="none" stroke="#FF7100" stroke-miterlimit="10" x1="152.591" y1="164.328" x2="166.96" y2="164.328"/>
	<line fill="none" x1="156.639" y1="159.074" x2="166.404" y2="159.074"/>
	<line fill="none" stroke="#FF7100" stroke-miterlimit="10" x1="154.871" y1="159.074" x2="166.404" y2="159.074"/>
	<line fill="none" x1="166.25" y1="153.574" x2="172.739" y2="153.605"/>
	<line fill="none" stroke="#FF3A26" stroke-miterlimit="10" x1="166.25" y1="153.574" x2="172.739" y2="153.605"/>
	<line fill="none" x1="160.595" y1="153.574" x2="166.745" y2="153.574"/>
	<line fill="none" stroke="#FF7100" stroke-miterlimit="10" x1="160.595" y1="153.574" x2="166.745" y2="153.574"/>
	<line fill="none" x1="169.34" y1="143.655" x2="163.994" y2="143.655"/>
	<line fill="none" stroke="#FF7100" stroke-miterlimit="10" x1="169.34" y1="143.655" x2="163.994" y2="143.655"/>
	<line fill="none" x1="174.376" y1="139.885" x2="163.748" y2="139.885"/>
	<line fill="none" stroke="#FF7100" stroke-miterlimit="10" x1="174.376" y1="139.885" x2="163.748" y2="139.885"/>
	<line fill="none" x1="176.354" y1="134.54" x2="162.542" y2="134.54"/>
	<line fill="none" stroke="#FF7100" stroke-miterlimit="10" x1="176.354" y1="134.54" x2="162.542" y2="134.54"/>
	<line fill="none" x1="177.992" y1="128.422" x2="163.532" y2="128.422"/>
	<line fill="none" stroke="#FF7100" stroke-miterlimit="10" x1="177.992" y1="128.422" x2="163.532" y2="128.422"/>
	<line fill="none" x1="162.574" y1="122.952" x2="149.316" y2="122.952"/>
	<line fill="none" stroke="#FF2733" stroke-miterlimit="10" x1="162.574" y1="122.952" x2="149.316" y2="122.952"/>
	<line fill="none" x1="162.481" y1="117.266" x2="152.995" y2="117.236"/>
	<line fill="none" stroke="#FF2733" stroke-miterlimit="10" x1="162.481" y1="117.266" x2="151.878" y2="117.236"/>
	<line fill="none" x1="157.133" y1="111.89" x2="163.221" y2="111.89"/>
	<line fill="none" stroke="#FF2733" stroke-miterlimit="10" x1="155.945" y1="111.89" x2="163.221" y2="111.89"/>
	<line fill="none" x1="165.664" y1="101.755" x2="160.164" y2="101.755"/>
	<line fill="none" stroke="#FF2733" stroke-miterlimit="10" x1="165.664" y1="101.755" x2="160.164" y2="101.755"/>
	<line fill="none" x1="169.99" y1="97.769" x2="156.764" y2="97.769"/>
	<line fill="none" stroke="#FF2733" stroke-miterlimit="10" x1="169.99" y1="97.769" x2="156.764" y2="97.769"/>
	<line fill="none" x1="174.778" y1="92.7" x2="158.125" y2="92.7"/>
	<line fill="none" stroke="#FF2733" stroke-miterlimit="10" x1="174.778" y1="92.7" x2="158.125" y2="92.7"/>
	<line fill="none" x1="177.189" y1="86.923" x2="156.732" y2="86.923"/>
	<line fill="none" stroke="#FF2733" stroke-miterlimit="10" x1="177.189" y1="86.923" x2="156.732" y2="86.923"/>
	<line fill="none" x1="169.217" y1="81.052" x2="146.258" y2="81.052"/>
	<line fill="none" stroke="#FF7100" stroke-miterlimit="10" x1="169.217" y1="81.052" x2="146.258" y2="81.052"/>
	<line fill="none" stroke="#FF2733" stroke-miterlimit="10" x1="179.228" y1="81.607" x2="166.652" y2="81.607"/>
	<line fill="none" stroke="#FF5812" stroke-miterlimit="10" x1="156.639" y1="87.51" x2="145.609" y2="87.51"/>
	<line fill="none" stroke="#FF5812" stroke-miterlimit="10" x1="158.556" y1="93.257" x2="148.05" y2="93.257"/>
	<line fill="none" stroke="#FF5812" stroke-miterlimit="10" x1="157.567" y1="98.324" x2="150.306" y2="98.324"/>
	<line fill="none" stroke="#FF5812" stroke-miterlimit="10" x1="159.329" y1="102.279" x2="155.001" y2="102.279"/>
	<line fill="none" stroke="#FF7100" stroke-miterlimit="10" x1="161.862" y1="112.446" x2="168.568" y2="112.446"/>
	<line fill="none" stroke="#FF7100" stroke-miterlimit="10" x1="160.811" y1="117.823" x2="172.676" y2="117.823"/>
	<line fill="none" stroke="#FF7100" stroke-miterlimit="10" x1="160.194" y1="123.54" x2="177.838" y2="123.477"/>
	<line fill="none" stroke="#FF2733" stroke-miterlimit="10" x1="148.576" y1="129.04" x2="163.933" y2="129.009"/>
	<line fill="none" stroke="#FF2733" stroke-miterlimit="10" x1="150.708" y1="135.034" x2="163.098" y2="135.095"/>
	<line fill="none" stroke="#FF2733" stroke-miterlimit="10" x1="154.415" y1="140.441" x2="164.334" y2="140.441"/>
	<line fill="none" stroke="#FF2733" stroke-miterlimit="10" x1="157.196" y1="144.212" x2="163.253" y2="144.212"/>
	<line fill="none" stroke="#FF3A26" stroke-miterlimit="10" x1="163.592" y1="159.661" x2="173.852" y2="159.63"/>
	<line fill="none" stroke="#FF3A26" stroke-miterlimit="10" x1="177.034" y1="164.884" x2="165.446" y2="164.884"/>
	<line fill="none" stroke="#FF3A26" stroke-miterlimit="10" x1="179.042" y1="170.199" x2="166.035" y2="170.199"/>
	<line fill="none" stroke="#FF7100" stroke-miterlimit="10" x1="148.019" y1="170.415" x2="166.035" y2="170.199"/>
	<line fill="none" stroke="#FF7100" stroke-miterlimit="10" x1="151.48" y1="164.884" x2="165.849" y2="164.884"/>
	<line fill="none" stroke="#FF7100" stroke-miterlimit="10" x1="155.528" y1="159.63" x2="165.292" y2="159.63"/>
	<line fill="none" stroke="#FF3A26" stroke-miterlimit="10" x1="165.137" y1="154.131" x2="171.625" y2="154.161"/>
	<line fill="none" stroke="#FF7100" stroke-miterlimit="10" x1="159.484" y1="154.131" x2="165.631" y2="154.131"/>
	<line fill="none" stroke="#FF7100" stroke-miterlimit="10" x1="168.227" y1="144.212" x2="162.882" y2="144.212"/>
	<line fill="none" stroke="#FF7100" stroke-miterlimit="10" x1="173.263" y1="140.441" x2="162.634" y2="140.441"/>
	<line fill="none" stroke="#FF7100" stroke-miterlimit="10" x1="175.242" y1="135.095" x2="161.43" y2="135.095"/>
	<line fill="none" stroke="#FF7100" stroke-miterlimit="10" x1="176.88" y1="128.978" x2="162.418" y2="128.978"/>
	<line fill="none" stroke="#FF2733" stroke-miterlimit="10" x1="161.46" y1="123.509" x2="148.205" y2="123.509"/>
	<line fill="none" stroke="#FF2733" stroke-miterlimit="10" x1="161.368" y1="117.823" x2="151.881" y2="117.792"/>
	<line fill="none" stroke="#FF2733" stroke-miterlimit="10" x1="156.022" y1="112.446" x2="162.11" y2="112.446"/>
	<line fill="none" stroke="#FF2733" stroke-miterlimit="10" x1="164.55" y1="102.311" x2="159.05" y2="102.311"/>
	<line fill="none" stroke="#FF2733" stroke-miterlimit="10" x1="168.876" y1="98.324" x2="155.651" y2="98.324"/>
	<line fill="none" stroke="#FF2733" stroke-miterlimit="10" x1="173.667" y1="93.257" x2="157.01" y2="93.257"/>
	<line fill="none" stroke="#FF2733" stroke-miterlimit="10" x1="176.078" y1="87.479" x2="155.621" y2="87.479"/>
	<line fill="none" stroke="#FF7100" stroke-miterlimit="10" x1="168.104" y1="81.607" x2="145.146" y2="81.607"/>
	<path fill="#FF163F" d="M149.965,161.979c1.234,0,2.257,1.082,2.257,2.441c0,1.36-1.022,2.441-2.257,2.441
		c-1.236,0-2.255-1.081-2.255-2.441C147.71,163.061,148.699,161.979,149.965,161.979z"/>
	<ellipse fill="#FF163F" cx="147.124" cy="170.198" rx="2.317" ry="2.379"/>
	<path fill="#FF163F" d="M153.612,156.571c1.422,0,2.596,1.174,2.596,2.596s-1.174,2.598-2.596,2.598s-2.596-1.176-2.596-2.598
		S152.16,156.571,153.612,156.571z"/>
	<path fill="#FF163F" d="M158.154,150.978c1.391,0,2.502,1.175,2.502,2.627s-1.111,2.626-2.502,2.626
		c-1.392,0-2.503-1.174-2.503-2.626S156.764,150.978,158.154,150.978z"/>
	<ellipse fill="#FF163F" cx="163.655" cy="149.094" rx="2.225" ry="2.317"/>
	<path fill="#FF163F" d="M169.463,142.357c1.204,0,2.194,1.021,2.194,2.287c0,1.266-0.99,2.285-2.194,2.285s-2.194-1.02-2.194-2.285
		C167.269,143.378,168.227,142.357,169.463,142.357z"/>
	<ellipse fill="#FF163F" cx="174.778" cy="140.132" rx="2.411" ry="2.472"/>
	<path fill="#FF163F" d="M177.219,132.438c1.236,0,2.225,1.051,2.225,2.317c0,1.268-0.988,2.317-2.225,2.317
		c-1.235,0-2.226-1.05-2.226-2.317C174.994,133.489,175.984,132.438,177.219,132.438z"/>
	<path fill="#FF163F" d="M178.395,126.63c1.267,0,2.317,0.989,2.317,2.225c0,1.236-1.051,2.225-2.317,2.225
		c-1.269,0-2.319-0.988-2.319-2.225C176.076,127.619,177.096,126.63,178.395,126.63z"/>
	<ellipse fill="#FF163F" cx="176.324" cy="122.736" rx="2.225" ry="2.318"/>
	<path fill="#FF163F" d="M154.447,100.798c0.772,0,1.39,0.648,1.39,1.451c0,0.804-0.617,1.452-1.39,1.452s-1.392-0.648-1.392-1.452
		C153.055,101.446,153.674,100.798,154.447,100.798z"/>
	<path fill="#FF163F" d="M150.028,96.44c1.051,0,1.884,0.865,1.884,1.946s-0.833,1.946-1.884,1.946s-1.885-0.865-1.885-1.946
		S148.977,96.44,150.028,96.44z"/>
	<path fill="#FF163F" d="M146.844,90.754c1.268,0,2.318,1.05,2.318,2.379s-1.051,2.38-2.318,2.38s-2.318-1.051-2.318-2.38
		S145.547,90.754,146.844,90.754z"/>
	<path fill="#FF163F" d="M144.373,84.667c1.391,0,2.503,1.174,2.503,2.626c0,1.453-1.112,2.626-2.503,2.626
		c-1.391,0-2.503-1.174-2.503-2.626C141.87,85.841,142.982,84.667,144.373,84.667z"/>
	<ellipse fill="#FF163F" cx="144.929" cy="81.361" rx="2.38" ry="2.472"/>
	<path fill="#FF5812" d="M178.395,78.888c1.42,0,2.594,1.205,2.594,2.688c0,1.482-1.174,2.688-2.594,2.688
		c-1.424,0-2.598-1.205-2.598-2.688C175.798,80.094,176.943,78.888,178.395,78.888z"/>
	<ellipse fill="#FF5812" cx="177.56" cy="87.231" rx="2.317" ry="2.379"/>
	<path fill="#FF5812" d="M160.656,105.03c1.269,0,2.319,1.051,2.319,2.38s-1.051,2.379-2.319,2.379c-1.267,0-2.317-1.05-2.317-2.379
		S159.359,105.03,160.656,105.03z"/>
	<path fill="#FF5812" d="M154.6,109.728c1.299,0,2.348,1.143,2.348,2.564c0,1.422-1.049,2.566-2.348,2.566s-2.35-1.144-2.35-2.566
		C152.25,110.87,153.303,109.728,154.6,109.728z"/>
	<path fill="#FF5812" d="M148.205,120.789c1.42,0,2.563,1.112,2.563,2.503s-1.144,2.504-2.563,2.504
		c-1.422,0-2.565-1.112-2.565-2.504C145.639,121.901,146.783,120.789,148.205,120.789z"/>
	<path fill="#FF5812" d="M147.401,126.908c1.112,0,2.04,0.928,2.04,2.101c0,1.174-0.928,2.102-2.04,2.102s-2.04-0.928-2.04-2.102
		C145.363,127.835,146.258,126.908,147.401,126.908z"/>
	<path fill="#FF5812" d="M149.594,132.871c1.236,0,2.255,0.99,2.255,2.225c0,1.236-1.019,2.226-2.255,2.226
		c-1.234,0-2.255-0.989-2.255-2.226C147.339,133.86,148.328,132.871,149.594,132.871z"/>
	<path fill="#FF5812" d="M152.932,138.618c0.896,0,1.607,0.742,1.607,1.669s-0.712,1.668-1.607,1.668s-1.607-0.741-1.607-1.668
		S152.037,138.618,152.932,138.618z"/>
	<path fill="#FF5812" d="M156.825,142.727c0.619,0,1.144,0.525,1.144,1.176c0,0.649-0.524,1.175-1.144,1.175
		s-1.144-0.525-1.144-1.175C155.681,143.253,156.175,142.727,156.825,142.727z"/>
	<path fill="#FF5812" d="M172.337,152.74c0.71,0,1.267,0.587,1.267,1.298c0,0.71-0.557,1.299-1.267,1.299
		c-0.712,0-1.269-0.588-1.269-1.299C171.071,153.327,171.625,152.74,172.337,152.74z"/>
	<path fill="#FF5812" d="M175.859,157.096c1.207,0,2.195,1.051,2.195,2.379c0,1.33-0.988,2.381-2.195,2.381
		c-1.204,0-2.192-1.051-2.192-2.381C173.667,158.147,174.625,157.096,175.859,157.096z"/>
	<path fill="#FF5812" d="M178.611,162.319c1.39,0,2.503,1.051,2.503,2.318c0,1.267-1.113,2.317-2.503,2.317
		c-1.392,0-2.504-1.051-2.504-2.317C176.107,163.37,177.219,162.319,178.611,162.319z"/>
	<path fill="#FF5812" d="M181.422,167.973c1.313,0,2.378,0.997,2.378,2.226c0,1.228-1.064,2.225-2.378,2.225
		c-1.316,0-2.38-0.997-2.38-2.225C179.042,168.97,180.106,167.973,181.422,167.973z"/>
	<path fill="#FF163F" d="M173.295,115.01c1.329,0,2.378,1.112,2.378,2.473c0,1.359-1.049,2.472-2.378,2.472
		c-1.327,0-2.378-1.112-2.378-2.472C170.917,116.123,171.966,115.01,173.295,115.01z"/>
	<path fill="#FF163F" d="M169.248,110.963c0.71,0,1.267,0.587,1.267,1.298c0,0.711-0.555,1.297-1.267,1.297
		s-1.267-0.586-1.267-1.297C167.981,111.55,168.536,110.963,169.248,110.963z"/>
	<path fill="#FF5812" d="M172.398,92.763c0.248-1.392,1.517-2.318,2.813-2.071c1.298,0.217,2.163,1.546,1.947,2.905
		c-0.248,1.391-1.515,2.319-2.813,2.071C173.047,95.42,172.152,94.121,172.398,92.763z"/>
	<path fill="#FF5812" d="M170.885,94.988c1.357,0,2.471,1.205,2.471,2.656c0,1.452-1.111,2.657-2.471,2.657
		c-1.361,0-2.473-1.205-2.473-2.657C168.413,96.162,169.494,94.988,170.885,94.988z"/>
	<path fill="#FF5812" d="M166.25,99.653c1.359,0,2.44,1.145,2.44,2.534c0,1.391-1.081,2.535-2.44,2.535
		c-1.361,0-2.44-1.144-2.44-2.535C163.81,100.798,164.891,99.653,166.25,99.653z"/>
	<path fill="#FF5812" d="M150.615,115.32c1.267,0,2.317,1.051,2.317,2.38s-1.051,2.38-2.317,2.38s-2.317-1.051-2.317-2.38
		S149.316,115.32,150.615,115.32z"/>
	<path fill="#FFFFFF" d="M90.699,105c0.123,0.432,0.247,0.833,0.463,1.235c1.391,2.503,4.482,3.398,6.922,2.009l25.307-14.616
		c0.556-0.31,1.019-0.741,1.39-1.205c0.063-0.031,0.124-0.031,0.186-0.062l19.313-10.198c-0.495-1.545-0.71-3.244-0.495-4.975
		l0.341-2.966c0.71-6.18,6.148-10.599,12.082-9.827l17.366,2.256l0.401-0.216c-0.061,0.093-0.093,0.155-0.123,0.247l31.61,4.141
		c0.71,0.093,1.422,0.277,2.069,0.525c2.225-0.063,4.327,0.463,6.181,1.421c1.392,0.278,2.688,1.02,3.739,2.101
		c-1.176-0.711-2.473-1.205-3.895-1.392l-53.982-7.663c-5.654-0.804-10.908,3.306-11.681,9.115l-0.278,2.195
		c-0.772,5.809,3.245,11.216,8.9,12.019l53.983,7.664c0.617,0.092,1.204,0.092,1.793,0.092l16.16,3.492
		c0.742,0.154,1.482,0.247,2.225,0.247c1.854,0.494,3.8,0.71,5.809,0.556c4.883-0.308,9.146-2.533,12.143-5.808
		c0.68-0.31,1.329-0.711,1.918-1.268l18.756-18.076l23.546-21.476c0.649-0.586,1.204-1.236,1.668-1.915
		c0.99-0.588,1.916-1.299,2.751-2.194c4.852-5.13,4.698-13.411-0.309-18.417L275.73,10.937c-5.006-5.006-13.07-4.883-17.921,0.278
		c-0.155,0.185-0.309,0.37-0.464,0.556c-0.061,0.063-0.125,0.094-0.186,0.124l-29.14,26.728c0,0,0,0.031-0.03,0.031
		c-0.897-0.216-1.823-0.371-2.781-0.34l-41.467,0.37c-1.916,0.031-3.707,0.557-5.284,1.452c-0.896,0.062-1.792,0.309-2.627,0.742
		l-60.626,32.042c-1.482,0.804-2.564,2.101-3.15,3.585L91.69,96.499C89.37,98.758,89.031,102.342,90.699,105z"/>
	<path fill="#FFFFFF" d="M217.575,151.381c-0.093-0.433-0.186-0.866-0.401-1.269c-1.204-2.595-4.264-3.707-6.768-2.44
		l-26.202,12.915c-0.557,0.278-1.051,0.68-1.452,1.112c-0.061,0.031-0.125,0.031-0.186,0.063l-19.96,8.93
		c0.401,1.575,0.494,3.274,0.184,4.975l-0.524,2.935c-1.111,6.119-6.83,10.166-12.701,9.023l-17.181-3.398l-0.401,0.185
		c0.061-0.062,0.093-0.154,0.154-0.247l-31.271-6.18c-0.711-0.155-1.392-0.371-2.039-0.649c-2.226-0.093-4.264-0.741-6.057-1.824
		c-1.36-0.37-2.626-1.174-3.584-2.348c1.111,0.772,2.38,1.358,3.8,1.637l53.364,11.155c5.594,1.175,11.093-2.564,12.236-8.311
		l0.432-2.164c1.144-5.747-2.502-11.401-8.095-12.576l-53.365-11.155c-0.587-0.123-1.205-0.186-1.793-0.186l-15.914-4.542
		c-0.741-0.217-1.482-0.341-2.225-0.371c-1.821-0.618-3.738-0.957-5.777-0.957c-4.883,0-9.301,1.916-12.483,5.006
		c-0.712,0.277-1.392,0.617-1.979,1.143l-19.9,16.81l-24.906,19.869c-0.68,0.556-1.267,1.144-1.792,1.823
		c-1.02,0.525-2.009,1.174-2.873,2.008c-5.161,4.821-5.563,13.103-0.897,18.386l19.776,22.435c4.666,5.314,12.73,5.716,17.892,0.896
		c0.185-0.154,0.34-0.341,0.494-0.525c0.062-0.03,0.123-0.062,0.186-0.123l30.807-24.782c0,0,0-0.031,0.031-0.031
		c0.866,0.278,1.792,0.495,2.75,0.525l41.468,2.348c1.915,0.125,3.738-0.308,5.376-1.111c0.896,0,1.823-0.185,2.689-0.587
		l62.603-27.995c1.545-0.68,2.689-1.915,3.399-3.367l21.632-18.604C218.472,157.715,219.059,154.161,217.575,151.381z"/>
</g>
</svg>
