<?xml version="1.0" encoding="utf-8"?>
<!-- Generator: Adobe Illustrator 16.0.0, SVG Export Plug-In . SVG Version: 6.00 Build 0)  -->
<!DOCTYPE svg PUBLIC "-//W3C//DTD SVG 1.1//EN" "http://www.w3.org/Graphics/SVG/1.1/DTD/svg11.dtd">
<svg version="1.1" xmlns="http://www.w3.org/2000/svg" xmlns:xlink="http://www.w3.org/1999/xlink" x="0px" y="0px"
	 width="222.699px" height="192.528px" viewBox="0 0 222.699 192.528" enable-background="new 0 0 222.699 192.528"
	 xml:space="preserve">
<g id="Objects">
	<g>
		<g>
			<path fill="#FF7E3E" d="M61.563,161.887l2.932,14.244L72,176.093l2.849-14.626c2.343-0.69,4.535-1.834,6.557-3.109l12.051,7.913
				l5.267-5.334l-8.253-12.263c1.143-2.097,1.942-4.369,2.481-6.76l14.014-2.93l-0.039-7.506l-14.396-2.851
				c-0.693-2.343-1.606-4.539-2.881-6.558l7.914-12.052l-5.335-5.265l-12.263,8.261c-2.095-1.14-4.366-1.926-6.758-2.466
				l-2.93-13.987l-7.505,0.039l-2.856,14.37c-2.343,0.69-4.547,1.577-6.566,2.852l-12.065-7.913l-5.294,5.335l8.203,12.263
				c-1.142,2.098-2.043,4.369-2.582,6.761l-14.218,2.931l0.038,7.506l14.6,2.855c0.691,2.343,1.808,4.545,3.083,6.565l-7.914,12.067
				l5.336,5.296l12.263-8.195C56.899,160.435,59.171,161.348,61.563,161.887z M66.68,146.234c-5.345,0.027-9.7-4.283-9.728-9.628
				c-0.027-5.345,4.284-9.7,9.628-9.728c5.345-0.027,9.7,4.283,9.728,9.628C76.336,141.851,72.024,146.207,66.68,146.234z"/>
			<path fill="#F9CD54" d="M128.529,80.311l-10.863-7.854c0.319-2.194,0.313-4.389,0.028-6.538l11.092-6.929l-2.39-6.372
				l-13.218,2.125c-1.292-1.735-2.843-3.296-4.606-4.648l2.942-12.735l-6.195-2.815l-7.851,10.859
				c-2.194-0.319-4.386-0.318-6.535-0.033l-6.927-11.091l-6.373,2.389l2.125,13.221c-1.736,1.294-3.294,2.845-4.646,4.608
				l-12.729-2.939l-2.815,6.194l10.854,7.849c-0.318,2.194-0.324,4.384-0.039,6.532l-11.092,6.93l2.389,6.372l13.219-2.125
				c1.292,1.736,2.842,3.297,4.605,4.648l-2.942,12.735l6.195,2.815l7.851-10.858c2.191,0.321,4.387,0.319,6.535,0.035l6.929,11.092
				l6.372-2.39l-2.123-13.218c1.736-1.294,3.299-2.842,4.651-4.605l12.74,2.945L128.529,80.311z M89.789,78.369
				c-5.159-2.345-7.442-8.428-5.096-13.587c2.346-5.158,8.428-7.441,13.587-5.096c5.159,2.346,7.441,8.429,5.096,13.587
				C101.032,78.431,94.949,80.712,89.789,78.369z"/>
			<path fill="#ED1F3D" d="M198.554,146.824l-15.578-10.029c0.277-3.052,0.104-6.081-0.449-9.025l14.792-10.39l-3.772-8.616
				l-18.084,3.917c-1.913-2.299-4.168-4.338-6.702-6.072l3.111-17.794l-8.759-3.423l-10.027,15.57
				c-3.051-0.276-6.078-0.111-9.022,0.442l-10.385-14.792l-8.615,3.772l3.917,18.087c-2.3,1.916-4.335,4.172-6.069,6.706
				l-17.788-3.108l-3.424,8.76l15.564,10.023c-0.277,3.052-0.122,6.074,0.432,9.019l-14.792,10.389l3.772,8.616l18.084-3.917
				c1.912,2.299,4.169,4.337,6.703,6.072l-3.112,17.795l8.759,3.424l10.027-15.571c3.048,0.28,6.078,0.114,9.022-0.439
				l10.389,14.792l8.616-3.772l-3.914-18.084c2.299-1.916,4.341-4.169,6.076-6.703l17.801,3.114L198.554,146.824z M144.944,147.03
				c-7.294-2.853-10.899-11.078-8.046-18.372c2.853-7.294,11.078-10.898,18.372-8.044c7.293,2.853,10.898,11.077,8.045,18.371
				C160.465,146.279,152.241,149.88,144.944,147.03z"/>
		</g>
	</g>
</g>
<g id="Layer_5">
	<circle fill="#FF7E3E" cx="66.68" cy="136.596" r="5.375"/>
</g>
<g id="Layer_3">
	<circle fill="#F9CD54" cx="94.038" cy="69.028" r="6.268"/>
</g>
<g id="Layer_4">
	<circle fill="#ED1F3D" cx="150.126" cy="133.82" r="9.155"/>
</g>
</svg>
