<?xml version="1.0" encoding="utf-8"?>
<!-- Generator: Adobe Illustrator 16.0.0, SVG Export Plug-In . SVG Version: 6.00 Build 0)  -->
<!DOCTYPE svg PUBLIC "-//W3C//DTD SVG 1.1//EN" "http://www.w3.org/Graphics/SVG/1.1/DTD/svg11.dtd">
<svg version="1.1"
	 id="svg102" sodipodi:docname="parts_design.svg" inkscape:version="0.92.2 5c3e80d, 2017-08-06" xmlns:dc="http://purl.org/dc/elements/1.1/" xmlns:sodipodi="http://sodipodi.sourceforge.net/DTD/sodipodi-0.dtd" xmlns:rdf="http://www.w3.org/1999/02/22-rdf-syntax-ns#" xmlns:svg="http://www.w3.org/2000/svg" xmlns:inkscape="http://www.inkscape.org/namespaces/inkscape" xmlns:cc="http://creativecommons.org/ns#"
	 xmlns="http://www.w3.org/2000/svg" xmlns:xlink="http://www.w3.org/1999/xlink" x="0px" y="0px" width="450.64px"
	 height="315.559px" viewBox="34.778 255.871 450.64 315.559" enable-background="new 34.778 255.871 450.64 315.559"
	 xml:space="preserve">
<sodipodi:namedview  id="namedview104" inkscape:window-maximized="1" inkscape:pagecheckerboard="true" inkscape:window-y="0" inkscape:pageshadow="2" inkscape:window-height="796" inkscape:window-x="0" inkscape:window-width="1440" inkscape:current-layer="svg102" inkscape:pageopacity="1" inkscape:zoom="0.48645833" bordercolor="#666666" pagecolor="#000000" inkscape:cx="587.92291" inkscape:cy="540" gridtolerance="10" showgrid="false" objecttolerance="10" guidetolerance="10" borderopacity="1">
	</sodipodi:namedview>
<g id="g1008">
	<g id="g964">
		<path id="path9" inkscape:connector-curvature="0" fill="#ED1F3D" d="M230.396,256.222c-0.829,0-1.689,0.032-2.518,0.127
			c-0.223-0.096-0.478-0.127-0.733-0.127H70.479c-1.339-0.224-2.677-0.351-4.048-0.351c-17.468,0-31.652,19.252-31.652,43
			s14.185,43,31.652,43c0.829,0,1.689-0.032,2.518-0.127c0.223,0.096,0.478,0.127,0.733,0.127h156.666
			c1.339,0.223,2.678,0.351,4.048,0.351c17.467,0,31.652-19.252,31.652-43C262.047,275.474,247.863,256.222,230.396,256.222z"/>
	</g>
	<g id="Layer_2" transform="translate(-36.890792,-174.62099)">
		<path id="path50" inkscape:connector-curvature="0" fill="none" stroke="#FFFFFF" stroke-width="5" stroke-miterlimit="10" d="
			M194.48,467.713c0,0-16.214-12.814-17.784-5.754c-1.569,7.062-3.923,19.354-11.246,14.123c-2.615-1.857-5.179-5.833-7.532-9.546
			c-4.263-6.669-7.898-12.449-10.252-3.53c-3.661,13.86-7.846,21.183-16.214,15.168c-8.369-6.015-15.431-20.399-15.692-7.322
			c-0.261,13.076,44.46,16.738,24.583,18.83c-19.876,2.092,19.091-12.03,19.091-12.03s13.338-22.23,13.077-17.784
			c-7.061,16.215,20.922-9.938,9.677,8.107c-11.246,18.045,9.676,24.06,10.461,10.723c0.026-0.366,0.052-0.732,0.104-1.099
			c1.805-13.39,21.628-33.606,3.557-21.393c-18.568,12.553-29.291,24.845-29.291,24.845c-13.861-15.691-20.399-7.846-9.415-19.092
			c10.984-11.245-21.184-12.814-14.123,8.107c7.062,20.922,21.445,27.722,22.492,21.707c1.046-6.015,11.769-4.184,11.769-4.184
			s32.953-23.015,33.737-15.954c0.785,7.062,26.415,12.292,6.277-0.523c-20.138-12.815-19.876-26.153-29.03-17.522
			c-9.153,8.63-25.107,45.244-36.875,34.783s-7.323-8.63-7.323-8.63"/>
	</g>
	<g id="Layer_3" transform="translate(-36.890792,-174.62099)">
		
			<ellipse id="ellipse57" fill="none" stroke="#FFFFFF" stroke-width="4" stroke-miterlimit="10" cx="243.459" cy="495.128" rx="5.738" ry="5.993"/>
	</g>
	<g id="Layer_4" transform="rotate(32.867424,926.82313,308.84413)">
		
			<line id="line62" fill="none" stroke="#FFFFFF" stroke-width="4" stroke-miterlimit="10" x1="326.907" y1="714.991" x2="485.326" y2="808.384"/>
		
			<line id="line64" fill="none" stroke="#FFFFFF" stroke-width="4" stroke-miterlimit="10" x1="328.819" y1="704.472" x2="519.114" y2="638.49"/>
	</g>
	<g id="g69" transform="matrix(0.92333907,0,0,0.92675569,-133.20186,233.07638)">
		
			<path id="path67" inkscape:connector-curvature="0" fill="#FFFFFF" stroke="#FEFFFF" stroke-width="14" stroke-miterlimit="10" d="
			M552.272,138.88c14.662,0,28.878,2.869,42.234,8.543c12.91,5.451,24.544,13.292,34.489,23.269
			c9.977,9.977,17.786,21.579,23.269,34.489c5.673,13.387,8.543,27.604,8.543,42.234s-2.869,28.879-8.543,42.234
			c-5.451,12.908-13.292,24.544-23.269,34.489c-9.977,9.977-21.579,17.785-34.489,23.269c-13.388,5.673-27.603,8.542-42.234,8.542
			c-14.631,0-28.879-2.868-42.235-8.542c-12.91-5.45-24.544-13.292-34.489-23.269c-9.977-9.977-17.786-21.581-23.269-34.489
			c-5.674-13.387-8.543-27.604-8.543-42.234s2.869-28.879,8.543-42.234c5.451-12.91,13.292-24.544,23.269-34.489
			c9.977-9.977,21.579-17.786,34.489-23.269C523.393,141.749,537.609,138.88,552.272,138.88 M552.272,137.286
			c-60.818,0-110.129,49.31-110.129,110.128s49.311,110.127,110.129,110.127c60.817,0,110.128-49.309,110.128-110.127
			S613.089,137.286,552.272,137.286z"/>
	</g>
	<path id="path71" inkscape:connector-curvature="0" fill="none" stroke="#FF7E3E" stroke-width="15" stroke-miterlimit="10" d="
		M435.24,516.499c-36.522,19.173-82.476,7.19-102.773-26.823"/>
	<path id="path73" inkscape:connector-curvature="0" fill="none" stroke="#F9CD53" stroke-width="14" stroke-miterlimit="10" d="
		M339.143,390.172c-49.948,20.178-40.025,131.983,11.271,144.394"/>
	<path id="path75" inkscape:connector-curvature="0" fill="none" stroke="#ED1F3D" stroke-width="13" stroke-miterlimit="10" d="
		M345.793,412.847c-17.688,24.252-12.45,58.223,11.684,75.977"/>
</g>
</svg>
