<?xml version="1.0" encoding="utf-8"?>
<!-- Generator: Adobe Illustrator 16.0.0, SVG Export Plug-In . SVG Version: 6.00 Build 0)  -->
<!DOCTYPE svg PUBLIC "-//W3C//DTD SVG 1.1//EN" "http://www.w3.org/Graphics/SVG/1.1/DTD/svg11.dtd">
<svg version="1.1" xmlns="http://www.w3.org/2000/svg" xmlns:xlink="http://www.w3.org/1999/xlink" x="0px" y="0px"
	 width="192.881px" height="222.605px" viewBox="0 0 192.881 222.605" enable-background="new 0 0 192.881 222.605"
	 xml:space="preserve">
<g id="Objects">
	<g>
		<g>
			<path fill="#FF7E3E" d="M26.998,44.264L8.445,47.982v9.767l19.012,3.805c0.883,3.053,2.356,5.913,4.001,8.552L21.082,85.733
				l6.906,6.889l16.01-10.656c2.722,1.501,5.671,2.557,8.78,3.274l3.719,18.253h9.766l3.805-18.711
				c3.053-0.887,5.916-2.06,8.552-3.705l15.627,10.376l6.886-6.906l-10.667-16.01c1.498-2.718,2.536-5.668,3.253-8.776l18.218-3.719
				v-9.766l-18.677-3.812c-0.883-3.053-2.021-5.926-3.667-8.562l10.377-15.645l-6.907-6.924l-16.01,10.591
				c-2.722-1.5-5.671-2.688-8.779-3.405L64.556,0h-9.767l-3.812,18.977c-3.053,0.883-5.926,2.322-8.562,3.967L26.767,12.567
				l-6.927,6.907l10.581,16.01C28.919,38.206,27.716,41.156,26.998,44.264z M47.331,51.026c0-6.954,5.638-12.592,12.592-12.592
				s12.592,5.638,12.592,12.592s-5.638,12.592-12.592,12.592S47.331,57.981,47.331,51.026z M51.545,51.237
				c0-4.503,3.651-8.155,8.155-8.155c4.503,0,8.155,3.652,8.155,8.155s-3.652,8.155-8.155,8.155
				C55.196,59.393,51.545,55.741,51.545,51.237z"/>
			<path fill="#F9CD54" d="M132.691,131.94l10.292-14.082c2.853,0.43,5.708,0.437,8.507,0.08l8.941,14.478l8.307-3.066
				l-2.677-17.212c2.267-1.669,4.308-3.677,6.079-5.962l16.55,3.913l3.704-8.041l-14.076-10.288c0.43-2.853,0.443-5.705,0.086-8.502
				l14.478-8.938l-3.066-8.307l-17.215,2.676c-1.672-2.267-3.68-4.305-5.965-6.076l3.909-16.543l-8.041-3.704l-10.285,14.069
				c-2.853-0.429-5.702-0.452-8.499-0.095l-8.942-14.478l-8.306,3.066l2.677,17.213c-2.267,1.669-4.308,3.676-6.079,5.961
				l-16.55-3.913l-3.704,8.042l14.076,10.288c-0.433,2.849-0.446,5.705-0.089,8.502l-14.478,8.941l3.066,8.307l17.213-2.674
				c1.672,2.267,3.676,4.311,5.961,6.082l-3.917,16.556L132.691,131.94z M135.477,81.547c3.086-6.696,11.016-9.626,17.712-6.54
				c6.696,3.087,9.626,11.016,6.54,17.712s-11.016,9.626-17.712,6.54C135.32,96.176,132.393,88.247,135.477,81.547z"/>
			<path fill="#ED1F3D" d="M45.681,222.605l13.154-20.201c3.969,0.381,7.911,0.177,11.745-0.523L84,221.196l11.235-4.851
				l-4.976-23.556c3.004-2.473,5.672-5.395,7.945-8.68l23.132,4.167l4.513-11.374l-20.191-13.15
				c0.38-3.968,0.186-7.906-0.515-11.741l19.314-13.413l-4.851-11.235l-23.56,4.976c-2.477-3.005-5.399-5.668-8.685-7.941
				l4.163-23.124l-11.374-4.513l-13.146,20.184c-3.969-0.38-7.902-0.198-11.737,0.502L41.851,98.131l-11.235,4.851l4.976,23.555
				c-3.005,2.473-5.672,5.396-7.945,8.681L4.514,131.05L0,142.424l20.192,13.15c-0.385,3.964-0.189,7.907,0.511,11.741
				L1.388,180.733l4.851,11.235l23.556-4.972c2.478,3.005,5.396,5.677,8.681,7.95l-4.171,23.141L45.681,222.605z M45.771,152.852
				c3.761-9.472,14.486-14.106,23.958-10.346c9.471,3.761,14.105,14.486,10.344,23.958c-3.761,9.471-14.485,14.105-23.957,10.345
				C46.645,173.052,42.015,162.327,45.771,152.852z"/>
		</g>
	</g>
</g>
<g id="Layer_3">
	<circle fill="#F9CD54" cx="147.602" cy="87.138" r="8.156"/>
</g>
<g id="Layer_4">
	<circle fill="#ED1F3D" cx="62.924" cy="159.683" r="11.912"/>
</g>
</svg>
