<?xml version="1.0" encoding="UTF-8" standalone="no"?>
<!-- Generator: Adobe Illustrator 22.1.0, SVG Export Plug-In . SVG Version: 6.00 Build 0)  -->

<svg
   xmlns:dc="http://purl.org/dc/elements/1.1/"
   xmlns:cc="http://creativecommons.org/ns#"
   xmlns:rdf="http://www.w3.org/1999/02/22-rdf-syntax-ns#"
   xmlns:svg="http://www.w3.org/2000/svg"
   xmlns="http://www.w3.org/2000/svg"
   xmlns:sodipodi="http://sodipodi.sourceforge.net/DTD/sodipodi-0.dtd"
   xmlns:inkscape="http://www.inkscape.org/namespaces/inkscape"
   version="1.1"
   x="0px"
   y="0px"
   viewBox="0 0 1920 1080"
   style="enable-background:new 0 0 1920 1080;"
   xml:space="preserve"
   id="svg102"
   sodipodi:docname="parts_design.svg"
   inkscape:version="0.92.2 5c3e80d, 2017-08-06"><metadata
     id="metadata108"><rdf:RDF><cc:Work
         rdf:about=""><dc:format>image/svg+xml</dc:format><dc:type
           rdf:resource="http://purl.org/dc/dcmitype/StillImage" /><dc:title /></cc:Work></rdf:RDF></metadata><defs
     id="defs106"><linearGradient
       id="SVGID_1_"
       gradientUnits="userSpaceOnUse"
       x1="146"
       y1="410.5"
       x2="859"
       y2="410.5"
       gradientTransform="translate(-36.890792,-174.62099)"><stop
         offset="0"
         style="stop-color:#F7931E"
         id="stop4" /><stop
         offset="1"
         style="stop-color:#FF1D25"
         id="stop6" /></linearGradient></defs><sodipodi:namedview
     pagecolor="#000000"
     bordercolor="#666666"
     borderopacity="1"
     objecttolerance="10"
     gridtolerance="10"
     guidetolerance="10"
     inkscape:pageopacity="1"
     inkscape:pageshadow="2"
     inkscape:window-width="1440"
     inkscape:window-height="796"
     id="namedview104"
     showgrid="false"
     inkscape:pagecheckerboard="true"
     inkscape:zoom="0.48645833"
     inkscape:cx="587.92291"
     inkscape:cy="540"
     inkscape:window-x="0"
     inkscape:window-y="0"
     inkscape:window-maximized="1"
     inkscape:current-layer="svg102" /><style
     type="text/css"
     id="style2">
	.st0{fill:url(#SVGID_1_);}
	.st1{fill:#FFD76A;}
	.st2{fill:none;stroke:#000000;stroke-width:5;stroke-miterlimit:10;}
	.st3{fill:none;stroke:#79272D;stroke-width:2;stroke-miterlimit:10;}
	.st4{fill:none;stroke:#FFFFFF;stroke-width:2;stroke-miterlimit:10;}
	.st5{fill:#79272D;}
	.st6{fill:none;stroke:#FF3A26;stroke-width:19;stroke-miterlimit:10;}
	.st7{fill:none;stroke:#F7931E;stroke-width:19;stroke-miterlimit:10;}
	.st8{fill:none;stroke:#EA0032;stroke-width:19;stroke-miterlimit:10;}
	.st9{fill:#FCEE21;}
	.st10{fill:#FFBB00;}
	.st11{fill:none;}
	.st12{font-family:'Futura-Medium';}
	.st13{font-size:24px;}
</style><g
     id="g1008"><rect
       x="-620.6853"
       y="1452.233"
       transform="matrix(0.35995061,-0.93297136,0.9320731,0.36227025,0,0)"
       class="st11"
       width="44.4618"
       height="133.02173"
       id="rect89"
       style="fill:none;stroke-width:0.92502385" /><rect
       x="1508.0333"
       y="733.61713"
       class="st11"
       width="96.9506"
       height="29.192804"
       id="rect93"
       style="fill:none;stroke-width:0.92504579" /><g
       id="g964"><path
         inkscape:connector-curvature="0"
         style="fill:url(#SVGID_1_)"
         class="st0"
         d="m 722.80921,101.47901 c -2.6,0 -5.3,0.1 -7.9,0.4 -0.7,-0.3 -1.5,-0.4 -2.3,-0.4 h -491.5 c -4.2,-0.7 -8.4,-1.1 -12.7,-1.1 -54.8,0 -99.3,60.4 -99.3,134.9 0,74.5 44.5,134.9 99.3,134.9 2.6,0 5.3,-0.1 7.9,-0.4 0.7,0.3 1.5,0.4 2.3,0.4 h 491.5 c 4.2,0.7 8.4,1.1 12.7,1.1 54.8,0 99.3,-60.4 99.3,-134.9 0,-74.5 -44.5,-134.9 -99.3,-134.9 z"
         id="path9" /></g><circle
       style="fill:#ffd76a"
       class="st1"
       cx="233.10921"
       cy="319.379"
       r="8"
       id="circle13" /><circle
       style="fill:#ffd76a"
       class="st1"
       cx="184.10921"
       cy="279.379"
       r="8"
       id="circle15" /><circle
       style="fill:#ffd76a"
       class="st1"
       cx="289.10922"
       cy="171.37901"
       r="8"
       id="circle17" /><circle
       style="fill:#ffd76a"
       class="st1"
       cx="438.10922"
       cy="330.379"
       r="8"
       id="circle19" /><circle
       style="fill:#ffd76a"
       class="st1"
       cx="289.10922"
       cy="333.379"
       r="8"
       id="circle21" /><circle
       style="fill:#ffd76a"
       class="st1"
       cx="349.10922"
       cy="135.37901"
       r="8"
       id="circle23" /><circle
       style="fill:#ffd76a"
       class="st1"
       cx="404.10922"
       cy="149.37901"
       r="8"
       id="circle25" /><circle
       style="fill:#ffd76a"
       class="st1"
       cx="565.10919"
       cy="153.37901"
       r="8"
       id="circle27" /><circle
       style="fill:#ffd76a"
       class="st1"
       cx="529.10919"
       cy="318.379"
       r="8"
       id="circle29" /><circle
       style="fill:#ffd76a"
       class="st1"
       cx="538.10919"
       cy="284.379"
       r="8"
       id="circle31" /><circle
       style="fill:#ffd76a"
       class="st1"
       cx="722.10919"
       cy="164.37901"
       r="8"
       id="circle33" /><circle
       style="fill:#ffd76a"
       class="st1"
       cx="682.10919"
       cy="216.37901"
       r="8"
       id="circle35" /><circle
       style="fill:#ffd76a"
       class="st1"
       cx="729.10919"
       cy="297.379"
       r="8"
       id="circle37" /><circle
       style="fill:#ffd76a"
       class="st1"
       cx="158.10921"
       cy="207.37901"
       r="8"
       id="circle39" /><circle
       style="fill:#ffd76a"
       class="st1"
       cx="179.10921"
       cy="150.37901"
       r="8"
       id="circle41" /><circle
       style="fill:#ffd76a"
       class="st1"
       cx="765.10919"
       cy="256.379"
       r="8"
       id="circle43" /><circle
       style="fill:#ffd76a"
       class="st1"
       cx="693.10919"
       cy="134.37901"
       r="8"
       id="circle45" /><circle
       style="fill:#ffd76a"
       class="st1"
       cx="280.10922"
       cy="223.37901"
       r="8"
       id="circle47" /><g
       transform="translate(-36.890792,-174.62099)"
       id="Layer_2"><path
         id="path50"
         d="m 548.5,389.5 c 0,0 -62,-49 -68,-22 -6,27 -15,74 -43,54 -10,-7.1 -19.8,-22.3 -28.8,-36.5 -16.3,-25.5 -30.2,-47.6 -39.2,-13.5 -14,53 -30,81 -62,58 -32,-23 -59,-78 -60,-28 -1,50 170,64 94,72 -76,8 73,-46 73,-46 0,0 51,-85 50,-68 -27,62 80,-38 37,31 -43,69 37,92 40,41 0.1,-1.4 0.2,-2.8 0.4,-4.2 6.9,-51.2 82.7,-128.5 13.6,-81.8 -71,48 -112,95 -112,95 -53,-60 -78,-30 -36,-73 42,-43 -81,-49 -54,31 27,80 82,106 86,83 4,-23 45,-16 45,-16 0,0 126,-88 129,-61 3,27 101,47 24,-2 -77,-49 -76,-100 -111,-67 -35,33 -96,173 -141,133 -45,-40 -28,-33 -28,-33"
         class="st2"
         inkscape:connector-curvature="0"
         style="fill:none;stroke:#000000;stroke-width:5;stroke-miterlimit:10" /></g><g
       transform="translate(-36.890792,-174.62099)"
       id="Layer_3"><ellipse
         id="ellipse53"
         ry="18.799999"
         rx="18"
         cy="351.20001"
         cx="683"
         class="st3"
         style="fill:none;stroke:#79272d;stroke-width:2;stroke-miterlimit:10" /><ellipse
         id="ellipse55"
         ry="18.799999"
         rx="18"
         cy="508.20001"
         cx="374"
         class="st3"
         style="fill:none;stroke:#79272d;stroke-width:2;stroke-miterlimit:10" /><ellipse
         id="ellipse57"
         ry="18.799999"
         rx="18"
         cy="460.20001"
         cx="647"
         class="st3"
         style="fill:none;stroke:#79272d;stroke-width:2;stroke-miterlimit:10" /><ellipse
         id="ellipse59"
         ry="18.799999"
         rx="18"
         cy="343.20001"
         cx="257"
         class="st3"
         style="fill:none;stroke:#79272d;stroke-width:2;stroke-miterlimit:10" /></g><g
       transform="rotate(32.867424,926.82313,308.84413)"
       id="Layer_4"><line
         style="fill:none;stroke:#ffffff;stroke-width:2;stroke-miterlimit:10"
         id="line62"
         y2="772"
         x2="1150"
         y1="479"
         x1="653"
         class="st4" /><line
         style="fill:none;stroke:#ffffff;stroke-width:2;stroke-miterlimit:10"
         id="line64"
         y2="239"
         x2="1256"
         y1="446"
         x1="659"
         class="st4" /></g><g
       style="fill:#ffffff;fill-opacity:1;stroke:#feffff;stroke-width:16.64782524;stroke-miterlimit:10;stroke-dasharray:none;stroke-opacity:1"
       transform="matrix(0.92333907,0,0,0.92675569,-133.20186,233.07638)"
       id="g69"><path
         class="st5"
         d="m 1413.5,207 c 46,0 90.6,9 132.5,26.8 40.5,17.1 77,41.7 108.2,73 31.3,31.3 55.8,67.7 73,108.2 17.8,42 26.8,86.6 26.8,132.5 0,45.9 -9,90.6 -26.8,132.5 -17.1,40.5 -41.7,77 -73,108.2 -31.3,31.3 -67.7,55.8 -108.2,73 -42,17.8 -86.6,26.8 -132.5,26.8 -45.9,0 -90.6,-9 -132.5,-26.8 -40.5,-17.1 -77,-41.7 -108.2,-73 -31.3,-31.3 -55.8,-67.7 -73,-108.2 -17.8,-42 -26.8,-86.6 -26.8,-132.5 0,-45.9 9,-90.6 26.8,-132.5 17.1,-40.5 41.7,-77 73,-108.2 31.3,-31.3 67.7,-55.8 108.2,-73 41.9,-17.8 86.5,-26.8 132.5,-26.8 m 0,-5 C 1222.7,202 1068,356.7 1068,547.5 1068,738.3 1222.7,893 1413.5,893 1604.3,893 1759,738.3 1759,547.5 1759,356.7 1604.3,202 1413.5,202 Z"
         id="path67"
         inkscape:connector-curvature="0"
         style="fill:#ffffff;fill-opacity:1;stroke:#feffff;stroke-width:16.64782524;stroke-miterlimit:10;stroke-dasharray:none;stroke-opacity:1" /></g><path
       class="st6"
       d="M 1260.0245,1003.6737 C 1118.8459,1039.6319 973.88168,947.14164 935.84012,796.72919"
       id="path71"
       inkscape:connector-curvature="0"
       style="fill:none;stroke:#ff3a26;stroke-width:17.57587051;stroke-miterlimit:10" /><path
       class="st7"
       d="m 975.72836,515.73687 c -113.10903,149.02231 -97.2276,351.6111 35.36384,452.99818"
       id="path73"
       inkscape:connector-curvature="0"
       style="fill:none;stroke:#f7931e;stroke-width:17.57587051;stroke-miterlimit:10" /><path
       class="st8"
       d="m 983.66908,611.10003 c -55.49268,76.08664 -39.05724,182.66354 36.65652,238.36156"
       id="path75"
       inkscape:connector-curvature="0"
       style="fill:none;stroke:#ea0032;stroke-width:17.57587051;stroke-miterlimit:10" /><polygon
       transform="matrix(0.92333907,0,0,0.92675569,-133.20186,233.07638)"
       class="st9"
       points="1503,265.5 1518.9,242.4 1587.4,289.3 1595.5,311.9 1571.6,312.4 "
       id="polygon77"
       style="fill:#fcee21" /><polygon
       transform="matrix(0.92333907,0,0,0.92675569,-133.20186,233.07638)"
       class="st9"
       points="1477.6,812.4 1473.5,784.7 1504.5,780 1513.9,792.8 1508.7,807.7 "
       id="polygon79"
       style="fill:#fcee21" /><polygon
       transform="matrix(0.92333907,0,0,0.92675569,-133.20186,233.07638)"
       class="st10"
       points="1731.3,462.3 1709.2,479.5 1611,353 1599,314.7 1633.2,335.9 "
       id="polygon81"
       style="fill:#ffbb00" /><rect
       x="53.703598"
       y="1247.3014"
       transform="matrix(0.35995061,-0.93297136,0.9320731,0.36227025,0,0)"
       class="st11"
       width="44.4618"
       height="133.02173"
       id="rect85"
       style="fill:none;stroke-width:0.92502385" /><rect
       x="787.9212"
       y="709.52148"
       class="st11"
       width="142.65588"
       height="37.533604"
       id="rect97"
       style="fill:none;stroke-width:0.92504579" /></g></svg>