<?xml version="1.0" encoding="utf-8"?>
<!-- Generator: Adobe Illustrator 14.0.0, SVG Export Plug-In . SVG Version: 6.00 Build 43363)  -->
<!DOCTYPE svg PUBLIC "-//W3C//DTD SVG 1.1//EN" "http://www.w3.org/Graphics/SVG/1.1/DTD/svg11.dtd">
<svg version="1.1" id="_x2018_ëîé_x5F_1" xmlns="http://www.w3.org/2000/svg" xmlns:xlink="http://www.w3.org/1999/xlink"
	 x="0px" y="0px" width="1133.858px" height="566.93px" viewBox="0 0 1133.858 566.93" enable-background="new 0 0 1133.858 566.93"
	 xml:space="preserve">
<g>
	<defs>
		<rect id="SVGID_1_" y="0" width="1133.858" height="566.929"/>
	</defs>
	<clipPath id="SVGID_2_">
		<use xlink:href="#SVGID_1_"  overflow="visible"/>
	</clipPath>
	<rect y="0" clip-path="url(#SVGID_2_)" width="1133.858" height="566.929"/>
	<g display="none" clip-path="url(#SVGID_2_)">
		<path display="inline" fill="none" stroke="#FFFFFF" stroke-width="0.3345" stroke-miterlimit="10" d="M935.124,654.427
			c-195.355-21.383-171.585-159.11-267.17-244.382c-95.585-85.272-273.673-122.02-344.101-200.181
			C196.142,68.129,257.657-61.509,123.068-198.519"/>
		<path display="inline" fill="none" stroke="#FFFFFF" stroke-width="0.4257" stroke-miterlimit="10" d="M913.483,663.066
			c-179.65-29.662-157.707-166.2-255.802-253.628c-98.126-87.456-267.014-122.225-340.884-205.686
			C188.769,59.872,229.681-61.064,101.839-187.503"/>
		<path display="inline" fill="none" stroke="#FFFFFF" stroke-width="0.5169" stroke-miterlimit="10" d="M891.844,671.706
			c-163.945-37.942-143.829-173.29-244.435-262.874c-100.667-89.64-260.156-122.603-337.667-211.191
			C181.723,51.327,201.705-60.62,80.609-176.488"/>
		<path display="inline" fill="none" stroke="#FFFFFF" stroke-width="0.6081" stroke-miterlimit="10" d="M870.203,680.346
			c-148.24-46.222-129.95-180.381-233.066-272.12c-103.209-91.823-253.431-122.861-334.451-216.697
			C174.438,42.995,173.728-60.175,59.38-165.472"/>
		<path display="inline" fill="none" stroke="#FFFFFF" stroke-width="0.6993" stroke-miterlimit="10" d="M848.563,688.985
			C716.028,634.484,732.49,501.515,626.865,407.619c-105.751-94.007-246.73-123.1-331.235-222.203
			C167.114,34.701,145.751-59.73,38.151-154.457"/>
		<path display="inline" fill="none" stroke="#FFFFFF" stroke-width="0.7905" stroke-miterlimit="10" d="M826.923,697.625
			c-116.83-62.781-102.194-194.561-210.33-290.612C508.3,310.823,376.543,283.694,288.574,179.305
			C159.752,26.437,117.775-59.285,16.921-143.441"/>
		<path display="inline" fill="none" stroke="#FFFFFF" stroke-width="0.8817" stroke-miterlimit="10" d="M805.282,706.265
			c-101.124-71.061-88.315-201.651-198.962-299.858c-110.833-98.373-233.392-123.519-324.802-233.213
			C152.36,18.2,89.798-58.84-4.308-132.426"/>
		<path display="inline" fill="none" stroke="#FFFFFF" stroke-width="0.973" stroke-miterlimit="10" d="M783.643,714.904
			c-85.42-79.341-74.438-208.741-187.595-309.104C482.673,305.243,369.292,282.098,274.462,167.081
			C144.94,9.986,61.822-58.396-25.537-121.41"/>
		<path display="inline" fill="none" stroke="#FFFFFF" stroke-width="1.0642" stroke-miterlimit="10" d="M762.002,723.544
			c-69.714-87.62-60.56-215.831-176.227-318.351c-115.916-102.74-220.141-123.868-318.369-244.225
			C137.495,1.791,33.846-57.951-46.767-110.395"/>
		<path display="inline" fill="none" stroke="#FFFFFF" stroke-width="1.1554" stroke-miterlimit="10" d="M740.362,732.184
			c-54.01-95.899-46.683-222.922-164.858-327.597c-118.458-104.924-213.741-123.863-315.153-249.73
			C129.78-6.188,5.869-57.506-67.996-99.379"/>
		<path display="inline" fill="none" stroke="#FFFFFF" stroke-width="1.2466" stroke-miterlimit="10" d="M718.722,740.823
			c-38.304-104.18-32.804-230.012-153.49-336.843c-121-107.107-207.082-124.067-311.937-255.235
			C122.406-14.445-22.107-57.062-89.225-88.364"/>
		<path display="inline" fill="none" stroke="#FFFFFF" stroke-width="1.3378" stroke-miterlimit="10" d="M697.081,749.463
			c-22.599-112.459-18.925-237.102-142.122-346.089c-123.541-109.291-200.422-124.272-308.72-260.741
			C115.033-22.703-50.084-56.617-110.455-77.348"/>
	</g>
	<g display="none" clip-path="url(#SVGID_2_)">
		<path display="inline" fill="none" stroke="#FFFFFF" stroke-width="0.3345" stroke-miterlimit="10" d="M540.897,784.31
			c1.602-40.685,73.321-216.999-104.458-323.518c-116.153-69.596-150.887-203.128-269.954-314.779
			C100.723,84.346,4.985,55.702-87.855,41.446"/>
		<path display="inline" fill="none" stroke="#FFFFFF" stroke-width="0.5946" stroke-miterlimit="10" d="M552.727,781.89
			c-0.883-47.646,66.755-219.073-104.775-326.729c-117.408-73.688-154.617-195.21-273.791-308.754
			C96.633,72.541-5.331,46.066-94.775,32.427"/>
		<path display="inline" fill="none" stroke="#FFFFFF" stroke-width="0.8547" stroke-miterlimit="10" d="M564.557,779.47
			c-3.369-54.609,60.288-221.354-105.094-329.941c-118.62-77.886-158.191-187.462-277.627-302.729
			C92.597,60.674-15.646,36.431-101.694,23.407"/>
		<path display="inline" fill="none" stroke="#FFFFFF" stroke-width="1.1148" stroke-miterlimit="10" d="M576.387,777.05
			c-5.854-61.571,53.921-223.821-105.412-333.153c-119.78-82.191-161.665-179.821-281.464-296.705
			C88.614,48.75-25.962,26.795-108.613,14.388"/>
		<path display="inline" fill="none" stroke="#FFFFFF" stroke-width="1.375" stroke-miterlimit="10" d="M588.216,774.63
			c-8.34-68.534,47.658-226.458-105.73-336.365c-120.873-86.609-165.069-172.251-285.3-290.68
			C84.685,36.771-36.277,17.16-115.532,5.368"/>
		<path display="inline" fill="none" stroke="#FFFFFF" stroke-width="1.6351" stroke-miterlimit="10" d="M600.046,772.21
			c-10.826-75.496,41.499-229.248-106.048-339.577C372.11,341.491,325.574,267.901,204.861,147.978
			C80.809,24.738-46.593,7.524-122.452-3.651"/>
		<path display="inline" fill="none" stroke="#FFFFFF" stroke-width="1.8952" stroke-miterlimit="10" d="M611.875,769.79
			c-13.312-82.459,35.447-232.175-106.366-342.789c-122.811-95.792-171.74-157.249-292.973-278.63
			C76.984,12.654-56.909-2.112-129.371-12.671"/>
		<path display="inline" fill="none" stroke="#FFFFFF" stroke-width="2.1554" stroke-miterlimit="10" d="M623.705,767.37
			c-15.797-89.421,29.502-235.221-106.685-346.001C393.393,320.806,341.992,271.577,220.21,148.764
			C73.212,0.52-67.224-11.747-136.29-21.691"/>
		<path display="inline" fill="none" stroke="#FFFFFF" stroke-width="2.4155" stroke-miterlimit="10" d="M635.534,764.95
			c-18.282-96.384,23.666-238.372-107.002-349.213C404.207,310.278,350.397,273.224,227.886,149.157
			C69.696-11.864-77.54-21.383-143.209-30.71"/>
		<path display="inline" fill="none" stroke="#FFFFFF" stroke-width="2.6756" stroke-miterlimit="10" d="M647.363,762.53
			c-20.768-103.347,17.94-241.612-107.32-352.424C415.156,299.624,358.502,275.169,235.561,149.55
			C65.817-23.891-87.855-31.018-150.128-39.73"/>
	</g>
	<g clip-path="url(#SVGID_2_)">
		<path fill="none" stroke="#FFFFFF" stroke-width="0.6689" stroke-miterlimit="10" d="M394.255,857.17
			c-118.268-133.248,16.07-248.677-1.004-322.329c-22.07-95.199-119.869-83.067-176.777-158.789
			C160.228,301.211,116.037,145.986-8.43,130.534"/>
		<path display="none" fill="none" stroke="#F6F6F7" stroke-width="0.6689" stroke-miterlimit="10" d="M402.93,850.114
			c-107.371-124.833,18.282-245.477-9.245-322.275c-33.373-93.106-121.209-94.151-183.364-173.458
			C152.834,281.03,103.476,137.67-18.116,122.327"/>
		<path fill="none" stroke="#F0F1F1" stroke-width="0.6689" stroke-miterlimit="10" d="M411.604,843.059
			c-96.473-116.418,21.078-242.084-17.485-322.222c-43.758-90.932-122.46-105.282-189.951-188.127
			C145.562,260.772,90.915,129.354-27.802,114.12"/>
		<path fill="none" stroke="#EAEBEC" stroke-width="0.6689" stroke-miterlimit="10" d="M420.278,836.003
			C334.702,728,444.692,597.275,394.552,513.835c-53.408-88.879-123.625-116.467-196.538-202.796
			c-59.624-70.595-119.66-190-235.502-205.126"/>
		<path fill="none" stroke="#E4E5E6" stroke-width="0.6689" stroke-miterlimit="10" d="M428.953,828.947
			c-74.679-99.589,28.205-235.558-33.967-322.113c-62.53-87.055-124.707-127.713-203.125-217.467
			C131.3,220.054,65.793,112.723-47.173,97.707"/>
		<path fill="none" stroke="#DFE0E1" stroke-width="0.6689" stroke-miterlimit="10" d="M437.627,821.892
			c-63.781-91.174,32.352-232.656-42.208-322.06c-71.298-85.495-125.709-139.024-209.712-232.136
			C124.278,199.607,53.232,104.408-56.859,89.5"/>
		<path fill="none" stroke="#D9DADC" stroke-width="0.6689" stroke-miterlimit="10" d="M446.302,814.836
			c-52.884-82.759,36.759-230.053-50.448-322.006c-79.852-84.196-126.633-150.406-216.3-246.805
			C117.312,179.11,40.671,96.092-66.545,81.292"/>
		<path display="none" fill="none" stroke="#D3D5D6" stroke-width="0.6689" stroke-miterlimit="10" d="M454.976,807.78
			c-41.987-74.344,41.351-227.744-58.689-321.952C308.004,402.692,268.805,323.966,173.4,224.354
			C110.391,158.566,28.11,87.776-76.231,73.086"/>
		<path fill="none" stroke="#CDCFD1" stroke-width="0.6689" stroke-miterlimit="10" d="M463.65,800.725
			c-31.09-65.929,46.063-225.711-66.93-321.897c-96.66-82.283-128.258-173.398-229.474-276.144
			C103.508,137.981,15.549,79.461-85.917,64.879"/>
		<path display="none" fill="none" stroke="#C8C9CB" stroke-width="0.6689" stroke-miterlimit="10" d="M472.325,793.669
			c-20.193-57.514,50.849-223.924-75.17-321.844C292.13,390.218,268.191,286.811,161.094,181.012
			C96.656,117.356,2.988,71.145-95.603,56.672"/>
		<path fill="none" stroke="#C2C4C6" stroke-width="0.6689" stroke-miterlimit="10" d="M480.999,786.613
			c-9.295-49.1,55.674-222.35-83.411-321.79c-113.403-81.078-129.6-196.714-242.648-305.482
			C89.83,96.696-9.573,62.83-105.289,48.465"/>
		<path fill="none" stroke="#BCBEC0" stroke-width="0.6689" stroke-miterlimit="10" d="M489.673,779.558
			c1.602-40.685,60.515-220.958-91.651-321.735C276.211,377.148,267.854,249.321,148.787,137.67
			C83.024,76.003-22.133,54.514-114.974,40.258"/>
	</g>
	<g display="none" clip-path="url(#SVGID_2_)">
		<path display="inline" fill="none" stroke="#BCBEC0" stroke-width="1.3378" stroke-miterlimit="10" d="M1179.545,545.413
			c-18.278-7.202-266.773-3.804-348.712-58.165c-147.311-97.733-79.471-222.499-198.535-265.234
			c-119.064-42.734-221.392-70.9-206.404-210.267c14.988-139.366-25.923-208.148-49.718-236.401"/>
		<path fill="none" stroke="#BCBEC0" stroke-width="1.2466" stroke-miterlimit="10" d="M1164.664,553.564
			c-36.009-9.503-264.032-16.771-347.405-73.659c-142.28-97.084-96.989-214.744-211.632-260.699
			C490.704,172.94,397.83,140.49,410.454,6.943c12.887-131.748-25.669-199.331-52.494-230.301"/>
		<path fill="none" stroke="#BCBEC0" stroke-width="1.1554" stroke-miterlimit="10" d="M1149.783,561.715
			c-53.739-11.803-261.314-29.688-346.099-89.151c-137.32-96.31-114.507-206.989-224.729-256.165
			c-110.781-49.797-194.618-86.567-183.942-214.26c10.382-124.164-25.416-190.512-55.27-224.201"/>
		<path fill="none" stroke="#BCBEC0" stroke-width="1.0642" stroke-miterlimit="10" d="M1134.902,569.865
			c-71.47-14.103-258.622-42.555-344.793-104.645C657.682,369.8,658.085,265.987,552.286,213.591
			c-106.64-53.329-181.2-94.39-172.711-216.257c8.119-116.551-25.162-181.693-58.046-218.1"/>
		<path fill="none" stroke="#BCBEC0" stroke-width="0.973" stroke-miterlimit="10" d="M1120.021,578.016
			c-89.2-16.402-255.962-55.37-343.486-120.138c-127.604-94.427-149.674-191.24-250.92-247.095
			C422.983,154.164,357.861,108.579,364.135-7.471c5.889-108.931-24.909-172.875-60.823-211.999"/>
		<path fill="none" stroke="#BCBEC0" stroke-width="0.8817" stroke-miterlimit="10" d="M1105.141,586.166
			c-106.931-18.703-253.34-68.129-342.18-135.631c-122.846-93.338-167.214-183.47-264.017-242.56
			C400.43,147.84,344.671,97.964,348.695-12.275c3.698-101.304-24.656-164.057-63.599-205.898"/>
		<path display="inline" fill="none" stroke="#BCBEC0" stroke-width="0.7905" stroke-miterlimit="10" d="M1090.259,594.316
			C965.6,573.313,839.5,513.486,749.386,443.193C631.236,351.03,564.641,267.474,472.273,205.167
			C377.886,141.498,331.524,87.357,333.255-17.08c1.552-93.671-24.402-155.238-66.375-199.798"/>
		<path display="inline" fill="none" stroke="#BCBEC0" stroke-width="0.6993" stroke-miterlimit="10" d="M1075.379,602.467
			c-142.391-23.303-248.23-93.468-339.567-166.616c-113.517-90.91-202.265-167.985-290.209-233.491
			C355.354,135.137,318.433,76.754,317.815-21.884c-0.539-86.034-24.148-146.42-69.151-193.698"/>
		<path display="inline" fill="none" stroke="#BCBEC0" stroke-width="0.6081" stroke-miterlimit="10" d="M1060.498,610.618
			c-160.121-25.604-245.757-106.041-338.261-182.11C613.293,338.921,502.468,268.24,418.932,199.551
			C332.838,128.76,305.414,66.152,302.375-26.689c-2.566-78.396-23.896-137.602-71.928-187.597"/>
		<path fill="none" stroke="#BCBEC0" stroke-width="0.5169" stroke-miterlimit="10" d="M1045.616,618.769
			C867.766,590.865,802.27,500.226,708.662,421.166C604.23,332.964,471.531,268.463,392.261,196.744
			C310.469,122.226,292.49,55.545,286.936-31.494c-4.516-70.762-23.642-128.783-74.705-181.497"/>
		<path fill="none" stroke="#BCBEC0" stroke-width="0.4257" stroke-miterlimit="10" d="M1030.736,626.919
			c-195.582-30.203-241.012-130.97-335.648-213.096c-99.979-86.762-254.649-144.947-329.498-219.888
			c-77.65-78.049-85.896-149.018-94.094-230.234c-6.374-63.144-23.388-119.964-77.48-175.396"/>
		<path fill="none" stroke="#BCBEC0" stroke-width="0.3345" stroke-miterlimit="10" d="M1015.854,635.069
			C802.543,602.566,777.098,491.753,681.514,406.48c-95.585-85.271-272.167-137.191-342.595-215.353
			C211.208,49.392,310.388-73.389,175.799-210.398"/>
	</g>
	<g clip-path="url(#SVGID_2_)">
		<path fill="none" stroke="#FFFFFF" stroke-width="1.3378" stroke-miterlimit="10" d="M1179.545,545.413
			c-9.847-7.202-143.701-3.804-187.839-58.165C900.482,374.892,939,350.313,898.966,197.067
			C858.521,42.252,796.015,29.287,804.05-109.423c8.073-139.366-51.802-209.079-82.862-204.327"/>
		<path fill="none" stroke="#F6F6F7" stroke-width="1.2484" stroke-miterlimit="10" d="M1178.175,545.413
			c-10.296-7.202-150.264-3.804-196.417-58.165c-93.77-111.027-50.446-143.091-94.455-287.373
			C842.944,54.183,769.79,40.364,781.249-99.02c11.216-139.095-48.88-208.382-78.868-206.63"/>
		<path display="none" fill="none" stroke="#F0F1F1" stroke-width="1.159" stroke-miterlimit="10" d="M1176.806,545.413
			c-10.745-7.202-156.951-3.694-204.997-58.165c-96.563-109.479-48.185-149.247-96.169-284.565
			C827.368,66.113,743.566,51.441,758.447-88.616c14.359-138.823-45.957-207.686-74.872-208.935"/>
		<path fill="none" stroke="#EAEBEC" stroke-width="1.0696" stroke-miterlimit="10" d="M1175.436,545.413
			c-11.195-7.202-163.552-3.655-213.575-58.165c-99.18-108.075-45.925-155.402-97.884-281.757
			C811.792,78.043,717.343,62.518,735.646-78.212c17.501-138.551-43.036-206.989-70.878-211.238"/>
		<path fill="none" stroke="#E4E5E6" stroke-width="0.9802" stroke-miterlimit="10" d="M1174.066,545.413
			c-11.645-7.202-170.139-3.628-222.155-58.165c-101.765-106.696-43.664-161.559-99.598-278.949
			C796.216,89.973,691.42,73.641,712.846-67.809c20.938-138.236-40.114-206.292-66.883-213.542"/>
		<path fill="none" stroke="#DFE0E1" stroke-width="0.8908" stroke-miterlimit="10" d="M1172.696,545.413
			c-12.095-7.202-176.709-3.612-230.733-58.165C837.642,381.906,900.56,319.534,840.65,211.107
			C780.64,101.903,665.216,84.728,690.045-57.405c24.098-137.954-37.192-205.596-62.889-215.846"/>
		<path fill="none" stroke="#D9DADC" stroke-width="0.8014" stroke-miterlimit="10" d="M1171.326,545.413
			c-12.543-7.202-183.268-3.61-239.313-58.165c-106.853-104.013-39.143-173.87-103.026-273.333
			C765.063,113.833,638.99,95.812,667.243-47.001c27.237-137.677-34.271-204.9-58.893-218.15"/>
		<path fill="none" stroke="#D3D5D6" stroke-width="0.712" stroke-miterlimit="10" d="M1169.957,545.413
			c-12.993-7.202-189.814-3.621-247.893-58.165c-109.36-102.708-36.882-180.025-104.74-270.525
			c-67.837-90.959-204.581-109.832-172.882-253.321c30.354-137.403-31.349-204.203-54.898-220.454"/>
		<path fill="none" stroke="#CDCFD1" stroke-width="0.6226" stroke-miterlimit="10" d="M1168.588,545.413
			c-13.443-7.202-196.351-3.646-256.472-58.165C800.267,385.82,877.495,301.066,805.661,219.53
			c-71.75-81.836-219.438-101.627-184.02-245.725c33.214-137.193-28.427-203.506-50.903-222.758"/>
		<path fill="none" stroke="#C8C9CB" stroke-width="0.5332" stroke-miterlimit="10" d="M1167.218,545.413
			c-13.893-7.202-202.771-3.804-265.05-58.165c-114.129-100.392-32.361-192.337-108.17-264.91
			C718.335,149.624,560,128.979,598.84-15.791c36.356-136.922-25.505-202.81-46.908-225.062"/>
		<path display="none" fill="none" stroke="#C2C4C6" stroke-width="0.4438" stroke-miterlimit="10" d="M1165.848,545.413
			c-14.342-7.202-209.333-3.804-273.629-58.165c-116.673-99.063-30.101-198.492-109.884-262.102
			c-79.576-63.592-248.56-85.089-206.296-230.534c39.499-136.65-22.583-202.113-42.913-227.366"/>
		<path display="none" fill="none" stroke="#BCBEC0" stroke-width="0.3544" stroke-miterlimit="10" d="M1164.479,545.413
			c-14.792-7.202-215.896-3.804-282.209-58.165C763.052,389.515,854.431,282.6,770.672,227.954
			c-83.489-54.47-263.12-76.821-217.434-222.938c42.642-136.379-19.662-201.417-38.918-229.67"/>
	</g>
	<g display="none" clip-path="url(#SVGID_2_)">
		<path display="inline" fill="#FFFFFF" d="M1179.3,546.035c-4.66-1.836-25.318-3.009-53.91-4.632
			c-81.841-4.646-234.177-13.294-294.927-53.598c-75.5-50.091-94.477-106.814-111.22-156.86
			c-15.712-46.964-29.281-87.523-87.171-108.302c-6.36-2.283-12.673-4.523-18.922-6.743c-54.461-19.336-105.901-37.6-140.796-67.155
			c-38.685-32.765-53.659-76.32-47.125-137.07c6.546-60.868,3.083-114.567-10.292-159.606
			c-8.901-29.974-22.481-56.355-39.273-76.293l1.023-0.862c16.909,20.077,30.579,46.625,39.532,76.774
			c13.425,45.209,16.904,99.085,10.339,160.13c-6.481,60.269,8.345,103.454,46.66,135.906
			c34.708,29.397,86.036,47.621,140.378,66.916c6.251,2.219,12.564,4.46,18.926,6.744c58.501,20.997,72.166,61.842,87.988,109.137
			c16.675,49.841,35.573,106.332,110.691,156.169c60.447,40.104,212.548,48.738,294.263,53.377
			c29.786,1.691,49.464,2.809,54.324,4.724L1179.3,546.035z"/>
	</g>
	<g clip-path="url(#SVGID_2_)">
		<path fill="none" stroke="#BCBEC0" stroke-width="0.25" stroke-miterlimit="10" d="M1209.545,545.413
			c-5.776-7.202-94.157-11.085-125.968-61.461c-66.785-105.762-39.91-150.271-63.396-303.516
			C996.457,25.621,1072.75-1.291,1077.464-140c4.736-139.366-118.574-178.501-136.795-173.75"/>
		<path display="none" fill="none" stroke="#C7C8CA" stroke-width="0.5417" stroke-miterlimit="10" d="M1209.545,545.413
			c-6.454-7.202-102.414-9.872-136.279-60.911c-70.858-106.861-45.793-147.354-68.286-301.294
			c-22.688-155.19,29.981-179.402,35.249-318.112c5.292-139.366-110.779-183.598-131.14-178.846"/>
		<path fill="none" stroke="#D1D3D4" stroke-width="0.8333" stroke-miterlimit="10" d="M1209.545,545.413
			c-7.133-7.202-110.672-8.658-146.591-60.362c-74.932-107.96-51.675-144.436-73.178-299.071
			c-21.65-155.566,7.396-177.078,13.216-315.788c5.849-139.366-102.982-188.694-125.483-183.942"/>
		<path fill="none" stroke="#DCDDDE" stroke-width="1.125" stroke-miterlimit="10" d="M1209.545,545.413
			c-7.812-7.202-118.93-7.444-156.903-59.813c-79.004-109.06-57.556-141.52-78.067-296.849
			c-20.614-155.941-15.192-174.754-8.817-313.463c6.405-139.366-95.188-193.79-119.829-189.038"/>
		<path display="none" fill="none" stroke="#E6E7E8" stroke-width="1.4167" stroke-miterlimit="10" d="M1209.545,545.413
			c-8.489-7.202-127.187-6.23-167.215-59.264c-83.078-110.158-63.438-138.602-82.959-294.625
			c-19.576-156.317-37.778-172.43-30.85-311.139c6.961-139.366-87.393-198.886-114.174-194.134"/>
		<path fill="none" stroke="#F1F2F2" stroke-width="1.7083" stroke-miterlimit="10" d="M1209.545,545.413
			c-9.168-7.202-135.443-5.017-177.526-58.715c-87.151-111.257-69.319-135.684-87.851-292.403
			C925.629,37.604,883.804,24.19,891.285-114.519c7.518-139.366-79.597-203.982-108.518-199.23"/>
		<path fill="none" stroke="#FFFFFF" stroke-width="2" stroke-miterlimit="10" d="M1209.545,545.413
			c-9.847-7.202-143.701-3.804-187.839-58.165c-91.224-112.356-75.2-132.767-92.74-290.181
			C911.464,40,846.015,29.287,854.05-109.423c8.073-139.366-71.802-209.079-102.862-204.327"/>
	</g>
	<g clip-path="url(#SVGID_2_)">
		<path display="none" fill="none" stroke="#FFFFFF" stroke-width="2" stroke-miterlimit="10" d="M310.432,818.907
			c-61.61-121.891-12.516-223.318-33.782-289.347c-28.827-89.503-103.963-95.604-154.555-168.215
			C72.093,289.579,75.927,155.182-75.681,141.1"/>
		<path fill="none" stroke="#EEEFF0" stroke-width="1.8619" stroke-miterlimit="10" d="M305.311,832.888
			c-60.806-120.299-12.353-220.401-33.341-285.567c-28.45-88.335-102.605-94.355-152.536-166.019
			c-49.35-70.83-45.565-203.472-195.194-217.37"/>
		<path fill="none" stroke="#E1E2E3" stroke-width="1.7239" stroke-miterlimit="10" d="M300.19,846.868
			c-60.001-118.706-12.189-217.485-32.899-281.789c-28.074-87.166-101.248-93.106-150.518-163.822
			C68.075,331.364,71.81,200.478-75.839,186.764"/>
		<path fill="none" stroke="#D4D5D7" stroke-width="1.5858" stroke-miterlimit="10" d="M295.069,860.849
			c-59.197-117.114-12.025-214.569-32.458-278.011c-27.697-85.997-99.89-91.858-148.5-161.625
			C66.067,352.258,69.751,223.125-75.917,209.596"/>
		<path display="none" fill="none" stroke="#C7C8CA" stroke-width="1.4478" stroke-miterlimit="10" d="M289.948,874.829
			c-58.393-115.522-11.862-211.652-32.018-274.231c-27.321-84.829-98.533-90.61-146.481-159.43
			C64.058,373.15,67.692,245.773-75.997,232.428"/>
		<path fill="none" stroke="#B9BBBD" stroke-width="1.3097" stroke-miterlimit="10" d="M284.827,888.81
			c-57.588-113.931-11.699-208.736-31.576-270.453c-26.945-83.66-97.175-89.361-144.463-157.232
			C62.049,394.043,65.634,268.421-76.076,255.259"/>
		<path fill="none" stroke="#ACAEB1" stroke-width="1.1716" stroke-miterlimit="10" d="M279.706,902.79
			c-56.783-112.339-11.536-205.82-31.135-266.675c-26.568-82.491-95.817-88.113-142.445-155.035
			c-46.085-66.145-42.551-190.011-182.28-202.989"/>
		<path fill="none" stroke="#A0A2A4" stroke-width="1.0336" stroke-miterlimit="10" d="M274.585,916.771
			c-55.979-110.748-11.372-202.904-30.694-262.897c-26.192-81.322-94.46-86.864-140.427-152.839
			C58.032,435.829,61.516,313.717-76.233,300.923"/>
		<path display="none" fill="none" stroke="#939598" stroke-width="0.8955" stroke-miterlimit="10" d="M269.464,930.752
			c-55.174-109.156-11.208-199.988-30.253-259.118c-25.815-80.153-93.102-85.616-138.409-150.643
			c-44.779-64.27-41.345-184.626-177.115-197.236"/>
	</g>
</g>
</svg>
